<svg aria-roledescription="er" viewBox="0 0 1022.3671875 518" style="max-width: 1022.37px; background-color: white;" xmlns:xlink="http://www.w3.org/1999/xlink" xmlns="http://www.w3.org/2000/svg" width="100%" id="mermaid-0"><style>#mermaid-0{font-family:"trebuchet ms",verdana,arial,sans-serif;font-size:16px;fill:#000000;}#mermaid-0 .error-icon{fill:#552222;}#mermaid-0 .error-text{fill:#552222;stroke:#552222;}#mermaid-0 .edge-thickness-normal{stroke-width:2px;}#mermaid-0 .edge-thickness-thick{stroke-width:3.5px;}#mermaid-0 .edge-pattern-solid{stroke-dasharray:0;}#mermaid-0 .edge-pattern-dashed{stroke-dasharray:3;}#mermaid-0 .edge-pattern-dotted{stroke-dasharray:2;}#mermaid-0 .marker{fill:#000000;stroke:#000000;}#mermaid-0 .marker.cross{stroke:#000000;}#mermaid-0 svg{font-family:"trebuchet ms",verdana,arial,sans-serif;font-size:16px;}#mermaid-0 .entityBox{fill:#cde498;stroke:#13540c;}#mermaid-0 .attributeBoxOdd{fill:#ffffff;stroke:#13540c;}#mermaid-0 .attributeBoxEven{fill:#f2f2f2;stroke:#13540c;}#mermaid-0 .relationshipLabelBox{fill:hsl(78.1578947368, 58.4615384615%, 84.5098039216%);opacity:0.7;background-color:hsl(78.1578947368, 58.4615384615%, 84.5098039216%);}#mermaid-0 .relationshipLabelBox rect{opacity:0.5;}#mermaid-0 .relationshipLine{stroke:#000000;}#mermaid-0 .entityTitleText{text-anchor:middle;font-size:18px;fill:#000000;}#mermaid-0 :root{--mermaid-font-family:"trebuchet ms",verdana,arial,sans-serif;}</style><g/><defs><marker orient="auto" markerHeight="18" markerWidth="18" refY="9" refX="0" id="ONLY_ONE_START"><path d="M9,0 L9,18 M15,0 L15,18" fill="none" stroke="gray"/></marker></defs><defs><marker orient="auto" markerHeight="18" markerWidth="18" refY="9" refX="18" id="ONLY_ONE_END"><path d="M3,0 L3,18 M9,0 L9,18" fill="none" stroke="gray"/></marker></defs><defs><marker orient="auto" markerHeight="18" markerWidth="30" refY="9" refX="0" id="ZERO_OR_ONE_START"><circle r="6" cy="9" cx="21" fill="white" stroke="gray"/><path d="M9,0 L9,18" fill="none" stroke="gray"/></marker></defs><defs><marker orient="auto" markerHeight="18" markerWidth="30" refY="9" refX="30" id="ZERO_OR_ONE_END"><circle r="6" cy="9" cx="9" fill="white" stroke="gray"/><path d="M21,0 L21,18" fill="none" stroke="gray"/></marker></defs><defs><marker orient="auto" markerHeight="36" markerWidth="45" refY="18" refX="18" id="ONE_OR_MORE_START"><path d="M0,18 Q 18,0 36,18 Q 18,36 0,18 M42,9 L42,27" fill="none" stroke="gray"/></marker></defs><defs><marker orient="auto" markerHeight="36" markerWidth="45" refY="18" refX="27" id="ONE_OR_MORE_END"><path d="M3,9 L3,27 M9,18 Q27,0 45,18 Q27,36 9,18" fill="none" stroke="gray"/></marker></defs><defs><marker orient="auto" markerHeight="36" markerWidth="57" refY="18" refX="18" id="ZERO_OR_MORE_START"><circle r="6" cy="18" cx="48" fill="white" stroke="gray"/><path d="M0,18 Q18,0 36,18 Q18,36 0,18" fill="none" stroke="gray"/></marker></defs><defs><marker orient="auto" markerHeight="36" markerWidth="57" refY="18" refX="39" id="ZERO_OR_MORE_END"><circle r="6" cy="18" cx="9" fill="white" stroke="gray"/><path d="M21,18 Q39,0 57,18 Q39,36 21,18" fill="none" stroke="gray"/></marker></defs><path style="stroke: gray; fill: none;" marker-start="url(#ZERO_OR_MORE_START)" marker-end="url(#ONLY_ONE_END)" d="M259.5634765625,132L239.19222005208334,147.66666666666666C218.82096354166666,163.33333333333334,178.07845052083334,194.66666666666666,163.1419766191123,227.83333333333334C148.20550271739128,261,159.0750679347826,296,164.50985054347825,313.5L169.9446331521739,331" class="er relationshipLine"/><path style="stroke: gray; fill: none;" marker-start="url(#ZERO_OR_MORE_START)" marker-end="url(#ONLY_ONE_END)" d="M334.7021484375,132L348.95361328125,147.66666666666666C363.205078125,163.33333333333334,391.7080078125,194.66666666666666,405.95947265625,227.83333333333334C420.2109375,261,420.2109375,296,420.2109375,313.5L420.2109375,331" class="er relationshipLine"/><path style="stroke: gray; fill: none;" marker-start="url(#ZERO_OR_MORE_START)" marker-end="url(#ONLY_ONE_END)" d="M693.11328125,176L693.11328125,184.33333333333334C693.11328125,192.66666666666666,693.11328125,209.33333333333334,693.11328125,226C693.11328125,242.66666666666666,693.11328125,259.3333333333333,693.11328125,267.6666666666667L693.11328125,276" class="er relationshipLine"/><path style="stroke: gray; fill: none;" marker-start="url(#ZERO_OR_MORE_START)" marker-end="url(#ZERO_OR_ONE_END)" d="M594.1796875,126.8239279458705L537.4453125,143.3532732882254C480.7109375,159.8826186305803,367.2421875,192.94130931529017,303.2863451086957,226.9706546576451C239.33050271739128,261,224.8875679347826,296,217.66610054347825,313.5L210.4446331521739,331" class="er relationshipLine"/><path style="stroke: gray; fill: none;" marker-start="url(#ZERO_OR_ONE_START)" marker-end="url(#ONLY_ONE_END)" d="M792.046875,147.11010119372236L818.5345052083334,160.2584176614353C845.0221354166666,173.40673412914825,897.9973958333334,199.7033670645741,924.4850260416666,232.18501686562038C950.97265625,264.6666666666667,950.97265625,303.3333333333333,950.97265625,322.6666666666667L950.97265625,342" class="er relationshipLine"/><g transform="translate(899.578125,342 )" id="entity-JournalStatus-0515193c-d702-4a11-a4d9-ef8380e187e7"><rect height="90" width="102.7890625" y="0" x="0" class="er entityBox"/><text style="dominant-baseline: middle; text-anchor: middle; font-size: 12px;" transform="translate(51.39453125,12)" y="0" x="0" id="text-entity-JournalStatus-0515193c-d702-4a11-a4d9-ef8380e187e7" class="er entityLabel">JournalStatus</text><rect height="22" width="51.39453125" y="24" x="0" class="er attributeBoxOdd"/><text style="dominant-baseline: middle; font-size: 10.2px;" transform="translate(5,35)" y="0" x="0" id="text-entity-JournalStatus-0515193c-d702-4a11-a4d9-ef8380e187e7-attr-1-type" class="er entityLabel">ACTIVE</text><rect height="22" width="51.39453125" y="24" x="51.39453125" class="er attributeBoxOdd"/><text style="dominant-baseline: middle; font-size: 10.2px;" transform="translate(56.39453125,35)" y="0" x="0" id="text-entity-JournalStatus-0515193c-d702-4a11-a4d9-ef8380e187e7-attr-1-name" class="er entityLabel">ACTIVE</text><rect height="22" width="51.39453125" y="46" x="0" class="er attributeBoxEven"/><text style="dominant-baseline: middle; font-size: 10.2px;" transform="translate(5,57)" y="0" x="0" id="text-entity-JournalStatus-0515193c-d702-4a11-a4d9-ef8380e187e7-attr-2-type" class="er entityLabel">TRASHED</text><rect height="22" width="51.39453125" y="46" x="51.39453125" class="er attributeBoxEven"/><text style="dominant-baseline: middle; font-size: 10.2px;" transform="translate(56.39453125,57)" y="0" x="0" id="text-entity-JournalStatus-0515193c-d702-4a11-a4d9-ef8380e187e7-attr-2-name" class="er entityLabel">TRASHED</text><rect height="22" width="51.39453125" y="68" x="0" class="er attributeBoxOdd"/><text style="dominant-baseline: middle; font-size: 10.2px;" transform="translate(5,79)" y="0" x="0" id="text-entity-JournalStatus-0515193c-d702-4a11-a4d9-ef8380e187e7-attr-3-type" class="er entityLabel">DELETED</text><rect height="22" width="51.39453125" y="68" x="51.39453125" class="er attributeBoxOdd"/><text style="dominant-baseline: middle; font-size: 10.2px;" transform="translate(56.39453125,79)" y="0" x="0" id="text-entity-JournalStatus-0515193c-d702-4a11-a4d9-ef8380e187e7-attr-3-name" class="er entityLabel">DELETED</text></g><g transform="translate(586.6484375,276 )" id="entity-User-8a162c0e-da16-45fe-8b7e-718c1145d927"><rect height="222" width="212.9296875" y="0" x="0" class="er entityBox"/><text style="dominant-baseline: middle; text-anchor: middle; font-size: 12px;" transform="translate(106.46484375,12)" y="0" x="0" id="text-entity-User-8a162c0e-da16-45fe-8b7e-718c1145d927" class="er entityLabel">User</text><rect height="22" width="53.6640625" y="24" x="0" class="er attributeBoxOdd"/><text style="dominant-baseline: middle; font-size: 10.2px;" transform="translate(5,35)" y="0" x="0" id="text-entity-User-8a162c0e-da16-45fe-8b7e-718c1145d927-attr-1-type" class="er entityLabel">BigInt</text><rect height="22" width="90.921875" y="24" x="53.6640625" class="er attributeBoxOdd"/><text style="dominant-baseline: middle; font-size: 10.2px;" transform="translate(58.6640625,35)" y="0" x="0" id="text-entity-User-8a162c0e-da16-45fe-8b7e-718c1145d927-attr-1-name" class="er entityLabel">id</text><rect height="22" width="21.5625" y="24" x="144.5859375" class="er attributeBoxOdd"/><text style="dominant-baseline: middle; font-size: 10.2px;" transform="translate(149.5859375,35)" y="0" x="0" id="text-entity-User-8a162c0e-da16-45fe-8b7e-718c1145d927-attr-1-key" class="er entityLabel">PK</text><rect height="22" width="46.78125" y="24" x="166.1484375" class="er attributeBoxOdd"/><text style="dominant-baseline: middle; font-size: 10.2px;" transform="translate(171.1484375,35)" y="0" x="0" id="text-entity-User-8a162c0e-da16-45fe-8b7e-718c1145d927-attr-1-comment" class="er entityLabel"/><rect height="22" width="53.6640625" y="46" x="0" class="er attributeBoxEven"/><text style="dominant-baseline: middle; font-size: 10.2px;" transform="translate(5,57)" y="0" x="0" id="text-entity-User-8a162c0e-da16-45fe-8b7e-718c1145d927-attr-2-type" class="er entityLabel">String</text><rect height="22" width="90.921875" y="46" x="53.6640625" class="er attributeBoxEven"/><text style="dominant-baseline: middle; font-size: 10.2px;" transform="translate(58.6640625,57)" y="0" x="0" id="text-entity-User-8a162c0e-da16-45fe-8b7e-718c1145d927-attr-2-name" class="er entityLabel">name</text><rect height="22" width="21.5625" y="46" x="144.5859375" class="er attributeBoxEven"/><text style="dominant-baseline: middle; font-size: 10.2px;" transform="translate(149.5859375,57)" y="0" x="0" id="text-entity-User-8a162c0e-da16-45fe-8b7e-718c1145d927-attr-2-key" class="er entityLabel"/><rect height="22" width="46.78125" y="46" x="166.1484375" class="er attributeBoxEven"/><text style="dominant-baseline: middle; font-size: 10.2px;" transform="translate(171.1484375,57)" y="0" x="0" id="text-entity-User-8a162c0e-da16-45fe-8b7e-718c1145d927-attr-2-comment" class="er entityLabel">nullable</text><rect height="22" width="53.6640625" y="68" x="0" class="er attributeBoxOdd"/><text style="dominant-baseline: middle; font-size: 10.2px;" transform="translate(5,79)" y="0" x="0" id="text-entity-User-8a162c0e-da16-45fe-8b7e-718c1145d927-attr-3-type" class="er entityLabel">String</text><rect height="22" width="90.921875" y="68" x="53.6640625" class="er attributeBoxOdd"/><text style="dominant-baseline: middle; font-size: 10.2px;" transform="translate(58.6640625,79)" y="0" x="0" id="text-entity-User-8a162c0e-da16-45fe-8b7e-718c1145d927-attr-3-name" class="er entityLabel">email</text><rect height="22" width="21.5625" y="68" x="144.5859375" class="er attributeBoxOdd"/><text style="dominant-baseline: middle; font-size: 10.2px;" transform="translate(149.5859375,79)" y="0" x="0" id="text-entity-User-8a162c0e-da16-45fe-8b7e-718c1145d927-attr-3-key" class="er entityLabel"/><rect height="22" width="46.78125" y="68" x="166.1484375" class="er attributeBoxOdd"/><text style="dominant-baseline: middle; font-size: 10.2px;" transform="translate(171.1484375,79)" y="0" x="0" id="text-entity-User-8a162c0e-da16-45fe-8b7e-718c1145d927-attr-3-comment" class="er entityLabel">nullable</text><rect height="22" width="53.6640625" y="90" x="0" class="er attributeBoxEven"/><text style="dominant-baseline: middle; font-size: 10.2px;" transform="translate(5,101)" y="0" x="0" id="text-entity-User-8a162c0e-da16-45fe-8b7e-718c1145d927-attr-4-type" class="er entityLabel">DateTime</text><rect height="22" width="90.921875" y="90" x="53.6640625" class="er attributeBoxEven"/><text style="dominant-baseline: middle; font-size: 10.2px;" transform="translate(58.6640625,101)" y="0" x="0" id="text-entity-User-8a162c0e-da16-45fe-8b7e-718c1145d927-attr-4-name" class="er entityLabel">emailVerified</text><rect height="22" width="21.5625" y="90" x="144.5859375" class="er attributeBoxEven"/><text style="dominant-baseline: middle; font-size: 10.2px;" transform="translate(149.5859375,101)" y="0" x="0" id="text-entity-User-8a162c0e-da16-45fe-8b7e-718c1145d927-attr-4-key" class="er entityLabel"/><rect height="22" width="46.78125" y="90" x="166.1484375" class="er attributeBoxEven"/><text style="dominant-baseline: middle; font-size: 10.2px;" transform="translate(171.1484375,101)" y="0" x="0" id="text-entity-User-8a162c0e-da16-45fe-8b7e-718c1145d927-attr-4-comment" class="er entityLabel">nullable</text><rect height="22" width="53.6640625" y="112" x="0" class="er attributeBoxOdd"/><text style="dominant-baseline: middle; font-size: 10.2px;" transform="translate(5,123)" y="0" x="0" id="text-entity-User-8a162c0e-da16-45fe-8b7e-718c1145d927-attr-5-type" class="er entityLabel">String</text><rect height="22" width="90.921875" y="112" x="53.6640625" class="er attributeBoxOdd"/><text style="dominant-baseline: middle; font-size: 10.2px;" transform="translate(58.6640625,123)" y="0" x="0" id="text-entity-User-8a162c0e-da16-45fe-8b7e-718c1145d927-attr-5-name" class="er entityLabel">image</text><rect height="22" width="21.5625" y="112" x="144.5859375" class="er attributeBoxOdd"/><text style="dominant-baseline: middle; font-size: 10.2px;" transform="translate(149.5859375,123)" y="0" x="0" id="text-entity-User-8a162c0e-da16-45fe-8b7e-718c1145d927-attr-5-key" class="er entityLabel"/><rect height="22" width="46.78125" y="112" x="166.1484375" class="er attributeBoxOdd"/><text style="dominant-baseline: middle; font-size: 10.2px;" transform="translate(171.1484375,123)" y="0" x="0" id="text-entity-User-8a162c0e-da16-45fe-8b7e-718c1145d927-attr-5-comment" class="er entityLabel">nullable</text><rect height="22" width="53.6640625" y="134" x="0" class="er attributeBoxEven"/><text style="dominant-baseline: middle; font-size: 10.2px;" transform="translate(5,145)" y="0" x="0" id="text-entity-User-8a162c0e-da16-45fe-8b7e-718c1145d927-attr-6-type" class="er entityLabel">Boolean</text><rect height="22" width="90.921875" y="134" x="53.6640625" class="er attributeBoxEven"/><text style="dominant-baseline: middle; font-size: 10.2px;" transform="translate(58.6640625,145)" y="0" x="0" id="text-entity-User-8a162c0e-da16-45fe-8b7e-718c1145d927-attr-6-name" class="er entityLabel">isSubscribedPOTD</text><rect height="22" width="21.5625" y="134" x="144.5859375" class="er attributeBoxEven"/><text style="dominant-baseline: middle; font-size: 10.2px;" transform="translate(149.5859375,145)" y="0" x="0" id="text-entity-User-8a162c0e-da16-45fe-8b7e-718c1145d927-attr-6-key" class="er entityLabel"/><rect height="22" width="46.78125" y="134" x="166.1484375" class="er attributeBoxEven"/><text style="dominant-baseline: middle; font-size: 10.2px;" transform="translate(171.1484375,145)" y="0" x="0" id="text-entity-User-8a162c0e-da16-45fe-8b7e-718c1145d927-attr-6-comment" class="er entityLabel"/><rect height="22" width="53.6640625" y="156" x="0" class="er attributeBoxOdd"/><text style="dominant-baseline: middle; font-size: 10.2px;" transform="translate(5,167)" y="0" x="0" id="text-entity-User-8a162c0e-da16-45fe-8b7e-718c1145d927-attr-7-type" class="er entityLabel">Bytes</text><rect height="22" width="90.921875" y="156" x="53.6640625" class="er attributeBoxOdd"/><text style="dominant-baseline: middle; font-size: 10.2px;" transform="translate(58.6640625,167)" y="0" x="0" id="text-entity-User-8a162c0e-da16-45fe-8b7e-718c1145d927-attr-7-name" class="er entityLabel">salt</text><rect height="22" width="21.5625" y="156" x="144.5859375" class="er attributeBoxOdd"/><text style="dominant-baseline: middle; font-size: 10.2px;" transform="translate(149.5859375,167)" y="0" x="0" id="text-entity-User-8a162c0e-da16-45fe-8b7e-718c1145d927-attr-7-key" class="er entityLabel"/><rect height="22" width="46.78125" y="156" x="166.1484375" class="er attributeBoxOdd"/><text style="dominant-baseline: middle; font-size: 10.2px;" transform="translate(171.1484375,167)" y="0" x="0" id="text-entity-User-8a162c0e-da16-45fe-8b7e-718c1145d927-attr-7-comment" class="er entityLabel">nullable</text><rect height="22" width="53.6640625" y="178" x="0" class="er attributeBoxEven"/><text style="dominant-baseline: middle; font-size: 10.2px;" transform="translate(5,189)" y="0" x="0" id="text-entity-User-8a162c0e-da16-45fe-8b7e-718c1145d927-attr-8-type" class="er entityLabel">DateTime</text><rect height="22" width="90.921875" y="178" x="53.6640625" class="er attributeBoxEven"/><text style="dominant-baseline: middle; font-size: 10.2px;" transform="translate(58.6640625,189)" y="0" x="0" id="text-entity-User-8a162c0e-da16-45fe-8b7e-718c1145d927-attr-8-name" class="er entityLabel">createdAt</text><rect height="22" width="21.5625" y="178" x="144.5859375" class="er attributeBoxEven"/><text style="dominant-baseline: middle; font-size: 10.2px;" transform="translate(149.5859375,189)" y="0" x="0" id="text-entity-User-8a162c0e-da16-45fe-8b7e-718c1145d927-attr-8-key" class="er entityLabel"/><rect height="22" width="46.78125" y="178" x="166.1484375" class="er attributeBoxEven"/><text style="dominant-baseline: middle; font-size: 10.2px;" transform="translate(171.1484375,189)" y="0" x="0" id="text-entity-User-8a162c0e-da16-45fe-8b7e-718c1145d927-attr-8-comment" class="er entityLabel"/><rect height="22" width="53.6640625" y="200" x="0" class="er attributeBoxOdd"/><text style="dominant-baseline: middle; font-size: 10.2px;" transform="translate(5,211)" y="0" x="0" id="text-entity-User-8a162c0e-da16-45fe-8b7e-718c1145d927-attr-9-type" class="er entityLabel">DateTime</text><rect height="22" width="90.921875" y="200" x="53.6640625" class="er attributeBoxOdd"/><text style="dominant-baseline: middle; font-size: 10.2px;" transform="translate(58.6640625,211)" y="0" x="0" id="text-entity-User-8a162c0e-da16-45fe-8b7e-718c1145d927-attr-9-name" class="er entityLabel">updatedAt</text><rect height="22" width="21.5625" y="200" x="144.5859375" class="er attributeBoxOdd"/><text style="dominant-baseline: middle; font-size: 10.2px;" transform="translate(149.5859375,211)" y="0" x="0" id="text-entity-User-8a162c0e-da16-45fe-8b7e-718c1145d927-attr-9-key" class="er entityLabel"/><rect height="22" width="46.78125" y="200" x="166.1484375" class="er attributeBoxOdd"/><text style="dominant-baseline: middle; font-size: 10.2px;" transform="translate(171.1484375,211)" y="0" x="0" id="text-entity-User-8a162c0e-da16-45fe-8b7e-718c1145d927-attr-9-comment" class="er entityLabel"/></g><g transform="translate(20,53 )" id="entity-VerificationToken-046687a4-4247-4f32-b648-dd27dc309fd3"><rect height="90" width="128.1171875" y="0" x="0" class="er entityBox"/><text style="dominant-baseline: middle; text-anchor: middle; font-size: 12px;" transform="translate(64.05859375,12)" y="0" x="0" id="text-entity-VerificationToken-046687a4-4247-4f32-b648-dd27dc309fd3" class="er entityLabel">VerificationToken</text><rect height="22" width="53.6640625" y="24" x="0" class="er attributeBoxOdd"/><text style="dominant-baseline: middle; font-size: 10.2px;" transform="translate(5,35)" y="0" x="0" id="text-entity-VerificationToken-046687a4-4247-4f32-b648-dd27dc309fd3-attr-1-type" class="er entityLabel">String</text><rect height="22" width="52.890625" y="24" x="53.6640625" class="er attributeBoxOdd"/><text style="dominant-baseline: middle; font-size: 10.2px;" transform="translate(58.6640625,35)" y="0" x="0" id="text-entity-VerificationToken-046687a4-4247-4f32-b648-dd27dc309fd3-attr-1-name" class="er entityLabel">identifier</text><rect height="22" width="21.5625" y="24" x="106.5546875" class="er attributeBoxOdd"/><text style="dominant-baseline: middle; font-size: 10.2px;" transform="translate(111.5546875,35)" y="0" x="0" id="text-entity-VerificationToken-046687a4-4247-4f32-b648-dd27dc309fd3-attr-1-key" class="er entityLabel">PK</text><rect height="22" width="53.6640625" y="46" x="0" class="er attributeBoxEven"/><text style="dominant-baseline: middle; font-size: 10.2px;" transform="translate(5,57)" y="0" x="0" id="text-entity-VerificationToken-046687a4-4247-4f32-b648-dd27dc309fd3-attr-2-type" class="er entityLabel">String</text><rect height="22" width="52.890625" y="46" x="53.6640625" class="er attributeBoxEven"/><text style="dominant-baseline: middle; font-size: 10.2px;" transform="translate(58.6640625,57)" y="0" x="0" id="text-entity-VerificationToken-046687a4-4247-4f32-b648-dd27dc309fd3-attr-2-name" class="er entityLabel">token</text><rect height="22" width="21.5625" y="46" x="106.5546875" class="er attributeBoxEven"/><text style="dominant-baseline: middle; font-size: 10.2px;" transform="translate(111.5546875,57)" y="0" x="0" id="text-entity-VerificationToken-046687a4-4247-4f32-b648-dd27dc309fd3-attr-2-key" class="er entityLabel">PK</text><rect height="22" width="53.6640625" y="68" x="0" class="er attributeBoxOdd"/><text style="dominant-baseline: middle; font-size: 10.2px;" transform="translate(5,79)" y="0" x="0" id="text-entity-VerificationToken-046687a4-4247-4f32-b648-dd27dc309fd3-attr-3-type" class="er entityLabel">DateTime</text><rect height="22" width="52.890625" y="68" x="53.6640625" class="er attributeBoxOdd"/><text style="dominant-baseline: middle; font-size: 10.2px;" transform="translate(58.6640625,79)" y="0" x="0" id="text-entity-VerificationToken-046687a4-4247-4f32-b648-dd27dc309fd3-attr-3-name" class="er entityLabel">expires</text><rect height="22" width="21.5625" y="68" x="106.5546875" class="er attributeBoxOdd"/><text style="dominant-baseline: middle; font-size: 10.2px;" transform="translate(111.5546875,79)" y="0" x="0" id="text-entity-VerificationToken-046687a4-4247-4f32-b648-dd27dc309fd3-attr-3-key" class="er entityLabel"/></g><g transform="translate(120.8984375,331 )" id="entity-Prompt-8bc644fb-8fd0-4cc7-ae9b-90670bd31402"><rect height="112" width="132.875" y="0" x="0" class="er entityBox"/><text style="dominant-baseline: middle; text-anchor: middle; font-size: 12px;" transform="translate(66.4375,12)" y="0" x="0" id="text-entity-Prompt-8bc644fb-8fd0-4cc7-ae9b-90670bd31402" class="er entityLabel">Prompt</text><rect height="22" width="53.6640625" y="24" x="0" class="er attributeBoxOdd"/><text style="dominant-baseline: middle; font-size: 10.2px;" transform="translate(5,35)" y="0" x="0" id="text-entity-Prompt-8bc644fb-8fd0-4cc7-ae9b-90670bd31402-attr-1-type" class="er entityLabel">BigInt</text><rect height="22" width="57.6484375" y="24" x="53.6640625" class="er attributeBoxOdd"/><text style="dominant-baseline: middle; font-size: 10.2px;" transform="translate(58.6640625,35)" y="0" x="0" id="text-entity-Prompt-8bc644fb-8fd0-4cc7-ae9b-90670bd31402-attr-1-name" class="er entityLabel">id</text><rect height="22" width="21.5625" y="24" x="111.3125" class="er attributeBoxOdd"/><text style="dominant-baseline: middle; font-size: 10.2px;" transform="translate(116.3125,35)" y="0" x="0" id="text-entity-Prompt-8bc644fb-8fd0-4cc7-ae9b-90670bd31402-attr-1-key" class="er entityLabel">PK</text><rect height="22" width="53.6640625" y="46" x="0" class="er attributeBoxEven"/><text style="dominant-baseline: middle; font-size: 10.2px;" transform="translate(5,57)" y="0" x="0" id="text-entity-Prompt-8bc644fb-8fd0-4cc7-ae9b-90670bd31402-attr-2-type" class="er entityLabel">String</text><rect height="22" width="57.6484375" y="46" x="53.6640625" class="er attributeBoxEven"/><text style="dominant-baseline: middle; font-size: 10.2px;" transform="translate(58.6640625,57)" y="0" x="0" id="text-entity-Prompt-8bc644fb-8fd0-4cc7-ae9b-90670bd31402-attr-2-name" class="er entityLabel">text</text><rect height="22" width="21.5625" y="46" x="111.3125" class="er attributeBoxEven"/><text style="dominant-baseline: middle; font-size: 10.2px;" transform="translate(116.3125,57)" y="0" x="0" id="text-entity-Prompt-8bc644fb-8fd0-4cc7-ae9b-90670bd31402-attr-2-key" class="er entityLabel"/><rect height="22" width="53.6640625" y="68" x="0" class="er attributeBoxOdd"/><text style="dominant-baseline: middle; font-size: 10.2px;" transform="translate(5,79)" y="0" x="0" id="text-entity-Prompt-8bc644fb-8fd0-4cc7-ae9b-90670bd31402-attr-3-type" class="er entityLabel">DateTime</text><rect height="22" width="57.6484375" y="68" x="53.6640625" class="er attributeBoxOdd"/><text style="dominant-baseline: middle; font-size: 10.2px;" transform="translate(58.6640625,79)" y="0" x="0" id="text-entity-Prompt-8bc644fb-8fd0-4cc7-ae9b-90670bd31402-attr-3-name" class="er entityLabel">createdAt</text><rect height="22" width="21.5625" y="68" x="111.3125" class="er attributeBoxOdd"/><text style="dominant-baseline: middle; font-size: 10.2px;" transform="translate(116.3125,79)" y="0" x="0" id="text-entity-Prompt-8bc644fb-8fd0-4cc7-ae9b-90670bd31402-attr-3-key" class="er entityLabel"/><rect height="22" width="53.6640625" y="90" x="0" class="er attributeBoxEven"/><text style="dominant-baseline: middle; font-size: 10.2px;" transform="translate(5,101)" y="0" x="0" id="text-entity-Prompt-8bc644fb-8fd0-4cc7-ae9b-90670bd31402-attr-4-type" class="er entityLabel">DateTime</text><rect height="22" width="57.6484375" y="90" x="53.6640625" class="er attributeBoxEven"/><text style="dominant-baseline: middle; font-size: 10.2px;" transform="translate(58.6640625,101)" y="0" x="0" id="text-entity-Prompt-8bc644fb-8fd0-4cc7-ae9b-90670bd31402-attr-4-name" class="er entityLabel">updatedAt</text><rect height="22" width="21.5625" y="90" x="111.3125" class="er attributeBoxEven"/><text style="dominant-baseline: middle; font-size: 10.2px;" transform="translate(116.3125,101)" y="0" x="0" id="text-entity-Prompt-8bc644fb-8fd0-4cc7-ae9b-90670bd31402-attr-4-key" class="er entityLabel"/></g><g transform="translate(248.1171875,64 )" id="entity-TagOnPrompt-8c9746aa-033e-48c9-8450-5324ed0ce7c0"><rect height="68" width="111.3125" y="0" x="0" class="er entityBox"/><text style="dominant-baseline: middle; text-anchor: middle; font-size: 12px;" transform="translate(55.65625,12)" y="0" x="0" id="text-entity-TagOnPrompt-8c9746aa-033e-48c9-8450-5324ed0ce7c0" class="er entityLabel">TagOnPrompt</text><rect height="22" width="53.6640625" y="24" x="0" class="er attributeBoxOdd"/><text style="dominant-baseline: middle; font-size: 10.2px;" transform="translate(5,35)" y="0" x="0" id="text-entity-TagOnPrompt-8c9746aa-033e-48c9-8450-5324ed0ce7c0-attr-1-type" class="er entityLabel">DateTime</text><rect height="22" width="57.6484375" y="24" x="53.6640625" class="er attributeBoxOdd"/><text style="dominant-baseline: middle; font-size: 10.2px;" transform="translate(58.6640625,35)" y="0" x="0" id="text-entity-TagOnPrompt-8c9746aa-033e-48c9-8450-5324ed0ce7c0-attr-1-name" class="er entityLabel">createdAt</text><rect height="22" width="53.6640625" y="46" x="0" class="er attributeBoxEven"/><text style="dominant-baseline: middle; font-size: 10.2px;" transform="translate(5,57)" y="0" x="0" id="text-entity-TagOnPrompt-8c9746aa-033e-48c9-8450-5324ed0ce7c0-attr-2-type" class="er entityLabel">DateTime</text><rect height="22" width="57.6484375" y="46" x="53.6640625" class="er attributeBoxEven"/><text style="dominant-baseline: middle; font-size: 10.2px;" transform="translate(58.6640625,57)" y="0" x="0" id="text-entity-TagOnPrompt-8c9746aa-033e-48c9-8450-5324ed0ce7c0-attr-2-name" class="er entityLabel">updatedAt</text></g><g transform="translate(353.7734375,331 )" id="entity-Tag-a7b95a02-bf48-4ce5-af80-654d73eb2c48"><rect height="112" width="132.875" y="0" x="0" class="er entityBox"/><text style="dominant-baseline: middle; text-anchor: middle; font-size: 12px;" transform="translate(66.4375,12)" y="0" x="0" id="text-entity-Tag-a7b95a02-bf48-4ce5-af80-654d73eb2c48" class="er entityLabel">Tag</text><rect height="22" width="53.6640625" y="24" x="0" class="er attributeBoxOdd"/><text style="dominant-baseline: middle; font-size: 10.2px;" transform="translate(5,35)" y="0" x="0" id="text-entity-Tag-a7b95a02-bf48-4ce5-af80-654d73eb2c48-attr-1-type" class="er entityLabel">BigInt</text><rect height="22" width="57.6484375" y="24" x="53.6640625" class="er attributeBoxOdd"/><text style="dominant-baseline: middle; font-size: 10.2px;" transform="translate(58.6640625,35)" y="0" x="0" id="text-entity-Tag-a7b95a02-bf48-4ce5-af80-654d73eb2c48-attr-1-name" class="er entityLabel">id</text><rect height="22" width="21.5625" y="24" x="111.3125" class="er attributeBoxOdd"/><text style="dominant-baseline: middle; font-size: 10.2px;" transform="translate(116.3125,35)" y="0" x="0" id="text-entity-Tag-a7b95a02-bf48-4ce5-af80-654d73eb2c48-attr-1-key" class="er entityLabel">PK</text><rect height="22" width="53.6640625" y="46" x="0" class="er attributeBoxEven"/><text style="dominant-baseline: middle; font-size: 10.2px;" transform="translate(5,57)" y="0" x="0" id="text-entity-Tag-a7b95a02-bf48-4ce5-af80-654d73eb2c48-attr-2-type" class="er entityLabel">String</text><rect height="22" width="57.6484375" y="46" x="53.6640625" class="er attributeBoxEven"/><text style="dominant-baseline: middle; font-size: 10.2px;" transform="translate(58.6640625,57)" y="0" x="0" id="text-entity-Tag-a7b95a02-bf48-4ce5-af80-654d73eb2c48-attr-2-name" class="er entityLabel">text</text><rect height="22" width="21.5625" y="46" x="111.3125" class="er attributeBoxEven"/><text style="dominant-baseline: middle; font-size: 10.2px;" transform="translate(116.3125,57)" y="0" x="0" id="text-entity-Tag-a7b95a02-bf48-4ce5-af80-654d73eb2c48-attr-2-key" class="er entityLabel"/><rect height="22" width="53.6640625" y="68" x="0" class="er attributeBoxOdd"/><text style="dominant-baseline: middle; font-size: 10.2px;" transform="translate(5,79)" y="0" x="0" id="text-entity-Tag-a7b95a02-bf48-4ce5-af80-654d73eb2c48-attr-3-type" class="er entityLabel">DateTime</text><rect height="22" width="57.6484375" y="68" x="53.6640625" class="er attributeBoxOdd"/><text style="dominant-baseline: middle; font-size: 10.2px;" transform="translate(58.6640625,79)" y="0" x="0" id="text-entity-Tag-a7b95a02-bf48-4ce5-af80-654d73eb2c48-attr-3-name" class="er entityLabel">createdAt</text><rect height="22" width="21.5625" y="68" x="111.3125" class="er attributeBoxOdd"/><text style="dominant-baseline: middle; font-size: 10.2px;" transform="translate(116.3125,79)" y="0" x="0" id="text-entity-Tag-a7b95a02-bf48-4ce5-af80-654d73eb2c48-attr-3-key" class="er entityLabel"/><rect height="22" width="53.6640625" y="90" x="0" class="er attributeBoxEven"/><text style="dominant-baseline: middle; font-size: 10.2px;" transform="translate(5,101)" y="0" x="0" id="text-entity-Tag-a7b95a02-bf48-4ce5-af80-654d73eb2c48-attr-4-type" class="er entityLabel">DateTime</text><rect height="22" width="57.6484375" y="90" x="53.6640625" class="er attributeBoxEven"/><text style="dominant-baseline: middle; font-size: 10.2px;" transform="translate(58.6640625,101)" y="0" x="0" id="text-entity-Tag-a7b95a02-bf48-4ce5-af80-654d73eb2c48-attr-4-name" class="er entityLabel">updatedAt</text><rect height="22" width="21.5625" y="90" x="111.3125" class="er attributeBoxEven"/><text style="dominant-baseline: middle; font-size: 10.2px;" transform="translate(116.3125,101)" y="0" x="0" id="text-entity-Tag-a7b95a02-bf48-4ce5-af80-654d73eb2c48-attr-4-key" class="er entityLabel"/></g><g transform="translate(594.1796875,20 )" id="entity-Journal-32acfd2c-89ff-46cc-b7cc-50e20e575d04"><rect height="156" width="197.8671875" y="0" x="0" class="er entityBox"/><text style="dominant-baseline: middle; text-anchor: middle; font-size: 12px;" transform="translate(98.93359375,12)" y="0" x="0" id="text-entity-Journal-32acfd2c-89ff-46cc-b7cc-50e20e575d04" class="er entityLabel">Journal</text><rect height="22" width="71.875" y="24" x="0" class="er attributeBoxOdd"/><text style="dominant-baseline: middle; font-size: 10.2px;" transform="translate(5,35)" y="0" x="0" id="text-entity-Journal-32acfd2c-89ff-46cc-b7cc-50e20e575d04-attr-1-type" class="er entityLabel">BigInt</text><rect height="22" width="57.6484375" y="24" x="71.875" class="er attributeBoxOdd"/><text style="dominant-baseline: middle; font-size: 10.2px;" transform="translate(76.875,35)" y="0" x="0" id="text-entity-Journal-32acfd2c-89ff-46cc-b7cc-50e20e575d04-attr-1-name" class="er entityLabel">id</text><rect height="22" width="21.5625" y="24" x="129.5234375" class="er attributeBoxOdd"/><text style="dominant-baseline: middle; font-size: 10.2px;" transform="translate(134.5234375,35)" y="0" x="0" id="text-entity-Journal-32acfd2c-89ff-46cc-b7cc-50e20e575d04-attr-1-key" class="er entityLabel">PK</text><rect height="22" width="46.78125" y="24" x="151.0859375" class="er attributeBoxOdd"/><text style="dominant-baseline: middle; font-size: 10.2px;" transform="translate(156.0859375,35)" y="0" x="0" id="text-entity-Journal-32acfd2c-89ff-46cc-b7cc-50e20e575d04-attr-1-comment" class="er entityLabel"/><rect height="22" width="71.875" y="46" x="0" class="er attributeBoxEven"/><text style="dominant-baseline: middle; font-size: 10.2px;" transform="translate(5,57)" y="0" x="0" id="text-entity-Journal-32acfd2c-89ff-46cc-b7cc-50e20e575d04-attr-2-type" class="er entityLabel">Bytes</text><rect height="22" width="57.6484375" y="46" x="71.875" class="er attributeBoxEven"/><text style="dominant-baseline: middle; font-size: 10.2px;" transform="translate(76.875,57)" y="0" x="0" id="text-entity-Journal-32acfd2c-89ff-46cc-b7cc-50e20e575d04-attr-2-name" class="er entityLabel">ciphertext</text><rect height="22" width="21.5625" y="46" x="129.5234375" class="er attributeBoxEven"/><text style="dominant-baseline: middle; font-size: 10.2px;" transform="translate(134.5234375,57)" y="0" x="0" id="text-entity-Journal-32acfd2c-89ff-46cc-b7cc-50e20e575d04-attr-2-key" class="er entityLabel"/><rect height="22" width="46.78125" y="46" x="151.0859375" class="er attributeBoxEven"/><text style="dominant-baseline: middle; font-size: 10.2px;" transform="translate(156.0859375,57)" y="0" x="0" id="text-entity-Journal-32acfd2c-89ff-46cc-b7cc-50e20e575d04-attr-2-comment" class="er entityLabel">nullable</text><rect height="22" width="71.875" y="68" x="0" class="er attributeBoxOdd"/><text style="dominant-baseline: middle; font-size: 10.2px;" transform="translate(5,79)" y="0" x="0" id="text-entity-Journal-32acfd2c-89ff-46cc-b7cc-50e20e575d04-attr-3-type" class="er entityLabel">Bytes</text><rect height="22" width="57.6484375" y="68" x="71.875" class="er attributeBoxOdd"/><text style="dominant-baseline: middle; font-size: 10.2px;" transform="translate(76.875,79)" y="0" x="0" id="text-entity-Journal-32acfd2c-89ff-46cc-b7cc-50e20e575d04-attr-3-name" class="er entityLabel">iv</text><rect height="22" width="21.5625" y="68" x="129.5234375" class="er attributeBoxOdd"/><text style="dominant-baseline: middle; font-size: 10.2px;" transform="translate(134.5234375,79)" y="0" x="0" id="text-entity-Journal-32acfd2c-89ff-46cc-b7cc-50e20e575d04-attr-3-key" class="er entityLabel"/><rect height="22" width="46.78125" y="68" x="151.0859375" class="er attributeBoxOdd"/><text style="dominant-baseline: middle; font-size: 10.2px;" transform="translate(156.0859375,79)" y="0" x="0" id="text-entity-Journal-32acfd2c-89ff-46cc-b7cc-50e20e575d04-attr-3-comment" class="er entityLabel">nullable</text><rect height="22" width="71.875" y="90" x="0" class="er attributeBoxEven"/><text style="dominant-baseline: middle; font-size: 10.2px;" transform="translate(5,101)" y="0" x="0" id="text-entity-Journal-32acfd2c-89ff-46cc-b7cc-50e20e575d04-attr-4-type" class="er entityLabel">JournalStatus</text><rect height="22" width="57.6484375" y="90" x="71.875" class="er attributeBoxEven"/><text style="dominant-baseline: middle; font-size: 10.2px;" transform="translate(76.875,101)" y="0" x="0" id="text-entity-Journal-32acfd2c-89ff-46cc-b7cc-50e20e575d04-attr-4-name" class="er entityLabel">status</text><rect height="22" width="21.5625" y="90" x="129.5234375" class="er attributeBoxEven"/><text style="dominant-baseline: middle; font-size: 10.2px;" transform="translate(134.5234375,101)" y="0" x="0" id="text-entity-Journal-32acfd2c-89ff-46cc-b7cc-50e20e575d04-attr-4-key" class="er entityLabel"/><rect height="22" width="46.78125" y="90" x="151.0859375" class="er attributeBoxEven"/><text style="dominant-baseline: middle; font-size: 10.2px;" transform="translate(156.0859375,101)" y="0" x="0" id="text-entity-Journal-32acfd2c-89ff-46cc-b7cc-50e20e575d04-attr-4-comment" class="er entityLabel"/><rect height="22" width="71.875" y="112" x="0" class="er attributeBoxOdd"/><text style="dominant-baseline: middle; font-size: 10.2px;" transform="translate(5,123)" y="0" x="0" id="text-entity-Journal-32acfd2c-89ff-46cc-b7cc-50e20e575d04-attr-5-type" class="er entityLabel">DateTime</text><rect height="22" width="57.6484375" y="112" x="71.875" class="er attributeBoxOdd"/><text style="dominant-baseline: middle; font-size: 10.2px;" transform="translate(76.875,123)" y="0" x="0" id="text-entity-Journal-32acfd2c-89ff-46cc-b7cc-50e20e575d04-attr-5-name" class="er entityLabel">createdAt</text><rect height="22" width="21.5625" y="112" x="129.5234375" class="er attributeBoxOdd"/><text style="dominant-baseline: middle; font-size: 10.2px;" transform="translate(134.5234375,123)" y="0" x="0" id="text-entity-Journal-32acfd2c-89ff-46cc-b7cc-50e20e575d04-attr-5-key" class="er entityLabel"/><rect height="22" width="46.78125" y="112" x="151.0859375" class="er attributeBoxOdd"/><text style="dominant-baseline: middle; font-size: 10.2px;" transform="translate(156.0859375,123)" y="0" x="0" id="text-entity-Journal-32acfd2c-89ff-46cc-b7cc-50e20e575d04-attr-5-comment" class="er entityLabel"/><rect height="22" width="71.875" y="134" x="0" class="er attributeBoxEven"/><text style="dominant-baseline: middle; font-size: 10.2px;" transform="translate(5,145)" y="0" x="0" id="text-entity-Journal-32acfd2c-89ff-46cc-b7cc-50e20e575d04-attr-6-type" class="er entityLabel">DateTime</text><rect height="22" width="57.6484375" y="134" x="71.875" class="er attributeBoxEven"/><text style="dominant-baseline: middle; font-size: 10.2px;" transform="translate(76.875,145)" y="0" x="0" id="text-entity-Journal-32acfd2c-89ff-46cc-b7cc-50e20e575d04-attr-6-name" class="er entityLabel">updatedAt</text><rect height="22" width="21.5625" y="134" x="129.5234375" class="er attributeBoxEven"/><text style="dominant-baseline: middle; font-size: 10.2px;" transform="translate(134.5234375,145)" y="0" x="0" id="text-entity-Journal-32acfd2c-89ff-46cc-b7cc-50e20e575d04-attr-6-key" class="er entityLabel"/><rect height="22" width="46.78125" y="134" x="151.0859375" class="er attributeBoxEven"/><text style="dominant-baseline: middle; font-size: 10.2px;" transform="translate(156.0859375,145)" y="0" x="0" id="text-entity-Journal-32acfd2c-89ff-46cc-b7cc-50e20e575d04-attr-6-comment" class="er entityLabel"/></g><rect height="14" width="39.1953125" y="207.22093200683594" x="151.09597778320312" class="er relationshipLabelBox"/><text style="text-anchor: middle; dominant-baseline: middle; font-size: 12px;" y="214.22093200683594" x="170.69363403320312" id="rel1" class="er relationshipLabel">prompt</text><rect height="14" width="17.0859375" y="214.01260375976562" x="394.27874755859375" class="er relationshipLabelBox"/><text style="text-anchor: middle; dominant-baseline: middle; font-size: 12px;" y="221.01260375976562" x="402.82171630859375" id="rel2" class="er relationshipLabel">tag</text><rect height="14" width="35.28125" y="219" x="675.47265625" class="er relationshipLabelBox"/><text style="text-anchor: middle; dominant-baseline: middle; font-size: 12px;" y="226" x="693.11328125" id="rel3" class="er relationshipLabel">author</text><rect height="14" width="39.1953125" y="187.23348999023438" x="359.160400390625" class="er relationshipLabelBox"/><text style="text-anchor: middle; dominant-baseline: middle; font-size: 12px;" y="194.23348999023438" x="378.758056640625" id="rel4" class="er relationshipLabel">prompt</text><rect height="14" width="66.1171875" y="209.79336547851562" x="876.5569458007812" class="er relationshipLabelBox"/><text style="text-anchor: middle; dominant-baseline: middle; font-size: 12px;" y="216.79336547851562" x="909.6155395507812" id="rel5" class="er relationshipLabel">enum:status</text></svg>