<svg aria-roledescription="er" viewBox="0 0 735.375 518" style="max-width: 735.375px; background-color: white;" xmlns:xlink="http://www.w3.org/1999/xlink" xmlns="http://www.w3.org/2000/svg" width="100%" id="mermaid-0"><style>#mermaid-0{font-family:"trebuchet ms",verdana,arial,sans-serif;font-size:16px;fill:#000000;}#mermaid-0 .error-icon{fill:#552222;}#mermaid-0 .error-text{fill:#552222;stroke:#552222;}#mermaid-0 .edge-thickness-normal{stroke-width:2px;}#mermaid-0 .edge-thickness-thick{stroke-width:3.5px;}#mermaid-0 .edge-pattern-solid{stroke-dasharray:0;}#mermaid-0 .edge-pattern-dashed{stroke-dasharray:3;}#mermaid-0 .edge-pattern-dotted{stroke-dasharray:2;}#mermaid-0 .marker{fill:#000000;stroke:#000000;}#mermaid-0 .marker.cross{stroke:#000000;}#mermaid-0 svg{font-family:"trebuchet ms",verdana,arial,sans-serif;font-size:16px;}#mermaid-0 .entityBox{fill:#cde498;stroke:#13540c;}#mermaid-0 .attributeBoxOdd{fill:#ffffff;stroke:#13540c;}#mermaid-0 .attributeBoxEven{fill:#f2f2f2;stroke:#13540c;}#mermaid-0 .relationshipLabelBox{fill:hsl(78.1578947368, 58.4615384615%, 84.5098039216%);opacity:0.7;background-color:hsl(78.1578947368, 58.4615384615%, 84.5098039216%);}#mermaid-0 .relationshipLabelBox rect{opacity:0.5;}#mermaid-0 .relationshipLine{stroke:#000000;}#mermaid-0 .entityTitleText{text-anchor:middle;font-size:18px;fill:#000000;}#mermaid-0 :root{--mermaid-font-family:"trebuchet ms",verdana,arial,sans-serif;}</style><g/><defs><marker orient="auto" markerHeight="18" markerWidth="18" refY="9" refX="0" id="ONLY_ONE_START"><path d="M9,0 L9,18 M15,0 L15,18" fill="none" stroke="gray"/></marker></defs><defs><marker orient="auto" markerHeight="18" markerWidth="18" refY="9" refX="18" id="ONLY_ONE_END"><path d="M3,0 L3,18 M9,0 L9,18" fill="none" stroke="gray"/></marker></defs><defs><marker orient="auto" markerHeight="18" markerWidth="30" refY="9" refX="0" id="ZERO_OR_ONE_START"><circle r="6" cy="9" cx="21" fill="white" stroke="gray"/><path d="M9,0 L9,18" fill="none" stroke="gray"/></marker></defs><defs><marker orient="auto" markerHeight="18" markerWidth="30" refY="9" refX="30" id="ZERO_OR_ONE_END"><circle r="6" cy="9" cx="9" fill="white" stroke="gray"/><path d="M21,0 L21,18" fill="none" stroke="gray"/></marker></defs><defs><marker orient="auto" markerHeight="36" markerWidth="45" refY="18" refX="18" id="ONE_OR_MORE_START"><path d="M0,18 Q 18,0 36,18 Q 18,36 0,18 M42,9 L42,27" fill="none" stroke="gray"/></marker></defs><defs><marker orient="auto" markerHeight="36" markerWidth="45" refY="18" refX="27" id="ONE_OR_MORE_END"><path d="M3,9 L3,27 M9,18 Q27,0 45,18 Q27,36 9,18" fill="none" stroke="gray"/></marker></defs><defs><marker orient="auto" markerHeight="36" markerWidth="57" refY="18" refX="18" id="ZERO_OR_MORE_START"><circle r="6" cy="18" cx="48" fill="white" stroke="gray"/><path d="M0,18 Q18,0 36,18 Q18,36 0,18" fill="none" stroke="gray"/></marker></defs><defs><marker orient="auto" markerHeight="36" markerWidth="57" refY="18" refX="39" id="ZERO_OR_MORE_END"><circle r="6" cy="18" cx="9" fill="white" stroke="gray"/><path d="M21,18 Q39,0 57,18 Q39,36 21,18" fill="none" stroke="gray"/></marker></defs><path style="stroke: gray; fill: none;" marker-start="url(#ZERO_OR_MORE_START)" marker-end="url(#ONLY_ONE_END)" d="M323.82421875,140.7397924879039L290.9309895833333,154.94982707325326C258.0377604166667,169.1598616586026,192.25130208333334,197.57993082930133,159.35807291666666,220.123298747984C126.46484375,242.66666666666666,126.46484375,259.3333333333333,126.46484375,267.6666666666667L126.46484375,276" class="er relationshipLine"/><path style="stroke: gray; fill: none;" marker-start="url(#ZERO_OR_MORE_START)" marker-end="url(#ZERO_OR_ONE_END)" d="M422.7578125,176L422.7578125,184.33333333333334C422.7578125,192.66666666666666,422.7578125,209.33333333333334,422.7578125,231.5C422.7578125,253.66666666666666,422.7578125,281.3333333333333,422.7578125,295.1666666666667L422.7578125,309" class="er relationshipLine"/><path style="stroke: gray; fill: none;" marker-start="url(#ZERO_OR_ONE_START)" marker-end="url(#ONLY_ONE_END)" d="M521.69140625,150.49714183926287L545.40625,163.08095153271907C569.12109375,175.66476122617527,616.55078125,200.83238061308762,640.265625,232.74952363987714C663.98046875,264.6666666666667,663.98046875,303.3333333333333,663.98046875,322.6666666666667L663.98046875,342" class="er relationshipLine"/><g transform="translate(612.5859375,342 )" id="entity-JournalStatus-003d299d-8491-4c2c-a537-7cef1eab485f"><rect height="90" width="102.7890625" y="0" x="0" class="er entityBox"/><text style="dominant-baseline: middle; text-anchor: middle; font-size: 12px;" transform="translate(51.39453125,12)" y="0" x="0" id="text-entity-JournalStatus-003d299d-8491-4c2c-a537-7cef1eab485f" class="er entityLabel">JournalStatus</text><rect height="22" width="51.39453125" y="24" x="0" class="er attributeBoxOdd"/><text style="dominant-baseline: middle; font-size: 10.2px;" transform="translate(5,35)" y="0" x="0" id="text-entity-JournalStatus-003d299d-8491-4c2c-a537-7cef1eab485f-attr-1-type" class="er entityLabel">ACTIVE</text><rect height="22" width="51.39453125" y="24" x="51.39453125" class="er attributeBoxOdd"/><text style="dominant-baseline: middle; font-size: 10.2px;" transform="translate(56.39453125,35)" y="0" x="0" id="text-entity-JournalStatus-003d299d-8491-4c2c-a537-7cef1eab485f-attr-1-name" class="er entityLabel">ACTIVE</text><rect height="22" width="51.39453125" y="46" x="0" class="er attributeBoxEven"/><text style="dominant-baseline: middle; font-size: 10.2px;" transform="translate(5,57)" y="0" x="0" id="text-entity-JournalStatus-003d299d-8491-4c2c-a537-7cef1eab485f-attr-2-type" class="er entityLabel">TRASHED</text><rect height="22" width="51.39453125" y="46" x="51.39453125" class="er attributeBoxEven"/><text style="dominant-baseline: middle; font-size: 10.2px;" transform="translate(56.39453125,57)" y="0" x="0" id="text-entity-JournalStatus-003d299d-8491-4c2c-a537-7cef1eab485f-attr-2-name" class="er entityLabel">TRASHED</text><rect height="22" width="51.39453125" y="68" x="0" class="er attributeBoxOdd"/><text style="dominant-baseline: middle; font-size: 10.2px;" transform="translate(5,79)" y="0" x="0" id="text-entity-JournalStatus-003d299d-8491-4c2c-a537-7cef1eab485f-attr-3-type" class="er entityLabel">DELETED</text><rect height="22" width="51.39453125" y="68" x="51.39453125" class="er attributeBoxOdd"/><text style="dominant-baseline: middle; font-size: 10.2px;" transform="translate(56.39453125,79)" y="0" x="0" id="text-entity-JournalStatus-003d299d-8491-4c2c-a537-7cef1eab485f-attr-3-name" class="er entityLabel">DELETED</text></g><g transform="translate(20,276 )" id="entity-User-f9e93164-6fc1-423b-93b2-c215a76247fc"><rect height="222" width="212.9296875" y="0" x="0" class="er entityBox"/><text style="dominant-baseline: middle; text-anchor: middle; font-size: 12px;" transform="translate(106.46484375,12)" y="0" x="0" id="text-entity-User-f9e93164-6fc1-423b-93b2-c215a76247fc" class="er entityLabel">User</text><rect height="22" width="53.6640625" y="24" x="0" class="er attributeBoxOdd"/><text style="dominant-baseline: middle; font-size: 10.2px;" transform="translate(5,35)" y="0" x="0" id="text-entity-User-f9e93164-6fc1-423b-93b2-c215a76247fc-attr-1-type" class="er entityLabel">String</text><rect height="22" width="90.921875" y="24" x="53.6640625" class="er attributeBoxOdd"/><text style="dominant-baseline: middle; font-size: 10.2px;" transform="translate(58.6640625,35)" y="0" x="0" id="text-entity-User-f9e93164-6fc1-423b-93b2-c215a76247fc-attr-1-name" class="er entityLabel">z_id</text><rect height="22" width="21.5625" y="24" x="144.5859375" class="er attributeBoxOdd"/><text style="dominant-baseline: middle; font-size: 10.2px;" transform="translate(149.5859375,35)" y="0" x="0" id="text-entity-User-f9e93164-6fc1-423b-93b2-c215a76247fc-attr-1-key" class="er entityLabel">PK</text><rect height="22" width="46.78125" y="24" x="166.1484375" class="er attributeBoxOdd"/><text style="dominant-baseline: middle; font-size: 10.2px;" transform="translate(171.1484375,35)" y="0" x="0" id="text-entity-User-f9e93164-6fc1-423b-93b2-c215a76247fc-attr-1-comment" class="er entityLabel"/><rect height="22" width="53.6640625" y="46" x="0" class="er attributeBoxEven"/><text style="dominant-baseline: middle; font-size: 10.2px;" transform="translate(5,57)" y="0" x="0" id="text-entity-User-f9e93164-6fc1-423b-93b2-c215a76247fc-attr-2-type" class="er entityLabel">String</text><rect height="22" width="90.921875" y="46" x="53.6640625" class="er attributeBoxEven"/><text style="dominant-baseline: middle; font-size: 10.2px;" transform="translate(58.6640625,57)" y="0" x="0" id="text-entity-User-f9e93164-6fc1-423b-93b2-c215a76247fc-attr-2-name" class="er entityLabel">name</text><rect height="22" width="21.5625" y="46" x="144.5859375" class="er attributeBoxEven"/><text style="dominant-baseline: middle; font-size: 10.2px;" transform="translate(149.5859375,57)" y="0" x="0" id="text-entity-User-f9e93164-6fc1-423b-93b2-c215a76247fc-attr-2-key" class="er entityLabel"/><rect height="22" width="46.78125" y="46" x="166.1484375" class="er attributeBoxEven"/><text style="dominant-baseline: middle; font-size: 10.2px;" transform="translate(171.1484375,57)" y="0" x="0" id="text-entity-User-f9e93164-6fc1-423b-93b2-c215a76247fc-attr-2-comment" class="er entityLabel">nullable</text><rect height="22" width="53.6640625" y="68" x="0" class="er attributeBoxOdd"/><text style="dominant-baseline: middle; font-size: 10.2px;" transform="translate(5,79)" y="0" x="0" id="text-entity-User-f9e93164-6fc1-423b-93b2-c215a76247fc-attr-3-type" class="er entityLabel">String</text><rect height="22" width="90.921875" y="68" x="53.6640625" class="er attributeBoxOdd"/><text style="dominant-baseline: middle; font-size: 10.2px;" transform="translate(58.6640625,79)" y="0" x="0" id="text-entity-User-f9e93164-6fc1-423b-93b2-c215a76247fc-attr-3-name" class="er entityLabel">email</text><rect height="22" width="21.5625" y="68" x="144.5859375" class="er attributeBoxOdd"/><text style="dominant-baseline: middle; font-size: 10.2px;" transform="translate(149.5859375,79)" y="0" x="0" id="text-entity-User-f9e93164-6fc1-423b-93b2-c215a76247fc-attr-3-key" class="er entityLabel"/><rect height="22" width="46.78125" y="68" x="166.1484375" class="er attributeBoxOdd"/><text style="dominant-baseline: middle; font-size: 10.2px;" transform="translate(171.1484375,79)" y="0" x="0" id="text-entity-User-f9e93164-6fc1-423b-93b2-c215a76247fc-attr-3-comment" class="er entityLabel">nullable</text><rect height="22" width="53.6640625" y="90" x="0" class="er attributeBoxEven"/><text style="dominant-baseline: middle; font-size: 10.2px;" transform="translate(5,101)" y="0" x="0" id="text-entity-User-f9e93164-6fc1-423b-93b2-c215a76247fc-attr-4-type" class="er entityLabel">DateTime</text><rect height="22" width="90.921875" y="90" x="53.6640625" class="er attributeBoxEven"/><text style="dominant-baseline: middle; font-size: 10.2px;" transform="translate(58.6640625,101)" y="0" x="0" id="text-entity-User-f9e93164-6fc1-423b-93b2-c215a76247fc-attr-4-name" class="er entityLabel">emailVerified</text><rect height="22" width="21.5625" y="90" x="144.5859375" class="er attributeBoxEven"/><text style="dominant-baseline: middle; font-size: 10.2px;" transform="translate(149.5859375,101)" y="0" x="0" id="text-entity-User-f9e93164-6fc1-423b-93b2-c215a76247fc-attr-4-key" class="er entityLabel"/><rect height="22" width="46.78125" y="90" x="166.1484375" class="er attributeBoxEven"/><text style="dominant-baseline: middle; font-size: 10.2px;" transform="translate(171.1484375,101)" y="0" x="0" id="text-entity-User-f9e93164-6fc1-423b-93b2-c215a76247fc-attr-4-comment" class="er entityLabel">nullable</text><rect height="22" width="53.6640625" y="112" x="0" class="er attributeBoxOdd"/><text style="dominant-baseline: middle; font-size: 10.2px;" transform="translate(5,123)" y="0" x="0" id="text-entity-User-f9e93164-6fc1-423b-93b2-c215a76247fc-attr-5-type" class="er entityLabel">String</text><rect height="22" width="90.921875" y="112" x="53.6640625" class="er attributeBoxOdd"/><text style="dominant-baseline: middle; font-size: 10.2px;" transform="translate(58.6640625,123)" y="0" x="0" id="text-entity-User-f9e93164-6fc1-423b-93b2-c215a76247fc-attr-5-name" class="er entityLabel">image</text><rect height="22" width="21.5625" y="112" x="144.5859375" class="er attributeBoxOdd"/><text style="dominant-baseline: middle; font-size: 10.2px;" transform="translate(149.5859375,123)" y="0" x="0" id="text-entity-User-f9e93164-6fc1-423b-93b2-c215a76247fc-attr-5-key" class="er entityLabel"/><rect height="22" width="46.78125" y="112" x="166.1484375" class="er attributeBoxOdd"/><text style="dominant-baseline: middle; font-size: 10.2px;" transform="translate(171.1484375,123)" y="0" x="0" id="text-entity-User-f9e93164-6fc1-423b-93b2-c215a76247fc-attr-5-comment" class="er entityLabel">nullable</text><rect height="22" width="53.6640625" y="134" x="0" class="er attributeBoxEven"/><text style="dominant-baseline: middle; font-size: 10.2px;" transform="translate(5,145)" y="0" x="0" id="text-entity-User-f9e93164-6fc1-423b-93b2-c215a76247fc-attr-6-type" class="er entityLabel">Boolean</text><rect height="22" width="90.921875" y="134" x="53.6640625" class="er attributeBoxEven"/><text style="dominant-baseline: middle; font-size: 10.2px;" transform="translate(58.6640625,145)" y="0" x="0" id="text-entity-User-f9e93164-6fc1-423b-93b2-c215a76247fc-attr-6-name" class="er entityLabel">isSubscribedPOTD</text><rect height="22" width="21.5625" y="134" x="144.5859375" class="er attributeBoxEven"/><text style="dominant-baseline: middle; font-size: 10.2px;" transform="translate(149.5859375,145)" y="0" x="0" id="text-entity-User-f9e93164-6fc1-423b-93b2-c215a76247fc-attr-6-key" class="er entityLabel"/><rect height="22" width="46.78125" y="134" x="166.1484375" class="er attributeBoxEven"/><text style="dominant-baseline: middle; font-size: 10.2px;" transform="translate(171.1484375,145)" y="0" x="0" id="text-entity-User-f9e93164-6fc1-423b-93b2-c215a76247fc-attr-6-comment" class="er entityLabel"/><rect height="22" width="53.6640625" y="156" x="0" class="er attributeBoxOdd"/><text style="dominant-baseline: middle; font-size: 10.2px;" transform="translate(5,167)" y="0" x="0" id="text-entity-User-f9e93164-6fc1-423b-93b2-c215a76247fc-attr-7-type" class="er entityLabel">Bytes</text><rect height="22" width="90.921875" y="156" x="53.6640625" class="er attributeBoxOdd"/><text style="dominant-baseline: middle; font-size: 10.2px;" transform="translate(58.6640625,167)" y="0" x="0" id="text-entity-User-f9e93164-6fc1-423b-93b2-c215a76247fc-attr-7-name" class="er entityLabel">salt</text><rect height="22" width="21.5625" y="156" x="144.5859375" class="er attributeBoxOdd"/><text style="dominant-baseline: middle; font-size: 10.2px;" transform="translate(149.5859375,167)" y="0" x="0" id="text-entity-User-f9e93164-6fc1-423b-93b2-c215a76247fc-attr-7-key" class="er entityLabel"/><rect height="22" width="46.78125" y="156" x="166.1484375" class="er attributeBoxOdd"/><text style="dominant-baseline: middle; font-size: 10.2px;" transform="translate(171.1484375,167)" y="0" x="0" id="text-entity-User-f9e93164-6fc1-423b-93b2-c215a76247fc-attr-7-comment" class="er entityLabel">nullable</text><rect height="22" width="53.6640625" y="178" x="0" class="er attributeBoxEven"/><text style="dominant-baseline: middle; font-size: 10.2px;" transform="translate(5,189)" y="0" x="0" id="text-entity-User-f9e93164-6fc1-423b-93b2-c215a76247fc-attr-8-type" class="er entityLabel">DateTime</text><rect height="22" width="90.921875" y="178" x="53.6640625" class="er attributeBoxEven"/><text style="dominant-baseline: middle; font-size: 10.2px;" transform="translate(58.6640625,189)" y="0" x="0" id="text-entity-User-f9e93164-6fc1-423b-93b2-c215a76247fc-attr-8-name" class="er entityLabel">createdAt</text><rect height="22" width="21.5625" y="178" x="144.5859375" class="er attributeBoxEven"/><text style="dominant-baseline: middle; font-size: 10.2px;" transform="translate(149.5859375,189)" y="0" x="0" id="text-entity-User-f9e93164-6fc1-423b-93b2-c215a76247fc-attr-8-key" class="er entityLabel"/><rect height="22" width="46.78125" y="178" x="166.1484375" class="er attributeBoxEven"/><text style="dominant-baseline: middle; font-size: 10.2px;" transform="translate(171.1484375,189)" y="0" x="0" id="text-entity-User-f9e93164-6fc1-423b-93b2-c215a76247fc-attr-8-comment" class="er entityLabel"/><rect height="22" width="53.6640625" y="200" x="0" class="er attributeBoxOdd"/><text style="dominant-baseline: middle; font-size: 10.2px;" transform="translate(5,211)" y="0" x="0" id="text-entity-User-f9e93164-6fc1-423b-93b2-c215a76247fc-attr-9-type" class="er entityLabel">DateTime</text><rect height="22" width="90.921875" y="200" x="53.6640625" class="er attributeBoxOdd"/><text style="dominant-baseline: middle; font-size: 10.2px;" transform="translate(58.6640625,211)" y="0" x="0" id="text-entity-User-f9e93164-6fc1-423b-93b2-c215a76247fc-attr-9-name" class="er entityLabel">updatedAt</text><rect height="22" width="21.5625" y="200" x="144.5859375" class="er attributeBoxOdd"/><text style="dominant-baseline: middle; font-size: 10.2px;" transform="translate(149.5859375,211)" y="0" x="0" id="text-entity-User-f9e93164-6fc1-423b-93b2-c215a76247fc-attr-9-key" class="er entityLabel"/><rect height="22" width="46.78125" y="200" x="166.1484375" class="er attributeBoxOdd"/><text style="dominant-baseline: middle; font-size: 10.2px;" transform="translate(171.1484375,211)" y="0" x="0" id="text-entity-User-f9e93164-6fc1-423b-93b2-c215a76247fc-attr-9-comment" class="er entityLabel"/></g><g transform="translate(95.70703125,42 )" id="entity-VerificationToken-864e51b3-415f-435a-97d4-f60624156e4f"><rect height="112" width="128.1171875" y="0" x="0" class="er entityBox"/><text style="dominant-baseline: middle; text-anchor: middle; font-size: 12px;" transform="translate(64.05859375,12)" y="0" x="0" id="text-entity-VerificationToken-864e51b3-415f-435a-97d4-f60624156e4f" class="er entityLabel">VerificationToken</text><rect height="22" width="53.6640625" y="24" x="0" class="er attributeBoxOdd"/><text style="dominant-baseline: middle; font-size: 10.2px;" transform="translate(5,35)" y="0" x="0" id="text-entity-VerificationToken-864e51b3-415f-435a-97d4-f60624156e4f-attr-1-type" class="er entityLabel">String</text><rect height="22" width="52.890625" y="24" x="53.6640625" class="er attributeBoxOdd"/><text style="dominant-baseline: middle; font-size: 10.2px;" transform="translate(58.6640625,35)" y="0" x="0" id="text-entity-VerificationToken-864e51b3-415f-435a-97d4-f60624156e4f-attr-1-name" class="er entityLabel">z_id</text><rect height="22" width="21.5625" y="24" x="106.5546875" class="er attributeBoxOdd"/><text style="dominant-baseline: middle; font-size: 10.2px;" transform="translate(111.5546875,35)" y="0" x="0" id="text-entity-VerificationToken-864e51b3-415f-435a-97d4-f60624156e4f-attr-1-key" class="er entityLabel">PK</text><rect height="22" width="53.6640625" y="46" x="0" class="er attributeBoxEven"/><text style="dominant-baseline: middle; font-size: 10.2px;" transform="translate(5,57)" y="0" x="0" id="text-entity-VerificationToken-864e51b3-415f-435a-97d4-f60624156e4f-attr-2-type" class="er entityLabel">String</text><rect height="22" width="52.890625" y="46" x="53.6640625" class="er attributeBoxEven"/><text style="dominant-baseline: middle; font-size: 10.2px;" transform="translate(58.6640625,57)" y="0" x="0" id="text-entity-VerificationToken-864e51b3-415f-435a-97d4-f60624156e4f-attr-2-name" class="er entityLabel">identifier</text><rect height="22" width="21.5625" y="46" x="106.5546875" class="er attributeBoxEven"/><text style="dominant-baseline: middle; font-size: 10.2px;" transform="translate(111.5546875,57)" y="0" x="0" id="text-entity-VerificationToken-864e51b3-415f-435a-97d4-f60624156e4f-attr-2-key" class="er entityLabel"/><rect height="22" width="53.6640625" y="68" x="0" class="er attributeBoxOdd"/><text style="dominant-baseline: middle; font-size: 10.2px;" transform="translate(5,79)" y="0" x="0" id="text-entity-VerificationToken-864e51b3-415f-435a-97d4-f60624156e4f-attr-3-type" class="er entityLabel">String</text><rect height="22" width="52.890625" y="68" x="53.6640625" class="er attributeBoxOdd"/><text style="dominant-baseline: middle; font-size: 10.2px;" transform="translate(58.6640625,79)" y="0" x="0" id="text-entity-VerificationToken-864e51b3-415f-435a-97d4-f60624156e4f-attr-3-name" class="er entityLabel">token</text><rect height="22" width="21.5625" y="68" x="106.5546875" class="er attributeBoxOdd"/><text style="dominant-baseline: middle; font-size: 10.2px;" transform="translate(111.5546875,79)" y="0" x="0" id="text-entity-VerificationToken-864e51b3-415f-435a-97d4-f60624156e4f-attr-3-key" class="er entityLabel"/><rect height="22" width="53.6640625" y="90" x="0" class="er attributeBoxEven"/><text style="dominant-baseline: middle; font-size: 10.2px;" transform="translate(5,101)" y="0" x="0" id="text-entity-VerificationToken-864e51b3-415f-435a-97d4-f60624156e4f-attr-4-type" class="er entityLabel">DateTime</text><rect height="22" width="52.890625" y="90" x="53.6640625" class="er attributeBoxEven"/><text style="dominant-baseline: middle; font-size: 10.2px;" transform="translate(58.6640625,101)" y="0" x="0" id="text-entity-VerificationToken-864e51b3-415f-435a-97d4-f60624156e4f-attr-4-name" class="er entityLabel">expires</text><rect height="22" width="21.5625" y="90" x="106.5546875" class="er attributeBoxEven"/><text style="dominant-baseline: middle; font-size: 10.2px;" transform="translate(111.5546875,101)" y="0" x="0" id="text-entity-VerificationToken-864e51b3-415f-435a-97d4-f60624156e4f-attr-4-key" class="er entityLabel"/></g><g transform="translate(332.9296875,309 )" id="entity-Prompt-899d2a5e-4f89-4115-807e-ca0052d4a804"><rect height="156" width="179.65625" y="0" x="0" class="er entityBox"/><text style="dominant-baseline: middle; text-anchor: middle; font-size: 12px;" transform="translate(89.828125,12)" y="0" x="0" id="text-entity-Prompt-899d2a5e-4f89-4115-807e-ca0052d4a804" class="er entityLabel">Prompt</text><rect height="22" width="53.6640625" y="24" x="0" class="er attributeBoxOdd"/><text style="dominant-baseline: middle; font-size: 10.2px;" transform="translate(5,35)" y="0" x="0" id="text-entity-Prompt-899d2a5e-4f89-4115-807e-ca0052d4a804-attr-1-type" class="er entityLabel">String</text><rect height="22" width="57.6484375" y="24" x="53.6640625" class="er attributeBoxOdd"/><text style="dominant-baseline: middle; font-size: 10.2px;" transform="translate(58.6640625,35)" y="0" x="0" id="text-entity-Prompt-899d2a5e-4f89-4115-807e-ca0052d4a804-attr-1-name" class="er entityLabel">z_id</text><rect height="22" width="21.5625" y="24" x="111.3125" class="er attributeBoxOdd"/><text style="dominant-baseline: middle; font-size: 10.2px;" transform="translate(116.3125,35)" y="0" x="0" id="text-entity-Prompt-899d2a5e-4f89-4115-807e-ca0052d4a804-attr-1-key" class="er entityLabel">PK</text><rect height="22" width="46.78125" y="24" x="132.875" class="er attributeBoxOdd"/><text style="dominant-baseline: middle; font-size: 10.2px;" transform="translate(137.875,35)" y="0" x="0" id="text-entity-Prompt-899d2a5e-4f89-4115-807e-ca0052d4a804-attr-1-comment" class="er entityLabel"/><rect height="22" width="53.6640625" y="46" x="0" class="er attributeBoxEven"/><text style="dominant-baseline: middle; font-size: 10.2px;" transform="translate(5,57)" y="0" x="0" id="text-entity-Prompt-899d2a5e-4f89-4115-807e-ca0052d4a804-attr-2-type" class="er entityLabel">String</text><rect height="22" width="57.6484375" y="46" x="53.6640625" class="er attributeBoxEven"/><text style="dominant-baseline: middle; font-size: 10.2px;" transform="translate(58.6640625,57)" y="0" x="0" id="text-entity-Prompt-899d2a5e-4f89-4115-807e-ca0052d4a804-attr-2-name" class="er entityLabel">text</text><rect height="22" width="21.5625" y="46" x="111.3125" class="er attributeBoxEven"/><text style="dominant-baseline: middle; font-size: 10.2px;" transform="translate(116.3125,57)" y="0" x="0" id="text-entity-Prompt-899d2a5e-4f89-4115-807e-ca0052d4a804-attr-2-key" class="er entityLabel"/><rect height="22" width="46.78125" y="46" x="132.875" class="er attributeBoxEven"/><text style="dominant-baseline: middle; font-size: 10.2px;" transform="translate(137.875,57)" y="0" x="0" id="text-entity-Prompt-899d2a5e-4f89-4115-807e-ca0052d4a804-attr-2-comment" class="er entityLabel"/><rect height="22" width="53.6640625" y="68" x="0" class="er attributeBoxOdd"/><text style="dominant-baseline: middle; font-size: 10.2px;" transform="translate(5,79)" y="0" x="0" id="text-entity-Prompt-899d2a5e-4f89-4115-807e-ca0052d4a804-attr-3-type" class="er entityLabel">String</text><rect height="22" width="57.6484375" y="68" x="53.6640625" class="er attributeBoxOdd"/><text style="dominant-baseline: middle; font-size: 10.2px;" transform="translate(58.6640625,79)" y="0" x="0" id="text-entity-Prompt-899d2a5e-4f89-4115-807e-ca0052d4a804-attr-3-name" class="er entityLabel">stub</text><rect height="22" width="21.5625" y="68" x="111.3125" class="er attributeBoxOdd"/><text style="dominant-baseline: middle; font-size: 10.2px;" transform="translate(116.3125,79)" y="0" x="0" id="text-entity-Prompt-899d2a5e-4f89-4115-807e-ca0052d4a804-attr-3-key" class="er entityLabel"/><rect height="22" width="46.78125" y="68" x="132.875" class="er attributeBoxOdd"/><text style="dominant-baseline: middle; font-size: 10.2px;" transform="translate(137.875,79)" y="0" x="0" id="text-entity-Prompt-899d2a5e-4f89-4115-807e-ca0052d4a804-attr-3-comment" class="er entityLabel">nullable</text><rect height="22" width="53.6640625" y="90" x="0" class="er attributeBoxEven"/><text style="dominant-baseline: middle; font-size: 10.2px;" transform="translate(5,101)" y="0" x="0" id="text-entity-Prompt-899d2a5e-4f89-4115-807e-ca0052d4a804-attr-4-type" class="er entityLabel">String</text><rect height="22" width="57.6484375" y="90" x="53.6640625" class="er attributeBoxEven"/><text style="dominant-baseline: middle; font-size: 10.2px;" transform="translate(58.6640625,101)" y="0" x="0" id="text-entity-Prompt-899d2a5e-4f89-4115-807e-ca0052d4a804-attr-4-name" class="er entityLabel">tags</text><rect height="22" width="21.5625" y="90" x="111.3125" class="er attributeBoxEven"/><text style="dominant-baseline: middle; font-size: 10.2px;" transform="translate(116.3125,101)" y="0" x="0" id="text-entity-Prompt-899d2a5e-4f89-4115-807e-ca0052d4a804-attr-4-key" class="er entityLabel"/><rect height="22" width="46.78125" y="90" x="132.875" class="er attributeBoxEven"/><text style="dominant-baseline: middle; font-size: 10.2px;" transform="translate(137.875,101)" y="0" x="0" id="text-entity-Prompt-899d2a5e-4f89-4115-807e-ca0052d4a804-attr-4-comment" class="er entityLabel"/><rect height="22" width="53.6640625" y="112" x="0" class="er attributeBoxOdd"/><text style="dominant-baseline: middle; font-size: 10.2px;" transform="translate(5,123)" y="0" x="0" id="text-entity-Prompt-899d2a5e-4f89-4115-807e-ca0052d4a804-attr-5-type" class="er entityLabel">DateTime</text><rect height="22" width="57.6484375" y="112" x="53.6640625" class="er attributeBoxOdd"/><text style="dominant-baseline: middle; font-size: 10.2px;" transform="translate(58.6640625,123)" y="0" x="0" id="text-entity-Prompt-899d2a5e-4f89-4115-807e-ca0052d4a804-attr-5-name" class="er entityLabel">createdAt</text><rect height="22" width="21.5625" y="112" x="111.3125" class="er attributeBoxOdd"/><text style="dominant-baseline: middle; font-size: 10.2px;" transform="translate(116.3125,123)" y="0" x="0" id="text-entity-Prompt-899d2a5e-4f89-4115-807e-ca0052d4a804-attr-5-key" class="er entityLabel"/><rect height="22" width="46.78125" y="112" x="132.875" class="er attributeBoxOdd"/><text style="dominant-baseline: middle; font-size: 10.2px;" transform="translate(137.875,123)" y="0" x="0" id="text-entity-Prompt-899d2a5e-4f89-4115-807e-ca0052d4a804-attr-5-comment" class="er entityLabel"/><rect height="22" width="53.6640625" y="134" x="0" class="er attributeBoxEven"/><text style="dominant-baseline: middle; font-size: 10.2px;" transform="translate(5,145)" y="0" x="0" id="text-entity-Prompt-899d2a5e-4f89-4115-807e-ca0052d4a804-attr-6-type" class="er entityLabel">DateTime</text><rect height="22" width="57.6484375" y="134" x="53.6640625" class="er attributeBoxEven"/><text style="dominant-baseline: middle; font-size: 10.2px;" transform="translate(58.6640625,145)" y="0" x="0" id="text-entity-Prompt-899d2a5e-4f89-4115-807e-ca0052d4a804-attr-6-name" class="er entityLabel">updatedAt</text><rect height="22" width="21.5625" y="134" x="111.3125" class="er attributeBoxEven"/><text style="dominant-baseline: middle; font-size: 10.2px;" transform="translate(116.3125,145)" y="0" x="0" id="text-entity-Prompt-899d2a5e-4f89-4115-807e-ca0052d4a804-attr-6-key" class="er entityLabel"/><rect height="22" width="46.78125" y="134" x="132.875" class="er attributeBoxEven"/><text style="dominant-baseline: middle; font-size: 10.2px;" transform="translate(137.875,145)" y="0" x="0" id="text-entity-Prompt-899d2a5e-4f89-4115-807e-ca0052d4a804-attr-6-comment" class="er entityLabel"/></g><g transform="translate(323.82421875,20 )" id="entity-Journal-9cb59a5f-cca3-42db-954f-91030f338607"><rect height="156" width="197.8671875" y="0" x="0" class="er entityBox"/><text style="dominant-baseline: middle; text-anchor: middle; font-size: 12px;" transform="translate(98.93359375,12)" y="0" x="0" id="text-entity-Journal-9cb59a5f-cca3-42db-954f-91030f338607" class="er entityLabel">Journal</text><rect height="22" width="71.875" y="24" x="0" class="er attributeBoxOdd"/><text style="dominant-baseline: middle; font-size: 10.2px;" transform="translate(5,35)" y="0" x="0" id="text-entity-Journal-9cb59a5f-cca3-42db-954f-91030f338607-attr-1-type" class="er entityLabel">String</text><rect height="22" width="57.6484375" y="24" x="71.875" class="er attributeBoxOdd"/><text style="dominant-baseline: middle; font-size: 10.2px;" transform="translate(76.875,35)" y="0" x="0" id="text-entity-Journal-9cb59a5f-cca3-42db-954f-91030f338607-attr-1-name" class="er entityLabel">z_id</text><rect height="22" width="21.5625" y="24" x="129.5234375" class="er attributeBoxOdd"/><text style="dominant-baseline: middle; font-size: 10.2px;" transform="translate(134.5234375,35)" y="0" x="0" id="text-entity-Journal-9cb59a5f-cca3-42db-954f-91030f338607-attr-1-key" class="er entityLabel">PK</text><rect height="22" width="46.78125" y="24" x="151.0859375" class="er attributeBoxOdd"/><text style="dominant-baseline: middle; font-size: 10.2px;" transform="translate(156.0859375,35)" y="0" x="0" id="text-entity-Journal-9cb59a5f-cca3-42db-954f-91030f338607-attr-1-comment" class="er entityLabel"/><rect height="22" width="71.875" y="46" x="0" class="er attributeBoxEven"/><text style="dominant-baseline: middle; font-size: 10.2px;" transform="translate(5,57)" y="0" x="0" id="text-entity-Journal-9cb59a5f-cca3-42db-954f-91030f338607-attr-2-type" class="er entityLabel">Bytes</text><rect height="22" width="57.6484375" y="46" x="71.875" class="er attributeBoxEven"/><text style="dominant-baseline: middle; font-size: 10.2px;" transform="translate(76.875,57)" y="0" x="0" id="text-entity-Journal-9cb59a5f-cca3-42db-954f-91030f338607-attr-2-name" class="er entityLabel">ciphertext</text><rect height="22" width="21.5625" y="46" x="129.5234375" class="er attributeBoxEven"/><text style="dominant-baseline: middle; font-size: 10.2px;" transform="translate(134.5234375,57)" y="0" x="0" id="text-entity-Journal-9cb59a5f-cca3-42db-954f-91030f338607-attr-2-key" class="er entityLabel"/><rect height="22" width="46.78125" y="46" x="151.0859375" class="er attributeBoxEven"/><text style="dominant-baseline: middle; font-size: 10.2px;" transform="translate(156.0859375,57)" y="0" x="0" id="text-entity-Journal-9cb59a5f-cca3-42db-954f-91030f338607-attr-2-comment" class="er entityLabel">nullable</text><rect height="22" width="71.875" y="68" x="0" class="er attributeBoxOdd"/><text style="dominant-baseline: middle; font-size: 10.2px;" transform="translate(5,79)" y="0" x="0" id="text-entity-Journal-9cb59a5f-cca3-42db-954f-91030f338607-attr-3-type" class="er entityLabel">Bytes</text><rect height="22" width="57.6484375" y="68" x="71.875" class="er attributeBoxOdd"/><text style="dominant-baseline: middle; font-size: 10.2px;" transform="translate(76.875,79)" y="0" x="0" id="text-entity-Journal-9cb59a5f-cca3-42db-954f-91030f338607-attr-3-name" class="er entityLabel">iv</text><rect height="22" width="21.5625" y="68" x="129.5234375" class="er attributeBoxOdd"/><text style="dominant-baseline: middle; font-size: 10.2px;" transform="translate(134.5234375,79)" y="0" x="0" id="text-entity-Journal-9cb59a5f-cca3-42db-954f-91030f338607-attr-3-key" class="er entityLabel"/><rect height="22" width="46.78125" y="68" x="151.0859375" class="er attributeBoxOdd"/><text style="dominant-baseline: middle; font-size: 10.2px;" transform="translate(156.0859375,79)" y="0" x="0" id="text-entity-Journal-9cb59a5f-cca3-42db-954f-91030f338607-attr-3-comment" class="er entityLabel">nullable</text><rect height="22" width="71.875" y="90" x="0" class="er attributeBoxEven"/><text style="dominant-baseline: middle; font-size: 10.2px;" transform="translate(5,101)" y="0" x="0" id="text-entity-Journal-9cb59a5f-cca3-42db-954f-91030f338607-attr-4-type" class="er entityLabel">JournalStatus</text><rect height="22" width="57.6484375" y="90" x="71.875" class="er attributeBoxEven"/><text style="dominant-baseline: middle; font-size: 10.2px;" transform="translate(76.875,101)" y="0" x="0" id="text-entity-Journal-9cb59a5f-cca3-42db-954f-91030f338607-attr-4-name" class="er entityLabel">status</text><rect height="22" width="21.5625" y="90" x="129.5234375" class="er attributeBoxEven"/><text style="dominant-baseline: middle; font-size: 10.2px;" transform="translate(134.5234375,101)" y="0" x="0" id="text-entity-Journal-9cb59a5f-cca3-42db-954f-91030f338607-attr-4-key" class="er entityLabel"/><rect height="22" width="46.78125" y="90" x="151.0859375" class="er attributeBoxEven"/><text style="dominant-baseline: middle; font-size: 10.2px;" transform="translate(156.0859375,101)" y="0" x="0" id="text-entity-Journal-9cb59a5f-cca3-42db-954f-91030f338607-attr-4-comment" class="er entityLabel"/><rect height="22" width="71.875" y="112" x="0" class="er attributeBoxOdd"/><text style="dominant-baseline: middle; font-size: 10.2px;" transform="translate(5,123)" y="0" x="0" id="text-entity-Journal-9cb59a5f-cca3-42db-954f-91030f338607-attr-5-type" class="er entityLabel">DateTime</text><rect height="22" width="57.6484375" y="112" x="71.875" class="er attributeBoxOdd"/><text style="dominant-baseline: middle; font-size: 10.2px;" transform="translate(76.875,123)" y="0" x="0" id="text-entity-Journal-9cb59a5f-cca3-42db-954f-91030f338607-attr-5-name" class="er entityLabel">createdAt</text><rect height="22" width="21.5625" y="112" x="129.5234375" class="er attributeBoxOdd"/><text style="dominant-baseline: middle; font-size: 10.2px;" transform="translate(134.5234375,123)" y="0" x="0" id="text-entity-Journal-9cb59a5f-cca3-42db-954f-91030f338607-attr-5-key" class="er entityLabel"/><rect height="22" width="46.78125" y="112" x="151.0859375" class="er attributeBoxOdd"/><text style="dominant-baseline: middle; font-size: 10.2px;" transform="translate(156.0859375,123)" y="0" x="0" id="text-entity-Journal-9cb59a5f-cca3-42db-954f-91030f338607-attr-5-comment" class="er entityLabel"/><rect height="22" width="71.875" y="134" x="0" class="er attributeBoxEven"/><text style="dominant-baseline: middle; font-size: 10.2px;" transform="translate(5,145)" y="0" x="0" id="text-entity-Journal-9cb59a5f-cca3-42db-954f-91030f338607-attr-6-type" class="er entityLabel">DateTime</text><rect height="22" width="57.6484375" y="134" x="71.875" class="er attributeBoxEven"/><text style="dominant-baseline: middle; font-size: 10.2px;" transform="translate(76.875,145)" y="0" x="0" id="text-entity-Journal-9cb59a5f-cca3-42db-954f-91030f338607-attr-6-name" class="er entityLabel">updatedAt</text><rect height="22" width="21.5625" y="134" x="129.5234375" class="er attributeBoxEven"/><text style="dominant-baseline: middle; font-size: 10.2px;" transform="translate(134.5234375,145)" y="0" x="0" id="text-entity-Journal-9cb59a5f-cca3-42db-954f-91030f338607-attr-6-key" class="er entityLabel"/><rect height="22" width="46.78125" y="134" x="151.0859375" class="er attributeBoxEven"/><text style="dominant-baseline: middle; font-size: 10.2px;" transform="translate(156.0859375,145)" y="0" x="0" id="text-entity-Journal-9cb59a5f-cca3-42db-954f-91030f338607-attr-6-comment" class="er entityLabel"/></g><rect height="14" width="35.28125" y="185.20945739746094" x="191.40631103515625" class="er relationshipLabelBox"/><text style="text-anchor: middle; dominant-baseline: middle; font-size: 12px;" y="192.20945739746094" x="209.04693603515625" id="rel1" class="er relationshipLabel">author</text><rect height="14" width="39.1953125" y="235.5" x="403.16015625" class="er relationshipLabelBox"/><text style="text-anchor: middle; dominant-baseline: middle; font-size: 12px;" y="242.5" x="422.7578125" id="rel2" class="er relationshipLabel">prompt</text><rect height="14" width="66.1171875" y="213.82362365722656" x="597.0209350585938" class="er relationshipLabelBox"/><text style="text-anchor: middle; dominant-baseline: middle; font-size: 12px;" y="220.82362365722656" x="630.0795288085938" id="rel3" class="er relationshipLabel">enum:status</text></svg>