<svg aria-roledescription="er" viewBox="0 0 849.6640625 474" style="max-width: 849.664px; background-color: white;" xmlns:xlink="http://www.w3.org/1999/xlink" xmlns="http://www.w3.org/2000/svg" width="100%" id="mermaid-0"><style>#mermaid-0{font-family:"trebuchet ms",verdana,arial,sans-serif;font-size:16px;fill:#000000;}#mermaid-0 .error-icon{fill:#552222;}#mermaid-0 .error-text{fill:#552222;stroke:#552222;}#mermaid-0 .edge-thickness-normal{stroke-width:2px;}#mermaid-0 .edge-thickness-thick{stroke-width:3.5px;}#mermaid-0 .edge-pattern-solid{stroke-dasharray:0;}#mermaid-0 .edge-pattern-dashed{stroke-dasharray:3;}#mermaid-0 .edge-pattern-dotted{stroke-dasharray:2;}#mermaid-0 .marker{fill:#000000;stroke:#000000;}#mermaid-0 .marker.cross{stroke:#000000;}#mermaid-0 svg{font-family:"trebuchet ms",verdana,arial,sans-serif;font-size:16px;}#mermaid-0 .entityBox{fill:#cde498;stroke:#13540c;}#mermaid-0 .attributeBoxOdd{fill:#ffffff;stroke:#13540c;}#mermaid-0 .attributeBoxEven{fill:#f2f2f2;stroke:#13540c;}#mermaid-0 .relationshipLabelBox{fill:hsl(78.1578947368, 58.4615384615%, 84.5098039216%);opacity:0.7;background-color:hsl(78.1578947368, 58.4615384615%, 84.5098039216%);}#mermaid-0 .relationshipLabelBox rect{opacity:0.5;}#mermaid-0 .relationshipLine{stroke:#000000;}#mermaid-0 .entityTitleText{text-anchor:middle;font-size:18px;fill:#000000;}#mermaid-0 :root{--mermaid-font-family:"trebuchet ms",verdana,arial,sans-serif;}</style><g/><defs><marker orient="auto" markerHeight="18" markerWidth="18" refY="9" refX="0" id="ONLY_ONE_START"><path d="M9,0 L9,18 M15,0 L15,18" fill="none" stroke="gray"/></marker></defs><defs><marker orient="auto" markerHeight="18" markerWidth="18" refY="9" refX="18" id="ONLY_ONE_END"><path d="M3,0 L3,18 M9,0 L9,18" fill="none" stroke="gray"/></marker></defs><defs><marker orient="auto" markerHeight="18" markerWidth="30" refY="9" refX="0" id="ZERO_OR_ONE_START"><circle r="6" cy="9" cx="21" fill="white" stroke="gray"/><path d="M9,0 L9,18" fill="none" stroke="gray"/></marker></defs><defs><marker orient="auto" markerHeight="18" markerWidth="30" refY="9" refX="30" id="ZERO_OR_ONE_END"><circle r="6" cy="9" cx="9" fill="white" stroke="gray"/><path d="M21,0 L21,18" fill="none" stroke="gray"/></marker></defs><defs><marker orient="auto" markerHeight="36" markerWidth="45" refY="18" refX="18" id="ONE_OR_MORE_START"><path d="M0,18 Q 18,0 36,18 Q 18,36 0,18 M42,9 L42,27" fill="none" stroke="gray"/></marker></defs><defs><marker orient="auto" markerHeight="36" markerWidth="45" refY="18" refX="27" id="ONE_OR_MORE_END"><path d="M3,9 L3,27 M9,18 Q27,0 45,18 Q27,36 9,18" fill="none" stroke="gray"/></marker></defs><defs><marker orient="auto" markerHeight="36" markerWidth="57" refY="18" refX="18" id="ZERO_OR_MORE_START"><circle r="6" cy="18" cx="48" fill="white" stroke="gray"/><path d="M0,18 Q18,0 36,18 Q18,36 0,18" fill="none" stroke="gray"/></marker></defs><defs><marker orient="auto" markerHeight="36" markerWidth="57" refY="18" refX="39" id="ZERO_OR_MORE_END"><circle r="6" cy="18" cx="9" fill="white" stroke="gray"/><path d="M21,18 Q39,0 57,18 Q39,36 21,18" fill="none" stroke="gray"/></marker></defs><path style="stroke: gray; fill: none;" marker-start="url(#ZERO_OR_MORE_START)" marker-end="url(#ONLY_ONE_END)" d="M337.60997596153845,121L351.3768028846154,134.83333333333334C365.1436298076923,148.66666666666666,392.6772836538462,176.33333333333334,411.6663327991453,205.83333333333334C430.6553819444444,235.33333333333334,441.09982638888886,266.6666666666667,446.3220486111111,282.3333333333333L451.5442708333333,298" class="er relationshipLine"/><path style="stroke: gray; fill: none;" marker-start="url(#ZERO_OR_MORE_START)" marker-end="url(#ONLY_ONE_END)" d="M284.4668135683761,121L276.6116675569801,134.83333333333334C268.75652154558406,148.66666666666666,253.04622952279203,176.33333333333334,245.191083511396,205.83333333333334C237.3359375,235.33333333333334,237.3359375,266.6666666666667,237.3359375,282.3333333333333L237.3359375,298" class="er relationshipLine"/><path style="stroke: gray; fill: none;" marker-start="url(#ZERO_OR_MORE_START)" marker-end="url(#ONLY_ONE_END)" d="M711.7887286324786,154L715.3499821937321,162.33333333333334C718.9112357549857,170.66666666666666,726.0337428774928,187.33333333333334,729.5949964387464,204C733.15625,220.66666666666666,733.15625,237.33333333333334,733.15625,245.66666666666666L733.15625,254" class="er relationshipLine"/><path style="stroke: gray; fill: none;" marker-start="url(#ZERO_OR_MORE_START)" marker-end="url(#ZERO_OR_ONE_END)" d="M616.71875,146.1239860950174L605.8795572916666,155.7699884125145C595.0403645833334,165.4159907300116,573.3619791666666,184.7079953650058,554.0134201388888,210.02066434916955C534.6648611111111,235.33333333333334,517.6461284722222,266.6666666666667,509.13676215277775,282.3333333333333L500.6273958333333,298" class="er relationshipLine"/><g transform="translate(636.6484375,254 )" id="entity-User-d53e0d6a-d779-4de6-9aa9-e800a4f55e40"><rect height="200" width="193.015625" y="0" x="0" class="er entityBox"/><text style="dominant-baseline: middle; text-anchor: middle; font-size: 12px;" transform="translate(96.5078125,12)" y="0" x="0" id="text-entity-User-d53e0d6a-d779-4de6-9aa9-e800a4f55e40" class="er entityLabel">User</text><rect height="22" width="53.6640625" y="24" x="0" class="er attributeBoxOdd"/><text style="dominant-baseline: middle; font-size: 10.2px;" transform="translate(5,35)" y="0" x="0" id="text-entity-User-d53e0d6a-d779-4de6-9aa9-e800a4f55e40-attr-1-type" class="er entityLabel">BigInt</text><rect height="22" width="71.0078125" y="24" x="53.6640625" class="er attributeBoxOdd"/><text style="dominant-baseline: middle; font-size: 10.2px;" transform="translate(58.6640625,35)" y="0" x="0" id="text-entity-User-d53e0d6a-d779-4de6-9aa9-e800a4f55e40-attr-1-name" class="er entityLabel">id</text><rect height="22" width="21.5625" y="24" x="124.671875" class="er attributeBoxOdd"/><text style="dominant-baseline: middle; font-size: 10.2px;" transform="translate(129.671875,35)" y="0" x="0" id="text-entity-User-d53e0d6a-d779-4de6-9aa9-e800a4f55e40-attr-1-key" class="er entityLabel">PK</text><rect height="22" width="46.78125" y="24" x="146.234375" class="er attributeBoxOdd"/><text style="dominant-baseline: middle; font-size: 10.2px;" transform="translate(151.234375,35)" y="0" x="0" id="text-entity-User-d53e0d6a-d779-4de6-9aa9-e800a4f55e40-attr-1-comment" class="er entityLabel"/><rect height="22" width="53.6640625" y="46" x="0" class="er attributeBoxEven"/><text style="dominant-baseline: middle; font-size: 10.2px;" transform="translate(5,57)" y="0" x="0" id="text-entity-User-d53e0d6a-d779-4de6-9aa9-e800a4f55e40-attr-2-type" class="er entityLabel">String</text><rect height="22" width="71.0078125" y="46" x="53.6640625" class="er attributeBoxEven"/><text style="dominant-baseline: middle; font-size: 10.2px;" transform="translate(58.6640625,57)" y="0" x="0" id="text-entity-User-d53e0d6a-d779-4de6-9aa9-e800a4f55e40-attr-2-name" class="er entityLabel">name</text><rect height="22" width="21.5625" y="46" x="124.671875" class="er attributeBoxEven"/><text style="dominant-baseline: middle; font-size: 10.2px;" transform="translate(129.671875,57)" y="0" x="0" id="text-entity-User-d53e0d6a-d779-4de6-9aa9-e800a4f55e40-attr-2-key" class="er entityLabel"/><rect height="22" width="46.78125" y="46" x="146.234375" class="er attributeBoxEven"/><text style="dominant-baseline: middle; font-size: 10.2px;" transform="translate(151.234375,57)" y="0" x="0" id="text-entity-User-d53e0d6a-d779-4de6-9aa9-e800a4f55e40-attr-2-comment" class="er entityLabel">nullable</text><rect height="22" width="53.6640625" y="68" x="0" class="er attributeBoxOdd"/><text style="dominant-baseline: middle; font-size: 10.2px;" transform="translate(5,79)" y="0" x="0" id="text-entity-User-d53e0d6a-d779-4de6-9aa9-e800a4f55e40-attr-3-type" class="er entityLabel">String</text><rect height="22" width="71.0078125" y="68" x="53.6640625" class="er attributeBoxOdd"/><text style="dominant-baseline: middle; font-size: 10.2px;" transform="translate(58.6640625,79)" y="0" x="0" id="text-entity-User-d53e0d6a-d779-4de6-9aa9-e800a4f55e40-attr-3-name" class="er entityLabel">email</text><rect height="22" width="21.5625" y="68" x="124.671875" class="er attributeBoxOdd"/><text style="dominant-baseline: middle; font-size: 10.2px;" transform="translate(129.671875,79)" y="0" x="0" id="text-entity-User-d53e0d6a-d779-4de6-9aa9-e800a4f55e40-attr-3-key" class="er entityLabel"/><rect height="22" width="46.78125" y="68" x="146.234375" class="er attributeBoxOdd"/><text style="dominant-baseline: middle; font-size: 10.2px;" transform="translate(151.234375,79)" y="0" x="0" id="text-entity-User-d53e0d6a-d779-4de6-9aa9-e800a4f55e40-attr-3-comment" class="er entityLabel">nullable</text><rect height="22" width="53.6640625" y="90" x="0" class="er attributeBoxEven"/><text style="dominant-baseline: middle; font-size: 10.2px;" transform="translate(5,101)" y="0" x="0" id="text-entity-User-d53e0d6a-d779-4de6-9aa9-e800a4f55e40-attr-4-type" class="er entityLabel">DateTime</text><rect height="22" width="71.0078125" y="90" x="53.6640625" class="er attributeBoxEven"/><text style="dominant-baseline: middle; font-size: 10.2px;" transform="translate(58.6640625,101)" y="0" x="0" id="text-entity-User-d53e0d6a-d779-4de6-9aa9-e800a4f55e40-attr-4-name" class="er entityLabel">emailVerified</text><rect height="22" width="21.5625" y="90" x="124.671875" class="er attributeBoxEven"/><text style="dominant-baseline: middle; font-size: 10.2px;" transform="translate(129.671875,101)" y="0" x="0" id="text-entity-User-d53e0d6a-d779-4de6-9aa9-e800a4f55e40-attr-4-key" class="er entityLabel"/><rect height="22" width="46.78125" y="90" x="146.234375" class="er attributeBoxEven"/><text style="dominant-baseline: middle; font-size: 10.2px;" transform="translate(151.234375,101)" y="0" x="0" id="text-entity-User-d53e0d6a-d779-4de6-9aa9-e800a4f55e40-attr-4-comment" class="er entityLabel">nullable</text><rect height="22" width="53.6640625" y="112" x="0" class="er attributeBoxOdd"/><text style="dominant-baseline: middle; font-size: 10.2px;" transform="translate(5,123)" y="0" x="0" id="text-entity-User-d53e0d6a-d779-4de6-9aa9-e800a4f55e40-attr-5-type" class="er entityLabel">String</text><rect height="22" width="71.0078125" y="112" x="53.6640625" class="er attributeBoxOdd"/><text style="dominant-baseline: middle; font-size: 10.2px;" transform="translate(58.6640625,123)" y="0" x="0" id="text-entity-User-d53e0d6a-d779-4de6-9aa9-e800a4f55e40-attr-5-name" class="er entityLabel">image</text><rect height="22" width="21.5625" y="112" x="124.671875" class="er attributeBoxOdd"/><text style="dominant-baseline: middle; font-size: 10.2px;" transform="translate(129.671875,123)" y="0" x="0" id="text-entity-User-d53e0d6a-d779-4de6-9aa9-e800a4f55e40-attr-5-key" class="er entityLabel"/><rect height="22" width="46.78125" y="112" x="146.234375" class="er attributeBoxOdd"/><text style="dominant-baseline: middle; font-size: 10.2px;" transform="translate(151.234375,123)" y="0" x="0" id="text-entity-User-d53e0d6a-d779-4de6-9aa9-e800a4f55e40-attr-5-comment" class="er entityLabel">nullable</text><rect height="22" width="53.6640625" y="134" x="0" class="er attributeBoxEven"/><text style="dominant-baseline: middle; font-size: 10.2px;" transform="translate(5,145)" y="0" x="0" id="text-entity-User-d53e0d6a-d779-4de6-9aa9-e800a4f55e40-attr-6-type" class="er entityLabel">Bytes</text><rect height="22" width="71.0078125" y="134" x="53.6640625" class="er attributeBoxEven"/><text style="dominant-baseline: middle; font-size: 10.2px;" transform="translate(58.6640625,145)" y="0" x="0" id="text-entity-User-d53e0d6a-d779-4de6-9aa9-e800a4f55e40-attr-6-name" class="er entityLabel">salt</text><rect height="22" width="21.5625" y="134" x="124.671875" class="er attributeBoxEven"/><text style="dominant-baseline: middle; font-size: 10.2px;" transform="translate(129.671875,145)" y="0" x="0" id="text-entity-User-d53e0d6a-d779-4de6-9aa9-e800a4f55e40-attr-6-key" class="er entityLabel"/><rect height="22" width="46.78125" y="134" x="146.234375" class="er attributeBoxEven"/><text style="dominant-baseline: middle; font-size: 10.2px;" transform="translate(151.234375,145)" y="0" x="0" id="text-entity-User-d53e0d6a-d779-4de6-9aa9-e800a4f55e40-attr-6-comment" class="er entityLabel">nullable</text><rect height="22" width="53.6640625" y="156" x="0" class="er attributeBoxOdd"/><text style="dominant-baseline: middle; font-size: 10.2px;" transform="translate(5,167)" y="0" x="0" id="text-entity-User-d53e0d6a-d779-4de6-9aa9-e800a4f55e40-attr-7-type" class="er entityLabel">DateTime</text><rect height="22" width="71.0078125" y="156" x="53.6640625" class="er attributeBoxOdd"/><text style="dominant-baseline: middle; font-size: 10.2px;" transform="translate(58.6640625,167)" y="0" x="0" id="text-entity-User-d53e0d6a-d779-4de6-9aa9-e800a4f55e40-attr-7-name" class="er entityLabel">createdAt</text><rect height="22" width="21.5625" y="156" x="124.671875" class="er attributeBoxOdd"/><text style="dominant-baseline: middle; font-size: 10.2px;" transform="translate(129.671875,167)" y="0" x="0" id="text-entity-User-d53e0d6a-d779-4de6-9aa9-e800a4f55e40-attr-7-key" class="er entityLabel"/><rect height="22" width="46.78125" y="156" x="146.234375" class="er attributeBoxOdd"/><text style="dominant-baseline: middle; font-size: 10.2px;" transform="translate(151.234375,167)" y="0" x="0" id="text-entity-User-d53e0d6a-d779-4de6-9aa9-e800a4f55e40-attr-7-comment" class="er entityLabel"/><rect height="22" width="53.6640625" y="178" x="0" class="er attributeBoxEven"/><text style="dominant-baseline: middle; font-size: 10.2px;" transform="translate(5,189)" y="0" x="0" id="text-entity-User-d53e0d6a-d779-4de6-9aa9-e800a4f55e40-attr-8-type" class="er entityLabel">DateTime</text><rect height="22" width="71.0078125" y="178" x="53.6640625" class="er attributeBoxEven"/><text style="dominant-baseline: middle; font-size: 10.2px;" transform="translate(58.6640625,189)" y="0" x="0" id="text-entity-User-d53e0d6a-d779-4de6-9aa9-e800a4f55e40-attr-8-name" class="er entityLabel">updatedAt</text><rect height="22" width="21.5625" y="178" x="124.671875" class="er attributeBoxEven"/><text style="dominant-baseline: middle; font-size: 10.2px;" transform="translate(129.671875,189)" y="0" x="0" id="text-entity-User-d53e0d6a-d779-4de6-9aa9-e800a4f55e40-attr-8-key" class="er entityLabel"/><rect height="22" width="46.78125" y="178" x="146.234375" class="er attributeBoxEven"/><text style="dominant-baseline: middle; font-size: 10.2px;" transform="translate(151.234375,189)" y="0" x="0" id="text-entity-User-d53e0d6a-d779-4de6-9aa9-e800a4f55e40-attr-8-comment" class="er entityLabel"/></g><g transform="translate(20,42 )" id="entity-VerificationToken-79c4003f-1f13-470a-90a2-fd8ecc7b9953"><rect height="90" width="128.1171875" y="0" x="0" class="er entityBox"/><text style="dominant-baseline: middle; text-anchor: middle; font-size: 12px;" transform="translate(64.05859375,12)" y="0" x="0" id="text-entity-VerificationToken-79c4003f-1f13-470a-90a2-fd8ecc7b9953" class="er entityLabel">VerificationToken</text><rect height="22" width="53.6640625" y="24" x="0" class="er attributeBoxOdd"/><text style="dominant-baseline: middle; font-size: 10.2px;" transform="translate(5,35)" y="0" x="0" id="text-entity-VerificationToken-79c4003f-1f13-470a-90a2-fd8ecc7b9953-attr-1-type" class="er entityLabel">String</text><rect height="22" width="52.890625" y="24" x="53.6640625" class="er attributeBoxOdd"/><text style="dominant-baseline: middle; font-size: 10.2px;" transform="translate(58.6640625,35)" y="0" x="0" id="text-entity-VerificationToken-79c4003f-1f13-470a-90a2-fd8ecc7b9953-attr-1-name" class="er entityLabel">identifier</text><rect height="22" width="21.5625" y="24" x="106.5546875" class="er attributeBoxOdd"/><text style="dominant-baseline: middle; font-size: 10.2px;" transform="translate(111.5546875,35)" y="0" x="0" id="text-entity-VerificationToken-79c4003f-1f13-470a-90a2-fd8ecc7b9953-attr-1-key" class="er entityLabel">PK</text><rect height="22" width="53.6640625" y="46" x="0" class="er attributeBoxEven"/><text style="dominant-baseline: middle; font-size: 10.2px;" transform="translate(5,57)" y="0" x="0" id="text-entity-VerificationToken-79c4003f-1f13-470a-90a2-fd8ecc7b9953-attr-2-type" class="er entityLabel">String</text><rect height="22" width="52.890625" y="46" x="53.6640625" class="er attributeBoxEven"/><text style="dominant-baseline: middle; font-size: 10.2px;" transform="translate(58.6640625,57)" y="0" x="0" id="text-entity-VerificationToken-79c4003f-1f13-470a-90a2-fd8ecc7b9953-attr-2-name" class="er entityLabel">token</text><rect height="22" width="21.5625" y="46" x="106.5546875" class="er attributeBoxEven"/><text style="dominant-baseline: middle; font-size: 10.2px;" transform="translate(111.5546875,57)" y="0" x="0" id="text-entity-VerificationToken-79c4003f-1f13-470a-90a2-fd8ecc7b9953-attr-2-key" class="er entityLabel">PK</text><rect height="22" width="53.6640625" y="68" x="0" class="er attributeBoxOdd"/><text style="dominant-baseline: middle; font-size: 10.2px;" transform="translate(5,79)" y="0" x="0" id="text-entity-VerificationToken-79c4003f-1f13-470a-90a2-fd8ecc7b9953-attr-3-type" class="er entityLabel">DateTime</text><rect height="22" width="52.890625" y="68" x="53.6640625" class="er attributeBoxOdd"/><text style="dominant-baseline: middle; font-size: 10.2px;" transform="translate(58.6640625,79)" y="0" x="0" id="text-entity-VerificationToken-79c4003f-1f13-470a-90a2-fd8ecc7b9953-attr-3-name" class="er entityLabel">expires</text><rect height="22" width="21.5625" y="68" x="106.5546875" class="er attributeBoxOdd"/><text style="dominant-baseline: middle; font-size: 10.2px;" transform="translate(111.5546875,79)" y="0" x="0" id="text-entity-VerificationToken-79c4003f-1f13-470a-90a2-fd8ecc7b9953-attr-3-key" class="er entityLabel"/></g><g transform="translate(403.7734375,298 )" id="entity-Prompt-15816781-e131-4087-b5cb-e7807b37764d"><rect height="112" width="132.875" y="0" x="0" class="er entityBox"/><text style="dominant-baseline: middle; text-anchor: middle; font-size: 12px;" transform="translate(66.4375,12)" y="0" x="0" id="text-entity-Prompt-15816781-e131-4087-b5cb-e7807b37764d" class="er entityLabel">Prompt</text><rect height="22" width="53.6640625" y="24" x="0" class="er attributeBoxOdd"/><text style="dominant-baseline: middle; font-size: 10.2px;" transform="translate(5,35)" y="0" x="0" id="text-entity-Prompt-15816781-e131-4087-b5cb-e7807b37764d-attr-1-type" class="er entityLabel">BigInt</text><rect height="22" width="57.6484375" y="24" x="53.6640625" class="er attributeBoxOdd"/><text style="dominant-baseline: middle; font-size: 10.2px;" transform="translate(58.6640625,35)" y="0" x="0" id="text-entity-Prompt-15816781-e131-4087-b5cb-e7807b37764d-attr-1-name" class="er entityLabel">id</text><rect height="22" width="21.5625" y="24" x="111.3125" class="er attributeBoxOdd"/><text style="dominant-baseline: middle; font-size: 10.2px;" transform="translate(116.3125,35)" y="0" x="0" id="text-entity-Prompt-15816781-e131-4087-b5cb-e7807b37764d-attr-1-key" class="er entityLabel">PK</text><rect height="22" width="53.6640625" y="46" x="0" class="er attributeBoxEven"/><text style="dominant-baseline: middle; font-size: 10.2px;" transform="translate(5,57)" y="0" x="0" id="text-entity-Prompt-15816781-e131-4087-b5cb-e7807b37764d-attr-2-type" class="er entityLabel">String</text><rect height="22" width="57.6484375" y="46" x="53.6640625" class="er attributeBoxEven"/><text style="dominant-baseline: middle; font-size: 10.2px;" transform="translate(58.6640625,57)" y="0" x="0" id="text-entity-Prompt-15816781-e131-4087-b5cb-e7807b37764d-attr-2-name" class="er entityLabel">text</text><rect height="22" width="21.5625" y="46" x="111.3125" class="er attributeBoxEven"/><text style="dominant-baseline: middle; font-size: 10.2px;" transform="translate(116.3125,57)" y="0" x="0" id="text-entity-Prompt-15816781-e131-4087-b5cb-e7807b37764d-attr-2-key" class="er entityLabel"/><rect height="22" width="53.6640625" y="68" x="0" class="er attributeBoxOdd"/><text style="dominant-baseline: middle; font-size: 10.2px;" transform="translate(5,79)" y="0" x="0" id="text-entity-Prompt-15816781-e131-4087-b5cb-e7807b37764d-attr-3-type" class="er entityLabel">DateTime</text><rect height="22" width="57.6484375" y="68" x="53.6640625" class="er attributeBoxOdd"/><text style="dominant-baseline: middle; font-size: 10.2px;" transform="translate(58.6640625,79)" y="0" x="0" id="text-entity-Prompt-15816781-e131-4087-b5cb-e7807b37764d-attr-3-name" class="er entityLabel">createdAt</text><rect height="22" width="21.5625" y="68" x="111.3125" class="er attributeBoxOdd"/><text style="dominant-baseline: middle; font-size: 10.2px;" transform="translate(116.3125,79)" y="0" x="0" id="text-entity-Prompt-15816781-e131-4087-b5cb-e7807b37764d-attr-3-key" class="er entityLabel"/><rect height="22" width="53.6640625" y="90" x="0" class="er attributeBoxEven"/><text style="dominant-baseline: middle; font-size: 10.2px;" transform="translate(5,101)" y="0" x="0" id="text-entity-Prompt-15816781-e131-4087-b5cb-e7807b37764d-attr-4-type" class="er entityLabel">DateTime</text><rect height="22" width="57.6484375" y="90" x="53.6640625" class="er attributeBoxEven"/><text style="dominant-baseline: middle; font-size: 10.2px;" transform="translate(58.6640625,101)" y="0" x="0" id="text-entity-Prompt-15816781-e131-4087-b5cb-e7807b37764d-attr-4-name" class="er entityLabel">updatedAt</text><rect height="22" width="21.5625" y="90" x="111.3125" class="er attributeBoxEven"/><text style="dominant-baseline: middle; font-size: 10.2px;" transform="translate(116.3125,101)" y="0" x="0" id="text-entity-Prompt-15816781-e131-4087-b5cb-e7807b37764d-attr-4-key" class="er entityLabel"/></g><g transform="translate(248.1171875,53 )" id="entity-TagOnPrompt-6d39fb36-5e63-4daf-8018-90b8c1ac53f1"><rect height="68" width="111.3125" y="0" x="0" class="er entityBox"/><text style="dominant-baseline: middle; text-anchor: middle; font-size: 12px;" transform="translate(55.65625,12)" y="0" x="0" id="text-entity-TagOnPrompt-6d39fb36-5e63-4daf-8018-90b8c1ac53f1" class="er entityLabel">TagOnPrompt</text><rect height="22" width="53.6640625" y="24" x="0" class="er attributeBoxOdd"/><text style="dominant-baseline: middle; font-size: 10.2px;" transform="translate(5,35)" y="0" x="0" id="text-entity-TagOnPrompt-6d39fb36-5e63-4daf-8018-90b8c1ac53f1-attr-1-type" class="er entityLabel">DateTime</text><rect height="22" width="57.6484375" y="24" x="53.6640625" class="er attributeBoxOdd"/><text style="dominant-baseline: middle; font-size: 10.2px;" transform="translate(58.6640625,35)" y="0" x="0" id="text-entity-TagOnPrompt-6d39fb36-5e63-4daf-8018-90b8c1ac53f1-attr-1-name" class="er entityLabel">createdAt</text><rect height="22" width="53.6640625" y="46" x="0" class="er attributeBoxEven"/><text style="dominant-baseline: middle; font-size: 10.2px;" transform="translate(5,57)" y="0" x="0" id="text-entity-TagOnPrompt-6d39fb36-5e63-4daf-8018-90b8c1ac53f1-attr-2-type" class="er entityLabel">DateTime</text><rect height="22" width="57.6484375" y="46" x="53.6640625" class="er attributeBoxEven"/><text style="dominant-baseline: middle; font-size: 10.2px;" transform="translate(58.6640625,57)" y="0" x="0" id="text-entity-TagOnPrompt-6d39fb36-5e63-4daf-8018-90b8c1ac53f1-attr-2-name" class="er entityLabel">updatedAt</text></g><g transform="translate(170.8984375,298 )" id="entity-Tag-ff60cc4f-7fb3-44fa-91ef-bf8c5d8bd2e7"><rect height="112" width="132.875" y="0" x="0" class="er entityBox"/><text style="dominant-baseline: middle; text-anchor: middle; font-size: 12px;" transform="translate(66.4375,12)" y="0" x="0" id="text-entity-Tag-ff60cc4f-7fb3-44fa-91ef-bf8c5d8bd2e7" class="er entityLabel">Tag</text><rect height="22" width="53.6640625" y="24" x="0" class="er attributeBoxOdd"/><text style="dominant-baseline: middle; font-size: 10.2px;" transform="translate(5,35)" y="0" x="0" id="text-entity-Tag-ff60cc4f-7fb3-44fa-91ef-bf8c5d8bd2e7-attr-1-type" class="er entityLabel">BigInt</text><rect height="22" width="57.6484375" y="24" x="53.6640625" class="er attributeBoxOdd"/><text style="dominant-baseline: middle; font-size: 10.2px;" transform="translate(58.6640625,35)" y="0" x="0" id="text-entity-Tag-ff60cc4f-7fb3-44fa-91ef-bf8c5d8bd2e7-attr-1-name" class="er entityLabel">id</text><rect height="22" width="21.5625" y="24" x="111.3125" class="er attributeBoxOdd"/><text style="dominant-baseline: middle; font-size: 10.2px;" transform="translate(116.3125,35)" y="0" x="0" id="text-entity-Tag-ff60cc4f-7fb3-44fa-91ef-bf8c5d8bd2e7-attr-1-key" class="er entityLabel">PK</text><rect height="22" width="53.6640625" y="46" x="0" class="er attributeBoxEven"/><text style="dominant-baseline: middle; font-size: 10.2px;" transform="translate(5,57)" y="0" x="0" id="text-entity-Tag-ff60cc4f-7fb3-44fa-91ef-bf8c5d8bd2e7-attr-2-type" class="er entityLabel">String</text><rect height="22" width="57.6484375" y="46" x="53.6640625" class="er attributeBoxEven"/><text style="dominant-baseline: middle; font-size: 10.2px;" transform="translate(58.6640625,57)" y="0" x="0" id="text-entity-Tag-ff60cc4f-7fb3-44fa-91ef-bf8c5d8bd2e7-attr-2-name" class="er entityLabel">text</text><rect height="22" width="21.5625" y="46" x="111.3125" class="er attributeBoxEven"/><text style="dominant-baseline: middle; font-size: 10.2px;" transform="translate(116.3125,57)" y="0" x="0" id="text-entity-Tag-ff60cc4f-7fb3-44fa-91ef-bf8c5d8bd2e7-attr-2-key" class="er entityLabel"/><rect height="22" width="53.6640625" y="68" x="0" class="er attributeBoxOdd"/><text style="dominant-baseline: middle; font-size: 10.2px;" transform="translate(5,79)" y="0" x="0" id="text-entity-Tag-ff60cc4f-7fb3-44fa-91ef-bf8c5d8bd2e7-attr-3-type" class="er entityLabel">DateTime</text><rect height="22" width="57.6484375" y="68" x="53.6640625" class="er attributeBoxOdd"/><text style="dominant-baseline: middle; font-size: 10.2px;" transform="translate(58.6640625,79)" y="0" x="0" id="text-entity-Tag-ff60cc4f-7fb3-44fa-91ef-bf8c5d8bd2e7-attr-3-name" class="er entityLabel">createdAt</text><rect height="22" width="21.5625" y="68" x="111.3125" class="er attributeBoxOdd"/><text style="dominant-baseline: middle; font-size: 10.2px;" transform="translate(116.3125,79)" y="0" x="0" id="text-entity-Tag-ff60cc4f-7fb3-44fa-91ef-bf8c5d8bd2e7-attr-3-key" class="er entityLabel"/><rect height="22" width="53.6640625" y="90" x="0" class="er attributeBoxEven"/><text style="dominant-baseline: middle; font-size: 10.2px;" transform="translate(5,101)" y="0" x="0" id="text-entity-Tag-ff60cc4f-7fb3-44fa-91ef-bf8c5d8bd2e7-attr-4-type" class="er entityLabel">DateTime</text><rect height="22" width="57.6484375" y="90" x="53.6640625" class="er attributeBoxEven"/><text style="dominant-baseline: middle; font-size: 10.2px;" transform="translate(58.6640625,101)" y="0" x="0" id="text-entity-Tag-ff60cc4f-7fb3-44fa-91ef-bf8c5d8bd2e7-attr-4-name" class="er entityLabel">updatedAt</text><rect height="22" width="21.5625" y="90" x="111.3125" class="er attributeBoxEven"/><text style="dominant-baseline: middle; font-size: 10.2px;" transform="translate(116.3125,101)" y="0" x="0" id="text-entity-Tag-ff60cc4f-7fb3-44fa-91ef-bf8c5d8bd2e7-attr-4-key" class="er entityLabel"/></g><g transform="translate(616.71875,20 )" id="entity-Journal-9b73ee6a-e6aa-4d63-bd68-0e564f2eea1b"><rect height="134" width="132.875" y="0" x="0" class="er entityBox"/><text style="dominant-baseline: middle; text-anchor: middle; font-size: 12px;" transform="translate(66.4375,12)" y="0" x="0" id="text-entity-Journal-9b73ee6a-e6aa-4d63-bd68-0e564f2eea1b" class="er entityLabel">Journal</text><rect height="22" width="53.6640625" y="24" x="0" class="er attributeBoxOdd"/><text style="dominant-baseline: middle; font-size: 10.2px;" transform="translate(5,35)" y="0" x="0" id="text-entity-Journal-9b73ee6a-e6aa-4d63-bd68-0e564f2eea1b-attr-1-type" class="er entityLabel">BigInt</text><rect height="22" width="57.6484375" y="24" x="53.6640625" class="er attributeBoxOdd"/><text style="dominant-baseline: middle; font-size: 10.2px;" transform="translate(58.6640625,35)" y="0" x="0" id="text-entity-Journal-9b73ee6a-e6aa-4d63-bd68-0e564f2eea1b-attr-1-name" class="er entityLabel">id</text><rect height="22" width="21.5625" y="24" x="111.3125" class="er attributeBoxOdd"/><text style="dominant-baseline: middle; font-size: 10.2px;" transform="translate(116.3125,35)" y="0" x="0" id="text-entity-Journal-9b73ee6a-e6aa-4d63-bd68-0e564f2eea1b-attr-1-key" class="er entityLabel">PK</text><rect height="22" width="53.6640625" y="46" x="0" class="er attributeBoxEven"/><text style="dominant-baseline: middle; font-size: 10.2px;" transform="translate(5,57)" y="0" x="0" id="text-entity-Journal-9b73ee6a-e6aa-4d63-bd68-0e564f2eea1b-attr-2-type" class="er entityLabel">Bytes</text><rect height="22" width="57.6484375" y="46" x="53.6640625" class="er attributeBoxEven"/><text style="dominant-baseline: middle; font-size: 10.2px;" transform="translate(58.6640625,57)" y="0" x="0" id="text-entity-Journal-9b73ee6a-e6aa-4d63-bd68-0e564f2eea1b-attr-2-name" class="er entityLabel">ciphertext</text><rect height="22" width="21.5625" y="46" x="111.3125" class="er attributeBoxEven"/><text style="dominant-baseline: middle; font-size: 10.2px;" transform="translate(116.3125,57)" y="0" x="0" id="text-entity-Journal-9b73ee6a-e6aa-4d63-bd68-0e564f2eea1b-attr-2-key" class="er entityLabel"/><rect height="22" width="53.6640625" y="68" x="0" class="er attributeBoxOdd"/><text style="dominant-baseline: middle; font-size: 10.2px;" transform="translate(5,79)" y="0" x="0" id="text-entity-Journal-9b73ee6a-e6aa-4d63-bd68-0e564f2eea1b-attr-3-type" class="er entityLabel">Bytes</text><rect height="22" width="57.6484375" y="68" x="53.6640625" class="er attributeBoxOdd"/><text style="dominant-baseline: middle; font-size: 10.2px;" transform="translate(58.6640625,79)" y="0" x="0" id="text-entity-Journal-9b73ee6a-e6aa-4d63-bd68-0e564f2eea1b-attr-3-name" class="er entityLabel">iv</text><rect height="22" width="21.5625" y="68" x="111.3125" class="er attributeBoxOdd"/><text style="dominant-baseline: middle; font-size: 10.2px;" transform="translate(116.3125,79)" y="0" x="0" id="text-entity-Journal-9b73ee6a-e6aa-4d63-bd68-0e564f2eea1b-attr-3-key" class="er entityLabel"/><rect height="22" width="53.6640625" y="90" x="0" class="er attributeBoxEven"/><text style="dominant-baseline: middle; font-size: 10.2px;" transform="translate(5,101)" y="0" x="0" id="text-entity-Journal-9b73ee6a-e6aa-4d63-bd68-0e564f2eea1b-attr-4-type" class="er entityLabel">DateTime</text><rect height="22" width="57.6484375" y="90" x="53.6640625" class="er attributeBoxEven"/><text style="dominant-baseline: middle; font-size: 10.2px;" transform="translate(58.6640625,101)" y="0" x="0" id="text-entity-Journal-9b73ee6a-e6aa-4d63-bd68-0e564f2eea1b-attr-4-name" class="er entityLabel">createdAt</text><rect height="22" width="21.5625" y="90" x="111.3125" class="er attributeBoxEven"/><text style="dominant-baseline: middle; font-size: 10.2px;" transform="translate(116.3125,101)" y="0" x="0" id="text-entity-Journal-9b73ee6a-e6aa-4d63-bd68-0e564f2eea1b-attr-4-key" class="er entityLabel"/><rect height="22" width="53.6640625" y="112" x="0" class="er attributeBoxOdd"/><text style="dominant-baseline: middle; font-size: 10.2px;" transform="translate(5,123)" y="0" x="0" id="text-entity-Journal-9b73ee6a-e6aa-4d63-bd68-0e564f2eea1b-attr-5-type" class="er entityLabel">DateTime</text><rect height="22" width="57.6484375" y="112" x="53.6640625" class="er attributeBoxOdd"/><text style="dominant-baseline: middle; font-size: 10.2px;" transform="translate(58.6640625,123)" y="0" x="0" id="text-entity-Journal-9b73ee6a-e6aa-4d63-bd68-0e564f2eea1b-attr-5-name" class="er entityLabel">updatedAt</text><rect height="22" width="21.5625" y="112" x="111.3125" class="er attributeBoxOdd"/><text style="dominant-baseline: middle; font-size: 10.2px;" transform="translate(116.3125,123)" y="0" x="0" id="text-entity-Journal-9b73ee6a-e6aa-4d63-bd68-0e564f2eea1b-attr-5-key" class="er entityLabel"/></g><rect height="14" width="39.1953125" y="193.78749084472656" x="388.7274475097656" class="er relationshipLabelBox"/><text style="text-anchor: middle; dominant-baseline: middle; font-size: 12px;" y="200.78749084472656" x="408.3251037597656" id="rel1" class="er relationshipLabel">prompt</text><rect height="14" width="17.0859375" y="198.36251831054688" x="236.77452087402344" class="er relationshipLabelBox"/><text style="text-anchor: middle; dominant-baseline: middle; font-size: 12px;" y="205.36251831054688" x="245.31748962402344" id="rel2" class="er relationshipLabel">tag</text><rect height="14" width="35.28125" y="195.56729125976562" x="711.63916015625" class="er relationshipLabelBox"/><text style="text-anchor: middle; dominant-baseline: middle; font-size: 12px;" y="202.56729125976562" x="729.27978515625" id="rel3" class="er relationshipLabel">author</text><rect height="14" width="39.1953125" y="208.3638916015625" x="530.4290161132812" class="er relationshipLabelBox"/><text style="text-anchor: middle; dominant-baseline: middle; font-size: 12px;" y="215.3638916015625" x="550.0266723632812" id="rel4" class="er relationshipLabel">prompt</text></svg>