<svg aria-roledescription="er" viewBox="0 0 1002.453125 496" style="max-width: 1002.45px; background-color: white;" xmlns:xlink="http://www.w3.org/1999/xlink" xmlns="http://www.w3.org/2000/svg" width="100%" id="mermaid-0"><style>#mermaid-0{font-family:"trebuchet ms",verdana,arial,sans-serif;font-size:16px;fill:#000000;}#mermaid-0 .error-icon{fill:#552222;}#mermaid-0 .error-text{fill:#552222;stroke:#552222;}#mermaid-0 .edge-thickness-normal{stroke-width:2px;}#mermaid-0 .edge-thickness-thick{stroke-width:3.5px;}#mermaid-0 .edge-pattern-solid{stroke-dasharray:0;}#mermaid-0 .edge-pattern-dashed{stroke-dasharray:3;}#mermaid-0 .edge-pattern-dotted{stroke-dasharray:2;}#mermaid-0 .marker{fill:#000000;stroke:#000000;}#mermaid-0 .marker.cross{stroke:#000000;}#mermaid-0 svg{font-family:"trebuchet ms",verdana,arial,sans-serif;font-size:16px;}#mermaid-0 .entityBox{fill:#cde498;stroke:#13540c;}#mermaid-0 .attributeBoxOdd{fill:#ffffff;stroke:#13540c;}#mermaid-0 .attributeBoxEven{fill:#f2f2f2;stroke:#13540c;}#mermaid-0 .relationshipLabelBox{fill:hsl(78.1578947368, 58.4615384615%, 84.5098039216%);opacity:0.7;background-color:hsl(78.1578947368, 58.4615384615%, 84.5098039216%);}#mermaid-0 .relationshipLabelBox rect{opacity:0.5;}#mermaid-0 .relationshipLine{stroke:#000000;}#mermaid-0 .entityTitleText{text-anchor:middle;font-size:18px;fill:#000000;}#mermaid-0 :root{--mermaid-font-family:"trebuchet ms",verdana,arial,sans-serif;}</style><g/><defs><marker orient="auto" markerHeight="18" markerWidth="18" refY="9" refX="0" id="ONLY_ONE_START"><path d="M9,0 L9,18 M15,0 L15,18" fill="none" stroke="gray"/></marker></defs><defs><marker orient="auto" markerHeight="18" markerWidth="18" refY="9" refX="18" id="ONLY_ONE_END"><path d="M3,0 L3,18 M9,0 L9,18" fill="none" stroke="gray"/></marker></defs><defs><marker orient="auto" markerHeight="18" markerWidth="30" refY="9" refX="0" id="ZERO_OR_ONE_START"><circle r="6" cy="9" cx="21" fill="white" stroke="gray"/><path d="M9,0 L9,18" fill="none" stroke="gray"/></marker></defs><defs><marker orient="auto" markerHeight="18" markerWidth="30" refY="9" refX="30" id="ZERO_OR_ONE_END"><circle r="6" cy="9" cx="9" fill="white" stroke="gray"/><path d="M21,0 L21,18" fill="none" stroke="gray"/></marker></defs><defs><marker orient="auto" markerHeight="36" markerWidth="45" refY="18" refX="18" id="ONE_OR_MORE_START"><path d="M0,18 Q 18,0 36,18 Q 18,36 0,18 M42,9 L42,27" fill="none" stroke="gray"/></marker></defs><defs><marker orient="auto" markerHeight="36" markerWidth="45" refY="18" refX="27" id="ONE_OR_MORE_END"><path d="M3,9 L3,27 M9,18 Q27,0 45,18 Q27,36 9,18" fill="none" stroke="gray"/></marker></defs><defs><marker orient="auto" markerHeight="36" markerWidth="57" refY="18" refX="18" id="ZERO_OR_MORE_START"><circle r="6" cy="18" cx="48" fill="white" stroke="gray"/><path d="M0,18 Q18,0 36,18 Q18,36 0,18" fill="none" stroke="gray"/></marker></defs><defs><marker orient="auto" markerHeight="36" markerWidth="57" refY="18" refX="39" id="ZERO_OR_MORE_END"><circle r="6" cy="18" cx="9" fill="white" stroke="gray"/><path d="M21,18 Q39,0 57,18 Q39,36 21,18" fill="none" stroke="gray"/></marker></defs><path style="stroke: gray; fill: none;" marker-start="url(#ZERO_OR_MORE_START)" marker-end="url(#ONLY_ONE_END)" d="M259.5634765625,132L239.19222005208334,147.66666666666666C218.82096354166666,163.33333333333334,178.07845052083334,194.66666666666666,162.92941623263889,226C147.78038194444446,257.3333333333333,158.22482638888889,288.6666666666667,163.44704861111111,304.3333333333333L168.66927083333334,320" class="er relationshipLine"/><path style="stroke: gray; fill: none;" marker-start="url(#ZERO_OR_MORE_START)" marker-end="url(#ONLY_ONE_END)" d="M334.7021484375,132L348.95361328125,147.66666666666666C363.205078125,163.33333333333334,391.7080078125,194.66666666666666,405.95947265625,226C420.2109375,257.3333333333333,420.2109375,288.6666666666667,420.2109375,304.3333333333333L420.2109375,320" class="er relationshipLine"/><path style="stroke: gray; fill: none;" marker-start="url(#ZERO_OR_MORE_START)" marker-end="url(#ONLY_ONE_END)" d="M683.15625,176L683.15625,184.33333333333334C683.15625,192.66666666666666,683.15625,209.33333333333334,683.15625,226C683.15625,242.66666666666666,683.15625,259.3333333333333,683.15625,267.6666666666667L683.15625,276" class="er relationshipLine"/><path style="stroke: gray; fill: none;" marker-start="url(#ZERO_OR_MORE_START)" marker-end="url(#ZERO_OR_ONE_END)" d="M584.22265625,127.4923309255654L529.1477864583334,143.9102757713045C474.0729166666667,160.3282206170436,363.9231770833333,193.1641103085218,301.90927951388886,225.24872182092759C239.89538194444444,257.3333333333333,226.0173263888889,288.6666666666667,219.0782986111111,304.3333333333333L212.13927083333334,320" class="er relationshipLine"/><path style="stroke: gray; fill: none;" marker-start="url(#ZERO_OR_ONE_START)" marker-end="url(#ONLY_ONE_END)" d="M782.08984375,149.08261506704693L806.91796875,161.9021792225391C831.74609375,174.7217433780313,881.40234375,200.36087168901565,906.23046875,230.6804358445078C931.05859375,261,931.05859375,296,931.05859375,313.5L931.05859375,331" class="er relationshipLine"/><g transform="translate(879.6640625,331 )" id="entity-JournalStatus-fd7c592a-58a7-4187-9287-84021aa7ff88"><rect height="90" width="102.7890625" y="0" x="0" class="er entityBox"/><text style="dominant-baseline: middle; text-anchor: middle; font-size: 12px;" transform="translate(51.39453125,12)" y="0" x="0" id="text-entity-JournalStatus-fd7c592a-58a7-4187-9287-84021aa7ff88" class="er entityLabel">JournalStatus</text><rect height="22" width="51.39453125" y="24" x="0" class="er attributeBoxOdd"/><text style="dominant-baseline: middle; font-size: 10.2px;" transform="translate(5,35)" y="0" x="0" id="text-entity-JournalStatus-fd7c592a-58a7-4187-9287-84021aa7ff88-attr-1-type" class="er entityLabel">ACTIVE</text><rect height="22" width="51.39453125" y="24" x="51.39453125" class="er attributeBoxOdd"/><text style="dominant-baseline: middle; font-size: 10.2px;" transform="translate(56.39453125,35)" y="0" x="0" id="text-entity-JournalStatus-fd7c592a-58a7-4187-9287-84021aa7ff88-attr-1-name" class="er entityLabel">ACTIVE</text><rect height="22" width="51.39453125" y="46" x="0" class="er attributeBoxEven"/><text style="dominant-baseline: middle; font-size: 10.2px;" transform="translate(5,57)" y="0" x="0" id="text-entity-JournalStatus-fd7c592a-58a7-4187-9287-84021aa7ff88-attr-2-type" class="er entityLabel">TRASHED</text><rect height="22" width="51.39453125" y="46" x="51.39453125" class="er attributeBoxEven"/><text style="dominant-baseline: middle; font-size: 10.2px;" transform="translate(56.39453125,57)" y="0" x="0" id="text-entity-JournalStatus-fd7c592a-58a7-4187-9287-84021aa7ff88-attr-2-name" class="er entityLabel">TRASHED</text><rect height="22" width="51.39453125" y="68" x="0" class="er attributeBoxOdd"/><text style="dominant-baseline: middle; font-size: 10.2px;" transform="translate(5,79)" y="0" x="0" id="text-entity-JournalStatus-fd7c592a-58a7-4187-9287-84021aa7ff88-attr-3-type" class="er entityLabel">DELETED</text><rect height="22" width="51.39453125" y="68" x="51.39453125" class="er attributeBoxOdd"/><text style="dominant-baseline: middle; font-size: 10.2px;" transform="translate(56.39453125,79)" y="0" x="0" id="text-entity-JournalStatus-fd7c592a-58a7-4187-9287-84021aa7ff88-attr-3-name" class="er entityLabel">DELETED</text></g><g transform="translate(586.6484375,276 )" id="entity-User-d54c7794-59b8-454c-afb8-166a37ff51ce"><rect height="200" width="193.015625" y="0" x="0" class="er entityBox"/><text style="dominant-baseline: middle; text-anchor: middle; font-size: 12px;" transform="translate(96.5078125,12)" y="0" x="0" id="text-entity-User-d54c7794-59b8-454c-afb8-166a37ff51ce" class="er entityLabel">User</text><rect height="22" width="53.6640625" y="24" x="0" class="er attributeBoxOdd"/><text style="dominant-baseline: middle; font-size: 10.2px;" transform="translate(5,35)" y="0" x="0" id="text-entity-User-d54c7794-59b8-454c-afb8-166a37ff51ce-attr-1-type" class="er entityLabel">BigInt</text><rect height="22" width="71.0078125" y="24" x="53.6640625" class="er attributeBoxOdd"/><text style="dominant-baseline: middle; font-size: 10.2px;" transform="translate(58.6640625,35)" y="0" x="0" id="text-entity-User-d54c7794-59b8-454c-afb8-166a37ff51ce-attr-1-name" class="er entityLabel">id</text><rect height="22" width="21.5625" y="24" x="124.671875" class="er attributeBoxOdd"/><text style="dominant-baseline: middle; font-size: 10.2px;" transform="translate(129.671875,35)" y="0" x="0" id="text-entity-User-d54c7794-59b8-454c-afb8-166a37ff51ce-attr-1-key" class="er entityLabel">PK</text><rect height="22" width="46.78125" y="24" x="146.234375" class="er attributeBoxOdd"/><text style="dominant-baseline: middle; font-size: 10.2px;" transform="translate(151.234375,35)" y="0" x="0" id="text-entity-User-d54c7794-59b8-454c-afb8-166a37ff51ce-attr-1-comment" class="er entityLabel"/><rect height="22" width="53.6640625" y="46" x="0" class="er attributeBoxEven"/><text style="dominant-baseline: middle; font-size: 10.2px;" transform="translate(5,57)" y="0" x="0" id="text-entity-User-d54c7794-59b8-454c-afb8-166a37ff51ce-attr-2-type" class="er entityLabel">String</text><rect height="22" width="71.0078125" y="46" x="53.6640625" class="er attributeBoxEven"/><text style="dominant-baseline: middle; font-size: 10.2px;" transform="translate(58.6640625,57)" y="0" x="0" id="text-entity-User-d54c7794-59b8-454c-afb8-166a37ff51ce-attr-2-name" class="er entityLabel">name</text><rect height="22" width="21.5625" y="46" x="124.671875" class="er attributeBoxEven"/><text style="dominant-baseline: middle; font-size: 10.2px;" transform="translate(129.671875,57)" y="0" x="0" id="text-entity-User-d54c7794-59b8-454c-afb8-166a37ff51ce-attr-2-key" class="er entityLabel"/><rect height="22" width="46.78125" y="46" x="146.234375" class="er attributeBoxEven"/><text style="dominant-baseline: middle; font-size: 10.2px;" transform="translate(151.234375,57)" y="0" x="0" id="text-entity-User-d54c7794-59b8-454c-afb8-166a37ff51ce-attr-2-comment" class="er entityLabel">nullable</text><rect height="22" width="53.6640625" y="68" x="0" class="er attributeBoxOdd"/><text style="dominant-baseline: middle; font-size: 10.2px;" transform="translate(5,79)" y="0" x="0" id="text-entity-User-d54c7794-59b8-454c-afb8-166a37ff51ce-attr-3-type" class="er entityLabel">String</text><rect height="22" width="71.0078125" y="68" x="53.6640625" class="er attributeBoxOdd"/><text style="dominant-baseline: middle; font-size: 10.2px;" transform="translate(58.6640625,79)" y="0" x="0" id="text-entity-User-d54c7794-59b8-454c-afb8-166a37ff51ce-attr-3-name" class="er entityLabel">email</text><rect height="22" width="21.5625" y="68" x="124.671875" class="er attributeBoxOdd"/><text style="dominant-baseline: middle; font-size: 10.2px;" transform="translate(129.671875,79)" y="0" x="0" id="text-entity-User-d54c7794-59b8-454c-afb8-166a37ff51ce-attr-3-key" class="er entityLabel"/><rect height="22" width="46.78125" y="68" x="146.234375" class="er attributeBoxOdd"/><text style="dominant-baseline: middle; font-size: 10.2px;" transform="translate(151.234375,79)" y="0" x="0" id="text-entity-User-d54c7794-59b8-454c-afb8-166a37ff51ce-attr-3-comment" class="er entityLabel">nullable</text><rect height="22" width="53.6640625" y="90" x="0" class="er attributeBoxEven"/><text style="dominant-baseline: middle; font-size: 10.2px;" transform="translate(5,101)" y="0" x="0" id="text-entity-User-d54c7794-59b8-454c-afb8-166a37ff51ce-attr-4-type" class="er entityLabel">DateTime</text><rect height="22" width="71.0078125" y="90" x="53.6640625" class="er attributeBoxEven"/><text style="dominant-baseline: middle; font-size: 10.2px;" transform="translate(58.6640625,101)" y="0" x="0" id="text-entity-User-d54c7794-59b8-454c-afb8-166a37ff51ce-attr-4-name" class="er entityLabel">emailVerified</text><rect height="22" width="21.5625" y="90" x="124.671875" class="er attributeBoxEven"/><text style="dominant-baseline: middle; font-size: 10.2px;" transform="translate(129.671875,101)" y="0" x="0" id="text-entity-User-d54c7794-59b8-454c-afb8-166a37ff51ce-attr-4-key" class="er entityLabel"/><rect height="22" width="46.78125" y="90" x="146.234375" class="er attributeBoxEven"/><text style="dominant-baseline: middle; font-size: 10.2px;" transform="translate(151.234375,101)" y="0" x="0" id="text-entity-User-d54c7794-59b8-454c-afb8-166a37ff51ce-attr-4-comment" class="er entityLabel">nullable</text><rect height="22" width="53.6640625" y="112" x="0" class="er attributeBoxOdd"/><text style="dominant-baseline: middle; font-size: 10.2px;" transform="translate(5,123)" y="0" x="0" id="text-entity-User-d54c7794-59b8-454c-afb8-166a37ff51ce-attr-5-type" class="er entityLabel">String</text><rect height="22" width="71.0078125" y="112" x="53.6640625" class="er attributeBoxOdd"/><text style="dominant-baseline: middle; font-size: 10.2px;" transform="translate(58.6640625,123)" y="0" x="0" id="text-entity-User-d54c7794-59b8-454c-afb8-166a37ff51ce-attr-5-name" class="er entityLabel">image</text><rect height="22" width="21.5625" y="112" x="124.671875" class="er attributeBoxOdd"/><text style="dominant-baseline: middle; font-size: 10.2px;" transform="translate(129.671875,123)" y="0" x="0" id="text-entity-User-d54c7794-59b8-454c-afb8-166a37ff51ce-attr-5-key" class="er entityLabel"/><rect height="22" width="46.78125" y="112" x="146.234375" class="er attributeBoxOdd"/><text style="dominant-baseline: middle; font-size: 10.2px;" transform="translate(151.234375,123)" y="0" x="0" id="text-entity-User-d54c7794-59b8-454c-afb8-166a37ff51ce-attr-5-comment" class="er entityLabel">nullable</text><rect height="22" width="53.6640625" y="134" x="0" class="er attributeBoxEven"/><text style="dominant-baseline: middle; font-size: 10.2px;" transform="translate(5,145)" y="0" x="0" id="text-entity-User-d54c7794-59b8-454c-afb8-166a37ff51ce-attr-6-type" class="er entityLabel">Bytes</text><rect height="22" width="71.0078125" y="134" x="53.6640625" class="er attributeBoxEven"/><text style="dominant-baseline: middle; font-size: 10.2px;" transform="translate(58.6640625,145)" y="0" x="0" id="text-entity-User-d54c7794-59b8-454c-afb8-166a37ff51ce-attr-6-name" class="er entityLabel">salt</text><rect height="22" width="21.5625" y="134" x="124.671875" class="er attributeBoxEven"/><text style="dominant-baseline: middle; font-size: 10.2px;" transform="translate(129.671875,145)" y="0" x="0" id="text-entity-User-d54c7794-59b8-454c-afb8-166a37ff51ce-attr-6-key" class="er entityLabel"/><rect height="22" width="46.78125" y="134" x="146.234375" class="er attributeBoxEven"/><text style="dominant-baseline: middle; font-size: 10.2px;" transform="translate(151.234375,145)" y="0" x="0" id="text-entity-User-d54c7794-59b8-454c-afb8-166a37ff51ce-attr-6-comment" class="er entityLabel">nullable</text><rect height="22" width="53.6640625" y="156" x="0" class="er attributeBoxOdd"/><text style="dominant-baseline: middle; font-size: 10.2px;" transform="translate(5,167)" y="0" x="0" id="text-entity-User-d54c7794-59b8-454c-afb8-166a37ff51ce-attr-7-type" class="er entityLabel">DateTime</text><rect height="22" width="71.0078125" y="156" x="53.6640625" class="er attributeBoxOdd"/><text style="dominant-baseline: middle; font-size: 10.2px;" transform="translate(58.6640625,167)" y="0" x="0" id="text-entity-User-d54c7794-59b8-454c-afb8-166a37ff51ce-attr-7-name" class="er entityLabel">createdAt</text><rect height="22" width="21.5625" y="156" x="124.671875" class="er attributeBoxOdd"/><text style="dominant-baseline: middle; font-size: 10.2px;" transform="translate(129.671875,167)" y="0" x="0" id="text-entity-User-d54c7794-59b8-454c-afb8-166a37ff51ce-attr-7-key" class="er entityLabel"/><rect height="22" width="46.78125" y="156" x="146.234375" class="er attributeBoxOdd"/><text style="dominant-baseline: middle; font-size: 10.2px;" transform="translate(151.234375,167)" y="0" x="0" id="text-entity-User-d54c7794-59b8-454c-afb8-166a37ff51ce-attr-7-comment" class="er entityLabel"/><rect height="22" width="53.6640625" y="178" x="0" class="er attributeBoxEven"/><text style="dominant-baseline: middle; font-size: 10.2px;" transform="translate(5,189)" y="0" x="0" id="text-entity-User-d54c7794-59b8-454c-afb8-166a37ff51ce-attr-8-type" class="er entityLabel">DateTime</text><rect height="22" width="71.0078125" y="178" x="53.6640625" class="er attributeBoxEven"/><text style="dominant-baseline: middle; font-size: 10.2px;" transform="translate(58.6640625,189)" y="0" x="0" id="text-entity-User-d54c7794-59b8-454c-afb8-166a37ff51ce-attr-8-name" class="er entityLabel">updatedAt</text><rect height="22" width="21.5625" y="178" x="124.671875" class="er attributeBoxEven"/><text style="dominant-baseline: middle; font-size: 10.2px;" transform="translate(129.671875,189)" y="0" x="0" id="text-entity-User-d54c7794-59b8-454c-afb8-166a37ff51ce-attr-8-key" class="er entityLabel"/><rect height="22" width="46.78125" y="178" x="146.234375" class="er attributeBoxEven"/><text style="dominant-baseline: middle; font-size: 10.2px;" transform="translate(151.234375,189)" y="0" x="0" id="text-entity-User-d54c7794-59b8-454c-afb8-166a37ff51ce-attr-8-comment" class="er entityLabel"/></g><g transform="translate(20,53 )" id="entity-VerificationToken-f2fdeb0c-089a-4c8f-9611-67357ad7cdb7"><rect height="90" width="128.1171875" y="0" x="0" class="er entityBox"/><text style="dominant-baseline: middle; text-anchor: middle; font-size: 12px;" transform="translate(64.05859375,12)" y="0" x="0" id="text-entity-VerificationToken-f2fdeb0c-089a-4c8f-9611-67357ad7cdb7" class="er entityLabel">VerificationToken</text><rect height="22" width="53.6640625" y="24" x="0" class="er attributeBoxOdd"/><text style="dominant-baseline: middle; font-size: 10.2px;" transform="translate(5,35)" y="0" x="0" id="text-entity-VerificationToken-f2fdeb0c-089a-4c8f-9611-67357ad7cdb7-attr-1-type" class="er entityLabel">String</text><rect height="22" width="52.890625" y="24" x="53.6640625" class="er attributeBoxOdd"/><text style="dominant-baseline: middle; font-size: 10.2px;" transform="translate(58.6640625,35)" y="0" x="0" id="text-entity-VerificationToken-f2fdeb0c-089a-4c8f-9611-67357ad7cdb7-attr-1-name" class="er entityLabel">identifier</text><rect height="22" width="21.5625" y="24" x="106.5546875" class="er attributeBoxOdd"/><text style="dominant-baseline: middle; font-size: 10.2px;" transform="translate(111.5546875,35)" y="0" x="0" id="text-entity-VerificationToken-f2fdeb0c-089a-4c8f-9611-67357ad7cdb7-attr-1-key" class="er entityLabel">PK</text><rect height="22" width="53.6640625" y="46" x="0" class="er attributeBoxEven"/><text style="dominant-baseline: middle; font-size: 10.2px;" transform="translate(5,57)" y="0" x="0" id="text-entity-VerificationToken-f2fdeb0c-089a-4c8f-9611-67357ad7cdb7-attr-2-type" class="er entityLabel">String</text><rect height="22" width="52.890625" y="46" x="53.6640625" class="er attributeBoxEven"/><text style="dominant-baseline: middle; font-size: 10.2px;" transform="translate(58.6640625,57)" y="0" x="0" id="text-entity-VerificationToken-f2fdeb0c-089a-4c8f-9611-67357ad7cdb7-attr-2-name" class="er entityLabel">token</text><rect height="22" width="21.5625" y="46" x="106.5546875" class="er attributeBoxEven"/><text style="dominant-baseline: middle; font-size: 10.2px;" transform="translate(111.5546875,57)" y="0" x="0" id="text-entity-VerificationToken-f2fdeb0c-089a-4c8f-9611-67357ad7cdb7-attr-2-key" class="er entityLabel">PK</text><rect height="22" width="53.6640625" y="68" x="0" class="er attributeBoxOdd"/><text style="dominant-baseline: middle; font-size: 10.2px;" transform="translate(5,79)" y="0" x="0" id="text-entity-VerificationToken-f2fdeb0c-089a-4c8f-9611-67357ad7cdb7-attr-3-type" class="er entityLabel">DateTime</text><rect height="22" width="52.890625" y="68" x="53.6640625" class="er attributeBoxOdd"/><text style="dominant-baseline: middle; font-size: 10.2px;" transform="translate(58.6640625,79)" y="0" x="0" id="text-entity-VerificationToken-f2fdeb0c-089a-4c8f-9611-67357ad7cdb7-attr-3-name" class="er entityLabel">expires</text><rect height="22" width="21.5625" y="68" x="106.5546875" class="er attributeBoxOdd"/><text style="dominant-baseline: middle; font-size: 10.2px;" transform="translate(111.5546875,79)" y="0" x="0" id="text-entity-VerificationToken-f2fdeb0c-089a-4c8f-9611-67357ad7cdb7-attr-3-key" class="er entityLabel"/></g><g transform="translate(120.8984375,320 )" id="entity-Prompt-8092fe80-1519-48fa-b327-f4845cbf6b32"><rect height="112" width="132.875" y="0" x="0" class="er entityBox"/><text style="dominant-baseline: middle; text-anchor: middle; font-size: 12px;" transform="translate(66.4375,12)" y="0" x="0" id="text-entity-Prompt-8092fe80-1519-48fa-b327-f4845cbf6b32" class="er entityLabel">Prompt</text><rect height="22" width="53.6640625" y="24" x="0" class="er attributeBoxOdd"/><text style="dominant-baseline: middle; font-size: 10.2px;" transform="translate(5,35)" y="0" x="0" id="text-entity-Prompt-8092fe80-1519-48fa-b327-f4845cbf6b32-attr-1-type" class="er entityLabel">BigInt</text><rect height="22" width="57.6484375" y="24" x="53.6640625" class="er attributeBoxOdd"/><text style="dominant-baseline: middle; font-size: 10.2px;" transform="translate(58.6640625,35)" y="0" x="0" id="text-entity-Prompt-8092fe80-1519-48fa-b327-f4845cbf6b32-attr-1-name" class="er entityLabel">id</text><rect height="22" width="21.5625" y="24" x="111.3125" class="er attributeBoxOdd"/><text style="dominant-baseline: middle; font-size: 10.2px;" transform="translate(116.3125,35)" y="0" x="0" id="text-entity-Prompt-8092fe80-1519-48fa-b327-f4845cbf6b32-attr-1-key" class="er entityLabel">PK</text><rect height="22" width="53.6640625" y="46" x="0" class="er attributeBoxEven"/><text style="dominant-baseline: middle; font-size: 10.2px;" transform="translate(5,57)" y="0" x="0" id="text-entity-Prompt-8092fe80-1519-48fa-b327-f4845cbf6b32-attr-2-type" class="er entityLabel">String</text><rect height="22" width="57.6484375" y="46" x="53.6640625" class="er attributeBoxEven"/><text style="dominant-baseline: middle; font-size: 10.2px;" transform="translate(58.6640625,57)" y="0" x="0" id="text-entity-Prompt-8092fe80-1519-48fa-b327-f4845cbf6b32-attr-2-name" class="er entityLabel">text</text><rect height="22" width="21.5625" y="46" x="111.3125" class="er attributeBoxEven"/><text style="dominant-baseline: middle; font-size: 10.2px;" transform="translate(116.3125,57)" y="0" x="0" id="text-entity-Prompt-8092fe80-1519-48fa-b327-f4845cbf6b32-attr-2-key" class="er entityLabel"/><rect height="22" width="53.6640625" y="68" x="0" class="er attributeBoxOdd"/><text style="dominant-baseline: middle; font-size: 10.2px;" transform="translate(5,79)" y="0" x="0" id="text-entity-Prompt-8092fe80-1519-48fa-b327-f4845cbf6b32-attr-3-type" class="er entityLabel">DateTime</text><rect height="22" width="57.6484375" y="68" x="53.6640625" class="er attributeBoxOdd"/><text style="dominant-baseline: middle; font-size: 10.2px;" transform="translate(58.6640625,79)" y="0" x="0" id="text-entity-Prompt-8092fe80-1519-48fa-b327-f4845cbf6b32-attr-3-name" class="er entityLabel">createdAt</text><rect height="22" width="21.5625" y="68" x="111.3125" class="er attributeBoxOdd"/><text style="dominant-baseline: middle; font-size: 10.2px;" transform="translate(116.3125,79)" y="0" x="0" id="text-entity-Prompt-8092fe80-1519-48fa-b327-f4845cbf6b32-attr-3-key" class="er entityLabel"/><rect height="22" width="53.6640625" y="90" x="0" class="er attributeBoxEven"/><text style="dominant-baseline: middle; font-size: 10.2px;" transform="translate(5,101)" y="0" x="0" id="text-entity-Prompt-8092fe80-1519-48fa-b327-f4845cbf6b32-attr-4-type" class="er entityLabel">DateTime</text><rect height="22" width="57.6484375" y="90" x="53.6640625" class="er attributeBoxEven"/><text style="dominant-baseline: middle; font-size: 10.2px;" transform="translate(58.6640625,101)" y="0" x="0" id="text-entity-Prompt-8092fe80-1519-48fa-b327-f4845cbf6b32-attr-4-name" class="er entityLabel">updatedAt</text><rect height="22" width="21.5625" y="90" x="111.3125" class="er attributeBoxEven"/><text style="dominant-baseline: middle; font-size: 10.2px;" transform="translate(116.3125,101)" y="0" x="0" id="text-entity-Prompt-8092fe80-1519-48fa-b327-f4845cbf6b32-attr-4-key" class="er entityLabel"/></g><g transform="translate(248.1171875,64 )" id="entity-TagOnPrompt-774a2563-b3cc-49bb-9730-7f4469d6458e"><rect height="68" width="111.3125" y="0" x="0" class="er entityBox"/><text style="dominant-baseline: middle; text-anchor: middle; font-size: 12px;" transform="translate(55.65625,12)" y="0" x="0" id="text-entity-TagOnPrompt-774a2563-b3cc-49bb-9730-7f4469d6458e" class="er entityLabel">TagOnPrompt</text><rect height="22" width="53.6640625" y="24" x="0" class="er attributeBoxOdd"/><text style="dominant-baseline: middle; font-size: 10.2px;" transform="translate(5,35)" y="0" x="0" id="text-entity-TagOnPrompt-774a2563-b3cc-49bb-9730-7f4469d6458e-attr-1-type" class="er entityLabel">DateTime</text><rect height="22" width="57.6484375" y="24" x="53.6640625" class="er attributeBoxOdd"/><text style="dominant-baseline: middle; font-size: 10.2px;" transform="translate(58.6640625,35)" y="0" x="0" id="text-entity-TagOnPrompt-774a2563-b3cc-49bb-9730-7f4469d6458e-attr-1-name" class="er entityLabel">createdAt</text><rect height="22" width="53.6640625" y="46" x="0" class="er attributeBoxEven"/><text style="dominant-baseline: middle; font-size: 10.2px;" transform="translate(5,57)" y="0" x="0" id="text-entity-TagOnPrompt-774a2563-b3cc-49bb-9730-7f4469d6458e-attr-2-type" class="er entityLabel">DateTime</text><rect height="22" width="57.6484375" y="46" x="53.6640625" class="er attributeBoxEven"/><text style="dominant-baseline: middle; font-size: 10.2px;" transform="translate(58.6640625,57)" y="0" x="0" id="text-entity-TagOnPrompt-774a2563-b3cc-49bb-9730-7f4469d6458e-attr-2-name" class="er entityLabel">updatedAt</text></g><g transform="translate(353.7734375,320 )" id="entity-Tag-de81820a-744f-448b-98ca-1f6dbbd24152"><rect height="112" width="132.875" y="0" x="0" class="er entityBox"/><text style="dominant-baseline: middle; text-anchor: middle; font-size: 12px;" transform="translate(66.4375,12)" y="0" x="0" id="text-entity-Tag-de81820a-744f-448b-98ca-1f6dbbd24152" class="er entityLabel">Tag</text><rect height="22" width="53.6640625" y="24" x="0" class="er attributeBoxOdd"/><text style="dominant-baseline: middle; font-size: 10.2px;" transform="translate(5,35)" y="0" x="0" id="text-entity-Tag-de81820a-744f-448b-98ca-1f6dbbd24152-attr-1-type" class="er entityLabel">BigInt</text><rect height="22" width="57.6484375" y="24" x="53.6640625" class="er attributeBoxOdd"/><text style="dominant-baseline: middle; font-size: 10.2px;" transform="translate(58.6640625,35)" y="0" x="0" id="text-entity-Tag-de81820a-744f-448b-98ca-1f6dbbd24152-attr-1-name" class="er entityLabel">id</text><rect height="22" width="21.5625" y="24" x="111.3125" class="er attributeBoxOdd"/><text style="dominant-baseline: middle; font-size: 10.2px;" transform="translate(116.3125,35)" y="0" x="0" id="text-entity-Tag-de81820a-744f-448b-98ca-1f6dbbd24152-attr-1-key" class="er entityLabel">PK</text><rect height="22" width="53.6640625" y="46" x="0" class="er attributeBoxEven"/><text style="dominant-baseline: middle; font-size: 10.2px;" transform="translate(5,57)" y="0" x="0" id="text-entity-Tag-de81820a-744f-448b-98ca-1f6dbbd24152-attr-2-type" class="er entityLabel">String</text><rect height="22" width="57.6484375" y="46" x="53.6640625" class="er attributeBoxEven"/><text style="dominant-baseline: middle; font-size: 10.2px;" transform="translate(58.6640625,57)" y="0" x="0" id="text-entity-Tag-de81820a-744f-448b-98ca-1f6dbbd24152-attr-2-name" class="er entityLabel">text</text><rect height="22" width="21.5625" y="46" x="111.3125" class="er attributeBoxEven"/><text style="dominant-baseline: middle; font-size: 10.2px;" transform="translate(116.3125,57)" y="0" x="0" id="text-entity-Tag-de81820a-744f-448b-98ca-1f6dbbd24152-attr-2-key" class="er entityLabel"/><rect height="22" width="53.6640625" y="68" x="0" class="er attributeBoxOdd"/><text style="dominant-baseline: middle; font-size: 10.2px;" transform="translate(5,79)" y="0" x="0" id="text-entity-Tag-de81820a-744f-448b-98ca-1f6dbbd24152-attr-3-type" class="er entityLabel">DateTime</text><rect height="22" width="57.6484375" y="68" x="53.6640625" class="er attributeBoxOdd"/><text style="dominant-baseline: middle; font-size: 10.2px;" transform="translate(58.6640625,79)" y="0" x="0" id="text-entity-Tag-de81820a-744f-448b-98ca-1f6dbbd24152-attr-3-name" class="er entityLabel">createdAt</text><rect height="22" width="21.5625" y="68" x="111.3125" class="er attributeBoxOdd"/><text style="dominant-baseline: middle; font-size: 10.2px;" transform="translate(116.3125,79)" y="0" x="0" id="text-entity-Tag-de81820a-744f-448b-98ca-1f6dbbd24152-attr-3-key" class="er entityLabel"/><rect height="22" width="53.6640625" y="90" x="0" class="er attributeBoxEven"/><text style="dominant-baseline: middle; font-size: 10.2px;" transform="translate(5,101)" y="0" x="0" id="text-entity-Tag-de81820a-744f-448b-98ca-1f6dbbd24152-attr-4-type" class="er entityLabel">DateTime</text><rect height="22" width="57.6484375" y="90" x="53.6640625" class="er attributeBoxEven"/><text style="dominant-baseline: middle; font-size: 10.2px;" transform="translate(58.6640625,101)" y="0" x="0" id="text-entity-Tag-de81820a-744f-448b-98ca-1f6dbbd24152-attr-4-name" class="er entityLabel">updatedAt</text><rect height="22" width="21.5625" y="90" x="111.3125" class="er attributeBoxEven"/><text style="dominant-baseline: middle; font-size: 10.2px;" transform="translate(116.3125,101)" y="0" x="0" id="text-entity-Tag-de81820a-744f-448b-98ca-1f6dbbd24152-attr-4-key" class="er entityLabel"/></g><g transform="translate(584.22265625,20 )" id="entity-Journal-1e4e4046-c87d-47f1-836f-58037cfeecb7"><rect height="156" width="197.8671875" y="0" x="0" class="er entityBox"/><text style="dominant-baseline: middle; text-anchor: middle; font-size: 12px;" transform="translate(98.93359375,12)" y="0" x="0" id="text-entity-Journal-1e4e4046-c87d-47f1-836f-58037cfeecb7" class="er entityLabel">Journal</text><rect height="22" width="71.875" y="24" x="0" class="er attributeBoxOdd"/><text style="dominant-baseline: middle; font-size: 10.2px;" transform="translate(5,35)" y="0" x="0" id="text-entity-Journal-1e4e4046-c87d-47f1-836f-58037cfeecb7-attr-1-type" class="er entityLabel">BigInt</text><rect height="22" width="57.6484375" y="24" x="71.875" class="er attributeBoxOdd"/><text style="dominant-baseline: middle; font-size: 10.2px;" transform="translate(76.875,35)" y="0" x="0" id="text-entity-Journal-1e4e4046-c87d-47f1-836f-58037cfeecb7-attr-1-name" class="er entityLabel">id</text><rect height="22" width="21.5625" y="24" x="129.5234375" class="er attributeBoxOdd"/><text style="dominant-baseline: middle; font-size: 10.2px;" transform="translate(134.5234375,35)" y="0" x="0" id="text-entity-Journal-1e4e4046-c87d-47f1-836f-58037cfeecb7-attr-1-key" class="er entityLabel">PK</text><rect height="22" width="46.78125" y="24" x="151.0859375" class="er attributeBoxOdd"/><text style="dominant-baseline: middle; font-size: 10.2px;" transform="translate(156.0859375,35)" y="0" x="0" id="text-entity-Journal-1e4e4046-c87d-47f1-836f-58037cfeecb7-attr-1-comment" class="er entityLabel"/><rect height="22" width="71.875" y="46" x="0" class="er attributeBoxEven"/><text style="dominant-baseline: middle; font-size: 10.2px;" transform="translate(5,57)" y="0" x="0" id="text-entity-Journal-1e4e4046-c87d-47f1-836f-58037cfeecb7-attr-2-type" class="er entityLabel">Bytes</text><rect height="22" width="57.6484375" y="46" x="71.875" class="er attributeBoxEven"/><text style="dominant-baseline: middle; font-size: 10.2px;" transform="translate(76.875,57)" y="0" x="0" id="text-entity-Journal-1e4e4046-c87d-47f1-836f-58037cfeecb7-attr-2-name" class="er entityLabel">ciphertext</text><rect height="22" width="21.5625" y="46" x="129.5234375" class="er attributeBoxEven"/><text style="dominant-baseline: middle; font-size: 10.2px;" transform="translate(134.5234375,57)" y="0" x="0" id="text-entity-Journal-1e4e4046-c87d-47f1-836f-58037cfeecb7-attr-2-key" class="er entityLabel"/><rect height="22" width="46.78125" y="46" x="151.0859375" class="er attributeBoxEven"/><text style="dominant-baseline: middle; font-size: 10.2px;" transform="translate(156.0859375,57)" y="0" x="0" id="text-entity-Journal-1e4e4046-c87d-47f1-836f-58037cfeecb7-attr-2-comment" class="er entityLabel">nullable</text><rect height="22" width="71.875" y="68" x="0" class="er attributeBoxOdd"/><text style="dominant-baseline: middle; font-size: 10.2px;" transform="translate(5,79)" y="0" x="0" id="text-entity-Journal-1e4e4046-c87d-47f1-836f-58037cfeecb7-attr-3-type" class="er entityLabel">Bytes</text><rect height="22" width="57.6484375" y="68" x="71.875" class="er attributeBoxOdd"/><text style="dominant-baseline: middle; font-size: 10.2px;" transform="translate(76.875,79)" y="0" x="0" id="text-entity-Journal-1e4e4046-c87d-47f1-836f-58037cfeecb7-attr-3-name" class="er entityLabel">iv</text><rect height="22" width="21.5625" y="68" x="129.5234375" class="er attributeBoxOdd"/><text style="dominant-baseline: middle; font-size: 10.2px;" transform="translate(134.5234375,79)" y="0" x="0" id="text-entity-Journal-1e4e4046-c87d-47f1-836f-58037cfeecb7-attr-3-key" class="er entityLabel"/><rect height="22" width="46.78125" y="68" x="151.0859375" class="er attributeBoxOdd"/><text style="dominant-baseline: middle; font-size: 10.2px;" transform="translate(156.0859375,79)" y="0" x="0" id="text-entity-Journal-1e4e4046-c87d-47f1-836f-58037cfeecb7-attr-3-comment" class="er entityLabel">nullable</text><rect height="22" width="71.875" y="90" x="0" class="er attributeBoxEven"/><text style="dominant-baseline: middle; font-size: 10.2px;" transform="translate(5,101)" y="0" x="0" id="text-entity-Journal-1e4e4046-c87d-47f1-836f-58037cfeecb7-attr-4-type" class="er entityLabel">JournalStatus</text><rect height="22" width="57.6484375" y="90" x="71.875" class="er attributeBoxEven"/><text style="dominant-baseline: middle; font-size: 10.2px;" transform="translate(76.875,101)" y="0" x="0" id="text-entity-Journal-1e4e4046-c87d-47f1-836f-58037cfeecb7-attr-4-name" class="er entityLabel">status</text><rect height="22" width="21.5625" y="90" x="129.5234375" class="er attributeBoxEven"/><text style="dominant-baseline: middle; font-size: 10.2px;" transform="translate(134.5234375,101)" y="0" x="0" id="text-entity-Journal-1e4e4046-c87d-47f1-836f-58037cfeecb7-attr-4-key" class="er entityLabel"/><rect height="22" width="46.78125" y="90" x="151.0859375" class="er attributeBoxEven"/><text style="dominant-baseline: middle; font-size: 10.2px;" transform="translate(156.0859375,101)" y="0" x="0" id="text-entity-Journal-1e4e4046-c87d-47f1-836f-58037cfeecb7-attr-4-comment" class="er entityLabel"/><rect height="22" width="71.875" y="112" x="0" class="er attributeBoxOdd"/><text style="dominant-baseline: middle; font-size: 10.2px;" transform="translate(5,123)" y="0" x="0" id="text-entity-Journal-1e4e4046-c87d-47f1-836f-58037cfeecb7-attr-5-type" class="er entityLabel">DateTime</text><rect height="22" width="57.6484375" y="112" x="71.875" class="er attributeBoxOdd"/><text style="dominant-baseline: middle; font-size: 10.2px;" transform="translate(76.875,123)" y="0" x="0" id="text-entity-Journal-1e4e4046-c87d-47f1-836f-58037cfeecb7-attr-5-name" class="er entityLabel">createdAt</text><rect height="22" width="21.5625" y="112" x="129.5234375" class="er attributeBoxOdd"/><text style="dominant-baseline: middle; font-size: 10.2px;" transform="translate(134.5234375,123)" y="0" x="0" id="text-entity-Journal-1e4e4046-c87d-47f1-836f-58037cfeecb7-attr-5-key" class="er entityLabel"/><rect height="22" width="46.78125" y="112" x="151.0859375" class="er attributeBoxOdd"/><text style="dominant-baseline: middle; font-size: 10.2px;" transform="translate(156.0859375,123)" y="0" x="0" id="text-entity-Journal-1e4e4046-c87d-47f1-836f-58037cfeecb7-attr-5-comment" class="er entityLabel"/><rect height="22" width="71.875" y="134" x="0" class="er attributeBoxEven"/><text style="dominant-baseline: middle; font-size: 10.2px;" transform="translate(5,145)" y="0" x="0" id="text-entity-Journal-1e4e4046-c87d-47f1-836f-58037cfeecb7-attr-6-type" class="er entityLabel">DateTime</text><rect height="22" width="57.6484375" y="134" x="71.875" class="er attributeBoxEven"/><text style="dominant-baseline: middle; font-size: 10.2px;" transform="translate(76.875,145)" y="0" x="0" id="text-entity-Journal-1e4e4046-c87d-47f1-836f-58037cfeecb7-attr-6-name" class="er entityLabel">updatedAt</text><rect height="22" width="21.5625" y="134" x="129.5234375" class="er attributeBoxEven"/><text style="dominant-baseline: middle; font-size: 10.2px;" transform="translate(134.5234375,145)" y="0" x="0" id="text-entity-Journal-1e4e4046-c87d-47f1-836f-58037cfeecb7-attr-6-key" class="er entityLabel"/><rect height="22" width="46.78125" y="134" x="151.0859375" class="er attributeBoxEven"/><text style="dominant-baseline: middle; font-size: 10.2px;" transform="translate(156.0859375,145)" y="0" x="0" id="text-entity-Journal-1e4e4046-c87d-47f1-836f-58037cfeecb7-attr-6-comment" class="er entityLabel"/></g><rect height="14" width="39.1953125" y="202.47828674316406" x="153.5049285888672" class="er relationshipLabelBox"/><text style="text-anchor: middle; dominant-baseline: middle; font-size: 12px;" y="209.47828674316406" x="173.1025848388672" id="rel1" class="er relationshipLabel">prompt</text><rect height="14" width="17.0859375" y="208.94569396972656" x="392.3782958984375" class="er relationshipLabelBox"/><text style="text-anchor: middle; dominant-baseline: middle; font-size: 12px;" y="215.94569396972656" x="400.9212646484375" id="rel2" class="er relationshipLabel">tag</text><rect height="14" width="35.28125" y="219" x="665.515625" class="er relationshipLabelBox"/><text style="text-anchor: middle; dominant-baseline: middle; font-size: 12px;" y="226" x="683.15625" id="rel3" class="er relationshipLabel">author</text><rect height="14" width="39.1953125" y="185.95236206054688" x="358.16162109375" class="er relationshipLabelBox"/><text style="text-anchor: middle; dominant-baseline: middle; font-size: 12px;" y="192.95236206054688" x="377.75927734375" id="rel4" class="er relationshipLabel">prompt</text><rect height="14" width="66.1171875" y="208.08493041992188" x="857.9505615234375" class="er relationshipLabelBox"/><text style="text-anchor: middle; dominant-baseline: middle; font-size: 12px;" y="215.08493041992188" x="891.0091552734375" id="rel5" class="er relationshipLabel">enum:status</text></svg>