<svg aria-roledescription="er" viewBox="0 0 1044.84375 518" style="max-width: 1044.84px; background-color: white;" xmlns:xlink="http://www.w3.org/1999/xlink" xmlns="http://www.w3.org/2000/svg" width="100%" id="mermaid-0"><style>#mermaid-0{font-family:"trebuchet ms",verdana,arial,sans-serif;font-size:16px;fill:#000000;}#mermaid-0 .error-icon{fill:#552222;}#mermaid-0 .error-text{fill:#552222;stroke:#552222;}#mermaid-0 .edge-thickness-normal{stroke-width:2px;}#mermaid-0 .edge-thickness-thick{stroke-width:3.5px;}#mermaid-0 .edge-pattern-solid{stroke-dasharray:0;}#mermaid-0 .edge-pattern-dashed{stroke-dasharray:3;}#mermaid-0 .edge-pattern-dotted{stroke-dasharray:2;}#mermaid-0 .marker{fill:#000000;stroke:#000000;}#mermaid-0 .marker.cross{stroke:#000000;}#mermaid-0 svg{font-family:"trebuchet ms",verdana,arial,sans-serif;font-size:16px;}#mermaid-0 .entityBox{fill:#cde498;stroke:#13540c;}#mermaid-0 .attributeBoxOdd{fill:#ffffff;stroke:#13540c;}#mermaid-0 .attributeBoxEven{fill:#f2f2f2;stroke:#13540c;}#mermaid-0 .relationshipLabelBox{fill:hsl(78.1578947368, 58.4615384615%, 84.5098039216%);opacity:0.7;background-color:hsl(78.1578947368, 58.4615384615%, 84.5098039216%);}#mermaid-0 .relationshipLabelBox rect{opacity:0.5;}#mermaid-0 .relationshipLine{stroke:#000000;}#mermaid-0 .entityTitleText{text-anchor:middle;font-size:18px;fill:#000000;}#mermaid-0 :root{--mermaid-font-family:"trebuchet ms",verdana,arial,sans-serif;}</style><g/><defs><marker orient="auto" markerHeight="18" markerWidth="18" refY="9" refX="0" id="ONLY_ONE_START"><path d="M9,0 L9,18 M15,0 L15,18" fill="none" stroke="gray"/></marker></defs><defs><marker orient="auto" markerHeight="18" markerWidth="18" refY="9" refX="18" id="ONLY_ONE_END"><path d="M3,0 L3,18 M9,0 L9,18" fill="none" stroke="gray"/></marker></defs><defs><marker orient="auto" markerHeight="18" markerWidth="30" refY="9" refX="0" id="ZERO_OR_ONE_START"><circle r="6" cy="9" cx="21" fill="white" stroke="gray"/><path d="M9,0 L9,18" fill="none" stroke="gray"/></marker></defs><defs><marker orient="auto" markerHeight="18" markerWidth="30" refY="9" refX="30" id="ZERO_OR_ONE_END"><circle r="6" cy="9" cx="9" fill="white" stroke="gray"/><path d="M21,0 L21,18" fill="none" stroke="gray"/></marker></defs><defs><marker orient="auto" markerHeight="36" markerWidth="45" refY="18" refX="18" id="ONE_OR_MORE_START"><path d="M0,18 Q 18,0 36,18 Q 18,36 0,18 M42,9 L42,27" fill="none" stroke="gray"/></marker></defs><defs><marker orient="auto" markerHeight="36" markerWidth="45" refY="18" refX="27" id="ONE_OR_MORE_END"><path d="M3,9 L3,27 M9,18 Q27,0 45,18 Q27,36 9,18" fill="none" stroke="gray"/></marker></defs><defs><marker orient="auto" markerHeight="36" markerWidth="57" refY="18" refX="18" id="ZERO_OR_MORE_START"><circle r="6" cy="18" cx="48" fill="white" stroke="gray"/><path d="M0,18 Q18,0 36,18 Q18,36 0,18" fill="none" stroke="gray"/></marker></defs><defs><marker orient="auto" markerHeight="36" markerWidth="57" refY="18" refX="39" id="ZERO_OR_MORE_END"><circle r="6" cy="18" cx="9" fill="white" stroke="gray"/><path d="M21,18 Q39,0 57,18 Q39,36 21,18" fill="none" stroke="gray"/></marker></defs><path style="stroke: gray; fill: none;" marker-start="url(#ZERO_OR_MORE_START)" marker-end="url(#ONLY_ONE_END)" d="M251.92987060546875,143L232.67853800455728,156.83333333333334C213.42720540364584,170.66666666666666,174.9245402018229,198.33333333333334,160.53863203155328,227.83333333333334C146.15272386128365,257.3333333333333,155.8835727225673,288.6666666666667,160.7489971532091,304.3333333333333L165.61442158385094,320" class="er relationshipLine"/><path style="stroke: gray; fill: none;" marker-start="url(#ZERO_OR_MORE_START)" marker-end="url(#ONLY_ONE_END)" d="M359.60137939453125,143L373.4490661621094,156.83333333333334C387.2967529296875,170.66666666666666,414.99212646484375,198.33333333333334,428.8398132324219,229.66666666666666C442.6875,261,442.6875,296,442.6875,313.5L442.6875,331" class="er relationshipLine"/><path style="stroke: gray; fill: none;" marker-start="url(#ZERO_OR_MORE_START)" marker-end="url(#ONLY_ONE_END)" d="M715.58984375,176L715.58984375,184.33333333333334C715.58984375,192.66666666666666,715.58984375,209.33333333333334,715.58984375,226C715.58984375,242.66666666666666,715.58984375,259.3333333333333,715.58984375,267.6666666666667L715.58984375,276" class="er relationshipLine"/><path style="stroke: gray; fill: none;" marker-start="url(#ZERO_OR_MORE_START)" marker-end="url(#ZERO_OR_ONE_END)" d="M616.65625,126.07652535400338L557.97265625,142.7304377950028C499.2890625,159.38435023600223,381.921875,192.69217511800113,315.6352953545549,225.01275422566724C249.3487157091097,257.3333333333333,234.14274391821945,288.6666666666667,226.53975802277432,304.3333333333333L218.9367721273292,320" class="er relationshipLine"/><path style="stroke: gray; fill: none;" marker-start="url(#ZERO_OR_ONE_START)" marker-end="url(#ONLY_ONE_END)" d="M814.5234375,147.11010119372236L841.0110677083334,160.2584176614353C867.4986979166666,173.40673412914825,920.4739583333334,199.7033670645741,946.9615885416666,232.18501686562038C973.44921875,264.6666666666667,973.44921875,303.3333333333333,973.44921875,322.6666666666667L973.44921875,342" class="er relationshipLine"/><g transform="translate(922.0546875,342 )" id="entity-JournalStatus-1bbcff0e-2d38-489b-beb2-40a2624de2f9"><rect height="90" width="102.7890625" y="0" x="0" class="er entityBox"/><text style="dominant-baseline: middle; text-anchor: middle; font-size: 12px;" transform="translate(51.39453125,12)" y="0" x="0" id="text-entity-JournalStatus-1bbcff0e-2d38-489b-beb2-40a2624de2f9" class="er entityLabel">JournalStatus</text><rect height="22" width="51.39453125" y="24" x="0" class="er attributeBoxOdd"/><text style="dominant-baseline: middle; font-size: 10.2px;" transform="translate(5,35)" y="0" x="0" id="text-entity-JournalStatus-1bbcff0e-2d38-489b-beb2-40a2624de2f9-attr-1-type" class="er entityLabel">ACTIVE</text><rect height="22" width="51.39453125" y="24" x="51.39453125" class="er attributeBoxOdd"/><text style="dominant-baseline: middle; font-size: 10.2px;" transform="translate(56.39453125,35)" y="0" x="0" id="text-entity-JournalStatus-1bbcff0e-2d38-489b-beb2-40a2624de2f9-attr-1-name" class="er entityLabel">ACTIVE</text><rect height="22" width="51.39453125" y="46" x="0" class="er attributeBoxEven"/><text style="dominant-baseline: middle; font-size: 10.2px;" transform="translate(5,57)" y="0" x="0" id="text-entity-JournalStatus-1bbcff0e-2d38-489b-beb2-40a2624de2f9-attr-2-type" class="er entityLabel">TRASHED</text><rect height="22" width="51.39453125" y="46" x="51.39453125" class="er attributeBoxEven"/><text style="dominant-baseline: middle; font-size: 10.2px;" transform="translate(56.39453125,57)" y="0" x="0" id="text-entity-JournalStatus-1bbcff0e-2d38-489b-beb2-40a2624de2f9-attr-2-name" class="er entityLabel">TRASHED</text><rect height="22" width="51.39453125" y="68" x="0" class="er attributeBoxOdd"/><text style="dominant-baseline: middle; font-size: 10.2px;" transform="translate(5,79)" y="0" x="0" id="text-entity-JournalStatus-1bbcff0e-2d38-489b-beb2-40a2624de2f9-attr-3-type" class="er entityLabel">DELETED</text><rect height="22" width="51.39453125" y="68" x="51.39453125" class="er attributeBoxOdd"/><text style="dominant-baseline: middle; font-size: 10.2px;" transform="translate(56.39453125,79)" y="0" x="0" id="text-entity-JournalStatus-1bbcff0e-2d38-489b-beb2-40a2624de2f9-attr-3-name" class="er entityLabel">DELETED</text></g><g transform="translate(609.125,276 )" id="entity-User-51a79b34-bf90-4fc5-adf8-3000cc60e7fe"><rect height="222" width="212.9296875" y="0" x="0" class="er entityBox"/><text style="dominant-baseline: middle; text-anchor: middle; font-size: 12px;" transform="translate(106.46484375,12)" y="0" x="0" id="text-entity-User-51a79b34-bf90-4fc5-adf8-3000cc60e7fe" class="er entityLabel">User</text><rect height="22" width="53.6640625" y="24" x="0" class="er attributeBoxOdd"/><text style="dominant-baseline: middle; font-size: 10.2px;" transform="translate(5,35)" y="0" x="0" id="text-entity-User-51a79b34-bf90-4fc5-adf8-3000cc60e7fe-attr-1-type" class="er entityLabel">String</text><rect height="22" width="90.921875" y="24" x="53.6640625" class="er attributeBoxOdd"/><text style="dominant-baseline: middle; font-size: 10.2px;" transform="translate(58.6640625,35)" y="0" x="0" id="text-entity-User-51a79b34-bf90-4fc5-adf8-3000cc60e7fe-attr-1-name" class="er entityLabel">z_id</text><rect height="22" width="21.5625" y="24" x="144.5859375" class="er attributeBoxOdd"/><text style="dominant-baseline: middle; font-size: 10.2px;" transform="translate(149.5859375,35)" y="0" x="0" id="text-entity-User-51a79b34-bf90-4fc5-adf8-3000cc60e7fe-attr-1-key" class="er entityLabel">PK</text><rect height="22" width="46.78125" y="24" x="166.1484375" class="er attributeBoxOdd"/><text style="dominant-baseline: middle; font-size: 10.2px;" transform="translate(171.1484375,35)" y="0" x="0" id="text-entity-User-51a79b34-bf90-4fc5-adf8-3000cc60e7fe-attr-1-comment" class="er entityLabel"/><rect height="22" width="53.6640625" y="46" x="0" class="er attributeBoxEven"/><text style="dominant-baseline: middle; font-size: 10.2px;" transform="translate(5,57)" y="0" x="0" id="text-entity-User-51a79b34-bf90-4fc5-adf8-3000cc60e7fe-attr-2-type" class="er entityLabel">String</text><rect height="22" width="90.921875" y="46" x="53.6640625" class="er attributeBoxEven"/><text style="dominant-baseline: middle; font-size: 10.2px;" transform="translate(58.6640625,57)" y="0" x="0" id="text-entity-User-51a79b34-bf90-4fc5-adf8-3000cc60e7fe-attr-2-name" class="er entityLabel">name</text><rect height="22" width="21.5625" y="46" x="144.5859375" class="er attributeBoxEven"/><text style="dominant-baseline: middle; font-size: 10.2px;" transform="translate(149.5859375,57)" y="0" x="0" id="text-entity-User-51a79b34-bf90-4fc5-adf8-3000cc60e7fe-attr-2-key" class="er entityLabel"/><rect height="22" width="46.78125" y="46" x="166.1484375" class="er attributeBoxEven"/><text style="dominant-baseline: middle; font-size: 10.2px;" transform="translate(171.1484375,57)" y="0" x="0" id="text-entity-User-51a79b34-bf90-4fc5-adf8-3000cc60e7fe-attr-2-comment" class="er entityLabel">nullable</text><rect height="22" width="53.6640625" y="68" x="0" class="er attributeBoxOdd"/><text style="dominant-baseline: middle; font-size: 10.2px;" transform="translate(5,79)" y="0" x="0" id="text-entity-User-51a79b34-bf90-4fc5-adf8-3000cc60e7fe-attr-3-type" class="er entityLabel">String</text><rect height="22" width="90.921875" y="68" x="53.6640625" class="er attributeBoxOdd"/><text style="dominant-baseline: middle; font-size: 10.2px;" transform="translate(58.6640625,79)" y="0" x="0" id="text-entity-User-51a79b34-bf90-4fc5-adf8-3000cc60e7fe-attr-3-name" class="er entityLabel">email</text><rect height="22" width="21.5625" y="68" x="144.5859375" class="er attributeBoxOdd"/><text style="dominant-baseline: middle; font-size: 10.2px;" transform="translate(149.5859375,79)" y="0" x="0" id="text-entity-User-51a79b34-bf90-4fc5-adf8-3000cc60e7fe-attr-3-key" class="er entityLabel"/><rect height="22" width="46.78125" y="68" x="166.1484375" class="er attributeBoxOdd"/><text style="dominant-baseline: middle; font-size: 10.2px;" transform="translate(171.1484375,79)" y="0" x="0" id="text-entity-User-51a79b34-bf90-4fc5-adf8-3000cc60e7fe-attr-3-comment" class="er entityLabel">nullable</text><rect height="22" width="53.6640625" y="90" x="0" class="er attributeBoxEven"/><text style="dominant-baseline: middle; font-size: 10.2px;" transform="translate(5,101)" y="0" x="0" id="text-entity-User-51a79b34-bf90-4fc5-adf8-3000cc60e7fe-attr-4-type" class="er entityLabel">DateTime</text><rect height="22" width="90.921875" y="90" x="53.6640625" class="er attributeBoxEven"/><text style="dominant-baseline: middle; font-size: 10.2px;" transform="translate(58.6640625,101)" y="0" x="0" id="text-entity-User-51a79b34-bf90-4fc5-adf8-3000cc60e7fe-attr-4-name" class="er entityLabel">emailVerified</text><rect height="22" width="21.5625" y="90" x="144.5859375" class="er attributeBoxEven"/><text style="dominant-baseline: middle; font-size: 10.2px;" transform="translate(149.5859375,101)" y="0" x="0" id="text-entity-User-51a79b34-bf90-4fc5-adf8-3000cc60e7fe-attr-4-key" class="er entityLabel"/><rect height="22" width="46.78125" y="90" x="166.1484375" class="er attributeBoxEven"/><text style="dominant-baseline: middle; font-size: 10.2px;" transform="translate(171.1484375,101)" y="0" x="0" id="text-entity-User-51a79b34-bf90-4fc5-adf8-3000cc60e7fe-attr-4-comment" class="er entityLabel">nullable</text><rect height="22" width="53.6640625" y="112" x="0" class="er attributeBoxOdd"/><text style="dominant-baseline: middle; font-size: 10.2px;" transform="translate(5,123)" y="0" x="0" id="text-entity-User-51a79b34-bf90-4fc5-adf8-3000cc60e7fe-attr-5-type" class="er entityLabel">String</text><rect height="22" width="90.921875" y="112" x="53.6640625" class="er attributeBoxOdd"/><text style="dominant-baseline: middle; font-size: 10.2px;" transform="translate(58.6640625,123)" y="0" x="0" id="text-entity-User-51a79b34-bf90-4fc5-adf8-3000cc60e7fe-attr-5-name" class="er entityLabel">image</text><rect height="22" width="21.5625" y="112" x="144.5859375" class="er attributeBoxOdd"/><text style="dominant-baseline: middle; font-size: 10.2px;" transform="translate(149.5859375,123)" y="0" x="0" id="text-entity-User-51a79b34-bf90-4fc5-adf8-3000cc60e7fe-attr-5-key" class="er entityLabel"/><rect height="22" width="46.78125" y="112" x="166.1484375" class="er attributeBoxOdd"/><text style="dominant-baseline: middle; font-size: 10.2px;" transform="translate(171.1484375,123)" y="0" x="0" id="text-entity-User-51a79b34-bf90-4fc5-adf8-3000cc60e7fe-attr-5-comment" class="er entityLabel">nullable</text><rect height="22" width="53.6640625" y="134" x="0" class="er attributeBoxEven"/><text style="dominant-baseline: middle; font-size: 10.2px;" transform="translate(5,145)" y="0" x="0" id="text-entity-User-51a79b34-bf90-4fc5-adf8-3000cc60e7fe-attr-6-type" class="er entityLabel">Boolean</text><rect height="22" width="90.921875" y="134" x="53.6640625" class="er attributeBoxEven"/><text style="dominant-baseline: middle; font-size: 10.2px;" transform="translate(58.6640625,145)" y="0" x="0" id="text-entity-User-51a79b34-bf90-4fc5-adf8-3000cc60e7fe-attr-6-name" class="er entityLabel">isSubscribedPOTD</text><rect height="22" width="21.5625" y="134" x="144.5859375" class="er attributeBoxEven"/><text style="dominant-baseline: middle; font-size: 10.2px;" transform="translate(149.5859375,145)" y="0" x="0" id="text-entity-User-51a79b34-bf90-4fc5-adf8-3000cc60e7fe-attr-6-key" class="er entityLabel"/><rect height="22" width="46.78125" y="134" x="166.1484375" class="er attributeBoxEven"/><text style="dominant-baseline: middle; font-size: 10.2px;" transform="translate(171.1484375,145)" y="0" x="0" id="text-entity-User-51a79b34-bf90-4fc5-adf8-3000cc60e7fe-attr-6-comment" class="er entityLabel"/><rect height="22" width="53.6640625" y="156" x="0" class="er attributeBoxOdd"/><text style="dominant-baseline: middle; font-size: 10.2px;" transform="translate(5,167)" y="0" x="0" id="text-entity-User-51a79b34-bf90-4fc5-adf8-3000cc60e7fe-attr-7-type" class="er entityLabel">Bytes</text><rect height="22" width="90.921875" y="156" x="53.6640625" class="er attributeBoxOdd"/><text style="dominant-baseline: middle; font-size: 10.2px;" transform="translate(58.6640625,167)" y="0" x="0" id="text-entity-User-51a79b34-bf90-4fc5-adf8-3000cc60e7fe-attr-7-name" class="er entityLabel">salt</text><rect height="22" width="21.5625" y="156" x="144.5859375" class="er attributeBoxOdd"/><text style="dominant-baseline: middle; font-size: 10.2px;" transform="translate(149.5859375,167)" y="0" x="0" id="text-entity-User-51a79b34-bf90-4fc5-adf8-3000cc60e7fe-attr-7-key" class="er entityLabel"/><rect height="22" width="46.78125" y="156" x="166.1484375" class="er attributeBoxOdd"/><text style="dominant-baseline: middle; font-size: 10.2px;" transform="translate(171.1484375,167)" y="0" x="0" id="text-entity-User-51a79b34-bf90-4fc5-adf8-3000cc60e7fe-attr-7-comment" class="er entityLabel">nullable</text><rect height="22" width="53.6640625" y="178" x="0" class="er attributeBoxEven"/><text style="dominant-baseline: middle; font-size: 10.2px;" transform="translate(5,189)" y="0" x="0" id="text-entity-User-51a79b34-bf90-4fc5-adf8-3000cc60e7fe-attr-8-type" class="er entityLabel">DateTime</text><rect height="22" width="90.921875" y="178" x="53.6640625" class="er attributeBoxEven"/><text style="dominant-baseline: middle; font-size: 10.2px;" transform="translate(58.6640625,189)" y="0" x="0" id="text-entity-User-51a79b34-bf90-4fc5-adf8-3000cc60e7fe-attr-8-name" class="er entityLabel">createdAt</text><rect height="22" width="21.5625" y="178" x="144.5859375" class="er attributeBoxEven"/><text style="dominant-baseline: middle; font-size: 10.2px;" transform="translate(149.5859375,189)" y="0" x="0" id="text-entity-User-51a79b34-bf90-4fc5-adf8-3000cc60e7fe-attr-8-key" class="er entityLabel"/><rect height="22" width="46.78125" y="178" x="166.1484375" class="er attributeBoxEven"/><text style="dominant-baseline: middle; font-size: 10.2px;" transform="translate(171.1484375,189)" y="0" x="0" id="text-entity-User-51a79b34-bf90-4fc5-adf8-3000cc60e7fe-attr-8-comment" class="er entityLabel"/><rect height="22" width="53.6640625" y="200" x="0" class="er attributeBoxOdd"/><text style="dominant-baseline: middle; font-size: 10.2px;" transform="translate(5,211)" y="0" x="0" id="text-entity-User-51a79b34-bf90-4fc5-adf8-3000cc60e7fe-attr-9-type" class="er entityLabel">DateTime</text><rect height="22" width="90.921875" y="200" x="53.6640625" class="er attributeBoxOdd"/><text style="dominant-baseline: middle; font-size: 10.2px;" transform="translate(58.6640625,211)" y="0" x="0" id="text-entity-User-51a79b34-bf90-4fc5-adf8-3000cc60e7fe-attr-9-name" class="er entityLabel">updatedAt</text><rect height="22" width="21.5625" y="200" x="144.5859375" class="er attributeBoxOdd"/><text style="dominant-baseline: middle; font-size: 10.2px;" transform="translate(149.5859375,211)" y="0" x="0" id="text-entity-User-51a79b34-bf90-4fc5-adf8-3000cc60e7fe-attr-9-key" class="er entityLabel"/><rect height="22" width="46.78125" y="200" x="166.1484375" class="er attributeBoxOdd"/><text style="dominant-baseline: middle; font-size: 10.2px;" transform="translate(171.1484375,211)" y="0" x="0" id="text-entity-User-51a79b34-bf90-4fc5-adf8-3000cc60e7fe-attr-9-comment" class="er entityLabel"/></g><g transform="translate(20,42 )" id="entity-VerificationToken-01cc6b80-d4d1-4365-82f9-9b20c8261952"><rect height="112" width="128.1171875" y="0" x="0" class="er entityBox"/><text style="dominant-baseline: middle; text-anchor: middle; font-size: 12px;" transform="translate(64.05859375,12)" y="0" x="0" id="text-entity-VerificationToken-01cc6b80-d4d1-4365-82f9-9b20c8261952" class="er entityLabel">VerificationToken</text><rect height="22" width="53.6640625" y="24" x="0" class="er attributeBoxOdd"/><text style="dominant-baseline: middle; font-size: 10.2px;" transform="translate(5,35)" y="0" x="0" id="text-entity-VerificationToken-01cc6b80-d4d1-4365-82f9-9b20c8261952-attr-1-type" class="er entityLabel">String</text><rect height="22" width="52.890625" y="24" x="53.6640625" class="er attributeBoxOdd"/><text style="dominant-baseline: middle; font-size: 10.2px;" transform="translate(58.6640625,35)" y="0" x="0" id="text-entity-VerificationToken-01cc6b80-d4d1-4365-82f9-9b20c8261952-attr-1-name" class="er entityLabel">z_id</text><rect height="22" width="21.5625" y="24" x="106.5546875" class="er attributeBoxOdd"/><text style="dominant-baseline: middle; font-size: 10.2px;" transform="translate(111.5546875,35)" y="0" x="0" id="text-entity-VerificationToken-01cc6b80-d4d1-4365-82f9-9b20c8261952-attr-1-key" class="er entityLabel">PK</text><rect height="22" width="53.6640625" y="46" x="0" class="er attributeBoxEven"/><text style="dominant-baseline: middle; font-size: 10.2px;" transform="translate(5,57)" y="0" x="0" id="text-entity-VerificationToken-01cc6b80-d4d1-4365-82f9-9b20c8261952-attr-2-type" class="er entityLabel">String</text><rect height="22" width="52.890625" y="46" x="53.6640625" class="er attributeBoxEven"/><text style="dominant-baseline: middle; font-size: 10.2px;" transform="translate(58.6640625,57)" y="0" x="0" id="text-entity-VerificationToken-01cc6b80-d4d1-4365-82f9-9b20c8261952-attr-2-name" class="er entityLabel">identifier</text><rect height="22" width="21.5625" y="46" x="106.5546875" class="er attributeBoxEven"/><text style="dominant-baseline: middle; font-size: 10.2px;" transform="translate(111.5546875,57)" y="0" x="0" id="text-entity-VerificationToken-01cc6b80-d4d1-4365-82f9-9b20c8261952-attr-2-key" class="er entityLabel"/><rect height="22" width="53.6640625" y="68" x="0" class="er attributeBoxOdd"/><text style="dominant-baseline: middle; font-size: 10.2px;" transform="translate(5,79)" y="0" x="0" id="text-entity-VerificationToken-01cc6b80-d4d1-4365-82f9-9b20c8261952-attr-3-type" class="er entityLabel">String</text><rect height="22" width="52.890625" y="68" x="53.6640625" class="er attributeBoxOdd"/><text style="dominant-baseline: middle; font-size: 10.2px;" transform="translate(58.6640625,79)" y="0" x="0" id="text-entity-VerificationToken-01cc6b80-d4d1-4365-82f9-9b20c8261952-attr-3-name" class="er entityLabel">token</text><rect height="22" width="21.5625" y="68" x="106.5546875" class="er attributeBoxOdd"/><text style="dominant-baseline: middle; font-size: 10.2px;" transform="translate(111.5546875,79)" y="0" x="0" id="text-entity-VerificationToken-01cc6b80-d4d1-4365-82f9-9b20c8261952-attr-3-key" class="er entityLabel"/><rect height="22" width="53.6640625" y="90" x="0" class="er attributeBoxEven"/><text style="dominant-baseline: middle; font-size: 10.2px;" transform="translate(5,101)" y="0" x="0" id="text-entity-VerificationToken-01cc6b80-d4d1-4365-82f9-9b20c8261952-attr-4-type" class="er entityLabel">DateTime</text><rect height="22" width="52.890625" y="90" x="53.6640625" class="er attributeBoxEven"/><text style="dominant-baseline: middle; font-size: 10.2px;" transform="translate(58.6640625,101)" y="0" x="0" id="text-entity-VerificationToken-01cc6b80-d4d1-4365-82f9-9b20c8261952-attr-4-name" class="er entityLabel">expires</text><rect height="22" width="21.5625" y="90" x="106.5546875" class="er attributeBoxEven"/><text style="dominant-baseline: middle; font-size: 10.2px;" transform="translate(111.5546875,101)" y="0" x="0" id="text-entity-VerificationToken-01cc6b80-d4d1-4365-82f9-9b20c8261952-attr-4-key" class="er entityLabel"/></g><g transform="translate(96.59375,320 )" id="entity-Prompt-4a61280b-684d-4c6f-8d51-ad06d61eb9bb"><rect height="134" width="179.65625" y="0" x="0" class="er entityBox"/><text style="dominant-baseline: middle; text-anchor: middle; font-size: 12px;" transform="translate(89.828125,12)" y="0" x="0" id="text-entity-Prompt-4a61280b-684d-4c6f-8d51-ad06d61eb9bb" class="er entityLabel">Prompt</text><rect height="22" width="53.6640625" y="24" x="0" class="er attributeBoxOdd"/><text style="dominant-baseline: middle; font-size: 10.2px;" transform="translate(5,35)" y="0" x="0" id="text-entity-Prompt-4a61280b-684d-4c6f-8d51-ad06d61eb9bb-attr-1-type" class="er entityLabel">String</text><rect height="22" width="57.6484375" y="24" x="53.6640625" class="er attributeBoxOdd"/><text style="dominant-baseline: middle; font-size: 10.2px;" transform="translate(58.6640625,35)" y="0" x="0" id="text-entity-Prompt-4a61280b-684d-4c6f-8d51-ad06d61eb9bb-attr-1-name" class="er entityLabel">z_id</text><rect height="22" width="21.5625" y="24" x="111.3125" class="er attributeBoxOdd"/><text style="dominant-baseline: middle; font-size: 10.2px;" transform="translate(116.3125,35)" y="0" x="0" id="text-entity-Prompt-4a61280b-684d-4c6f-8d51-ad06d61eb9bb-attr-1-key" class="er entityLabel">PK</text><rect height="22" width="46.78125" y="24" x="132.875" class="er attributeBoxOdd"/><text style="dominant-baseline: middle; font-size: 10.2px;" transform="translate(137.875,35)" y="0" x="0" id="text-entity-Prompt-4a61280b-684d-4c6f-8d51-ad06d61eb9bb-attr-1-comment" class="er entityLabel"/><rect height="22" width="53.6640625" y="46" x="0" class="er attributeBoxEven"/><text style="dominant-baseline: middle; font-size: 10.2px;" transform="translate(5,57)" y="0" x="0" id="text-entity-Prompt-4a61280b-684d-4c6f-8d51-ad06d61eb9bb-attr-2-type" class="er entityLabel">String</text><rect height="22" width="57.6484375" y="46" x="53.6640625" class="er attributeBoxEven"/><text style="dominant-baseline: middle; font-size: 10.2px;" transform="translate(58.6640625,57)" y="0" x="0" id="text-entity-Prompt-4a61280b-684d-4c6f-8d51-ad06d61eb9bb-attr-2-name" class="er entityLabel">text</text><rect height="22" width="21.5625" y="46" x="111.3125" class="er attributeBoxEven"/><text style="dominant-baseline: middle; font-size: 10.2px;" transform="translate(116.3125,57)" y="0" x="0" id="text-entity-Prompt-4a61280b-684d-4c6f-8d51-ad06d61eb9bb-attr-2-key" class="er entityLabel"/><rect height="22" width="46.78125" y="46" x="132.875" class="er attributeBoxEven"/><text style="dominant-baseline: middle; font-size: 10.2px;" transform="translate(137.875,57)" y="0" x="0" id="text-entity-Prompt-4a61280b-684d-4c6f-8d51-ad06d61eb9bb-attr-2-comment" class="er entityLabel"/><rect height="22" width="53.6640625" y="68" x="0" class="er attributeBoxOdd"/><text style="dominant-baseline: middle; font-size: 10.2px;" transform="translate(5,79)" y="0" x="0" id="text-entity-Prompt-4a61280b-684d-4c6f-8d51-ad06d61eb9bb-attr-3-type" class="er entityLabel">String</text><rect height="22" width="57.6484375" y="68" x="53.6640625" class="er attributeBoxOdd"/><text style="dominant-baseline: middle; font-size: 10.2px;" transform="translate(58.6640625,79)" y="0" x="0" id="text-entity-Prompt-4a61280b-684d-4c6f-8d51-ad06d61eb9bb-attr-3-name" class="er entityLabel">stub</text><rect height="22" width="21.5625" y="68" x="111.3125" class="er attributeBoxOdd"/><text style="dominant-baseline: middle; font-size: 10.2px;" transform="translate(116.3125,79)" y="0" x="0" id="text-entity-Prompt-4a61280b-684d-4c6f-8d51-ad06d61eb9bb-attr-3-key" class="er entityLabel"/><rect height="22" width="46.78125" y="68" x="132.875" class="er attributeBoxOdd"/><text style="dominant-baseline: middle; font-size: 10.2px;" transform="translate(137.875,79)" y="0" x="0" id="text-entity-Prompt-4a61280b-684d-4c6f-8d51-ad06d61eb9bb-attr-3-comment" class="er entityLabel">nullable</text><rect height="22" width="53.6640625" y="90" x="0" class="er attributeBoxEven"/><text style="dominant-baseline: middle; font-size: 10.2px;" transform="translate(5,101)" y="0" x="0" id="text-entity-Prompt-4a61280b-684d-4c6f-8d51-ad06d61eb9bb-attr-4-type" class="er entityLabel">DateTime</text><rect height="22" width="57.6484375" y="90" x="53.6640625" class="er attributeBoxEven"/><text style="dominant-baseline: middle; font-size: 10.2px;" transform="translate(58.6640625,101)" y="0" x="0" id="text-entity-Prompt-4a61280b-684d-4c6f-8d51-ad06d61eb9bb-attr-4-name" class="er entityLabel">createdAt</text><rect height="22" width="21.5625" y="90" x="111.3125" class="er attributeBoxEven"/><text style="dominant-baseline: middle; font-size: 10.2px;" transform="translate(116.3125,101)" y="0" x="0" id="text-entity-Prompt-4a61280b-684d-4c6f-8d51-ad06d61eb9bb-attr-4-key" class="er entityLabel"/><rect height="22" width="46.78125" y="90" x="132.875" class="er attributeBoxEven"/><text style="dominant-baseline: middle; font-size: 10.2px;" transform="translate(137.875,101)" y="0" x="0" id="text-entity-Prompt-4a61280b-684d-4c6f-8d51-ad06d61eb9bb-attr-4-comment" class="er entityLabel"/><rect height="22" width="53.6640625" y="112" x="0" class="er attributeBoxOdd"/><text style="dominant-baseline: middle; font-size: 10.2px;" transform="translate(5,123)" y="0" x="0" id="text-entity-Prompt-4a61280b-684d-4c6f-8d51-ad06d61eb9bb-attr-5-type" class="er entityLabel">DateTime</text><rect height="22" width="57.6484375" y="112" x="53.6640625" class="er attributeBoxOdd"/><text style="dominant-baseline: middle; font-size: 10.2px;" transform="translate(58.6640625,123)" y="0" x="0" id="text-entity-Prompt-4a61280b-684d-4c6f-8d51-ad06d61eb9bb-attr-5-name" class="er entityLabel">updatedAt</text><rect height="22" width="21.5625" y="112" x="111.3125" class="er attributeBoxOdd"/><text style="dominant-baseline: middle; font-size: 10.2px;" transform="translate(116.3125,123)" y="0" x="0" id="text-entity-Prompt-4a61280b-684d-4c6f-8d51-ad06d61eb9bb-attr-5-key" class="er entityLabel"/><rect height="22" width="46.78125" y="112" x="132.875" class="er attributeBoxOdd"/><text style="dominant-baseline: middle; font-size: 10.2px;" transform="translate(137.875,123)" y="0" x="0" id="text-entity-Prompt-4a61280b-684d-4c6f-8d51-ad06d61eb9bb-attr-5-comment" class="er entityLabel"/></g><g transform="translate(248.1171875,53 )" id="entity-TagOnPrompt-4ad7fce6-dfcf-4c9f-acca-6b76423e50ae"><rect height="90" width="132.875" y="0" x="0" class="er entityBox"/><text style="dominant-baseline: middle; text-anchor: middle; font-size: 12px;" transform="translate(66.4375,12)" y="0" x="0" id="text-entity-TagOnPrompt-4ad7fce6-dfcf-4c9f-acca-6b76423e50ae" class="er entityLabel">TagOnPrompt</text><rect height="22" width="53.6640625" y="24" x="0" class="er attributeBoxOdd"/><text style="dominant-baseline: middle; font-size: 10.2px;" transform="translate(5,35)" y="0" x="0" id="text-entity-TagOnPrompt-4ad7fce6-dfcf-4c9f-acca-6b76423e50ae-attr-1-type" class="er entityLabel">String</text><rect height="22" width="57.6484375" y="24" x="53.6640625" class="er attributeBoxOdd"/><text style="dominant-baseline: middle; font-size: 10.2px;" transform="translate(58.6640625,35)" y="0" x="0" id="text-entity-TagOnPrompt-4ad7fce6-dfcf-4c9f-acca-6b76423e50ae-attr-1-name" class="er entityLabel">z_id</text><rect height="22" width="21.5625" y="24" x="111.3125" class="er attributeBoxOdd"/><text style="dominant-baseline: middle; font-size: 10.2px;" transform="translate(116.3125,35)" y="0" x="0" id="text-entity-TagOnPrompt-4ad7fce6-dfcf-4c9f-acca-6b76423e50ae-attr-1-key" class="er entityLabel">PK</text><rect height="22" width="53.6640625" y="46" x="0" class="er attributeBoxEven"/><text style="dominant-baseline: middle; font-size: 10.2px;" transform="translate(5,57)" y="0" x="0" id="text-entity-TagOnPrompt-4ad7fce6-dfcf-4c9f-acca-6b76423e50ae-attr-2-type" class="er entityLabel">DateTime</text><rect height="22" width="57.6484375" y="46" x="53.6640625" class="er attributeBoxEven"/><text style="dominant-baseline: middle; font-size: 10.2px;" transform="translate(58.6640625,57)" y="0" x="0" id="text-entity-TagOnPrompt-4ad7fce6-dfcf-4c9f-acca-6b76423e50ae-attr-2-name" class="er entityLabel">createdAt</text><rect height="22" width="21.5625" y="46" x="111.3125" class="er attributeBoxEven"/><text style="dominant-baseline: middle; font-size: 10.2px;" transform="translate(116.3125,57)" y="0" x="0" id="text-entity-TagOnPrompt-4ad7fce6-dfcf-4c9f-acca-6b76423e50ae-attr-2-key" class="er entityLabel"/><rect height="22" width="53.6640625" y="68" x="0" class="er attributeBoxOdd"/><text style="dominant-baseline: middle; font-size: 10.2px;" transform="translate(5,79)" y="0" x="0" id="text-entity-TagOnPrompt-4ad7fce6-dfcf-4c9f-acca-6b76423e50ae-attr-3-type" class="er entityLabel">DateTime</text><rect height="22" width="57.6484375" y="68" x="53.6640625" class="er attributeBoxOdd"/><text style="dominant-baseline: middle; font-size: 10.2px;" transform="translate(58.6640625,79)" y="0" x="0" id="text-entity-TagOnPrompt-4ad7fce6-dfcf-4c9f-acca-6b76423e50ae-attr-3-name" class="er entityLabel">updatedAt</text><rect height="22" width="21.5625" y="68" x="111.3125" class="er attributeBoxOdd"/><text style="dominant-baseline: middle; font-size: 10.2px;" transform="translate(116.3125,79)" y="0" x="0" id="text-entity-TagOnPrompt-4ad7fce6-dfcf-4c9f-acca-6b76423e50ae-attr-3-key" class="er entityLabel"/></g><g transform="translate(376.25,331 )" id="entity-Tag-74674f72-474a-45b6-8a04-8efec5e6cef8"><rect height="112" width="132.875" y="0" x="0" class="er entityBox"/><text style="dominant-baseline: middle; text-anchor: middle; font-size: 12px;" transform="translate(66.4375,12)" y="0" x="0" id="text-entity-Tag-74674f72-474a-45b6-8a04-8efec5e6cef8" class="er entityLabel">Tag</text><rect height="22" width="53.6640625" y="24" x="0" class="er attributeBoxOdd"/><text style="dominant-baseline: middle; font-size: 10.2px;" transform="translate(5,35)" y="0" x="0" id="text-entity-Tag-74674f72-474a-45b6-8a04-8efec5e6cef8-attr-1-type" class="er entityLabel">String</text><rect height="22" width="57.6484375" y="24" x="53.6640625" class="er attributeBoxOdd"/><text style="dominant-baseline: middle; font-size: 10.2px;" transform="translate(58.6640625,35)" y="0" x="0" id="text-entity-Tag-74674f72-474a-45b6-8a04-8efec5e6cef8-attr-1-name" class="er entityLabel">z_id</text><rect height="22" width="21.5625" y="24" x="111.3125" class="er attributeBoxOdd"/><text style="dominant-baseline: middle; font-size: 10.2px;" transform="translate(116.3125,35)" y="0" x="0" id="text-entity-Tag-74674f72-474a-45b6-8a04-8efec5e6cef8-attr-1-key" class="er entityLabel">PK</text><rect height="22" width="53.6640625" y="46" x="0" class="er attributeBoxEven"/><text style="dominant-baseline: middle; font-size: 10.2px;" transform="translate(5,57)" y="0" x="0" id="text-entity-Tag-74674f72-474a-45b6-8a04-8efec5e6cef8-attr-2-type" class="er entityLabel">String</text><rect height="22" width="57.6484375" y="46" x="53.6640625" class="er attributeBoxEven"/><text style="dominant-baseline: middle; font-size: 10.2px;" transform="translate(58.6640625,57)" y="0" x="0" id="text-entity-Tag-74674f72-474a-45b6-8a04-8efec5e6cef8-attr-2-name" class="er entityLabel">text</text><rect height="22" width="21.5625" y="46" x="111.3125" class="er attributeBoxEven"/><text style="dominant-baseline: middle; font-size: 10.2px;" transform="translate(116.3125,57)" y="0" x="0" id="text-entity-Tag-74674f72-474a-45b6-8a04-8efec5e6cef8-attr-2-key" class="er entityLabel"/><rect height="22" width="53.6640625" y="68" x="0" class="er attributeBoxOdd"/><text style="dominant-baseline: middle; font-size: 10.2px;" transform="translate(5,79)" y="0" x="0" id="text-entity-Tag-74674f72-474a-45b6-8a04-8efec5e6cef8-attr-3-type" class="er entityLabel">DateTime</text><rect height="22" width="57.6484375" y="68" x="53.6640625" class="er attributeBoxOdd"/><text style="dominant-baseline: middle; font-size: 10.2px;" transform="translate(58.6640625,79)" y="0" x="0" id="text-entity-Tag-74674f72-474a-45b6-8a04-8efec5e6cef8-attr-3-name" class="er entityLabel">createdAt</text><rect height="22" width="21.5625" y="68" x="111.3125" class="er attributeBoxOdd"/><text style="dominant-baseline: middle; font-size: 10.2px;" transform="translate(116.3125,79)" y="0" x="0" id="text-entity-Tag-74674f72-474a-45b6-8a04-8efec5e6cef8-attr-3-key" class="er entityLabel"/><rect height="22" width="53.6640625" y="90" x="0" class="er attributeBoxEven"/><text style="dominant-baseline: middle; font-size: 10.2px;" transform="translate(5,101)" y="0" x="0" id="text-entity-Tag-74674f72-474a-45b6-8a04-8efec5e6cef8-attr-4-type" class="er entityLabel">DateTime</text><rect height="22" width="57.6484375" y="90" x="53.6640625" class="er attributeBoxEven"/><text style="dominant-baseline: middle; font-size: 10.2px;" transform="translate(58.6640625,101)" y="0" x="0" id="text-entity-Tag-74674f72-474a-45b6-8a04-8efec5e6cef8-attr-4-name" class="er entityLabel">updatedAt</text><rect height="22" width="21.5625" y="90" x="111.3125" class="er attributeBoxEven"/><text style="dominant-baseline: middle; font-size: 10.2px;" transform="translate(116.3125,101)" y="0" x="0" id="text-entity-Tag-74674f72-474a-45b6-8a04-8efec5e6cef8-attr-4-key" class="er entityLabel"/></g><g transform="translate(616.65625,20 )" id="entity-Journal-0ee4a2d1-2e8a-4834-940c-8d50adf32ee4"><rect height="156" width="197.8671875" y="0" x="0" class="er entityBox"/><text style="dominant-baseline: middle; text-anchor: middle; font-size: 12px;" transform="translate(98.93359375,12)" y="0" x="0" id="text-entity-Journal-0ee4a2d1-2e8a-4834-940c-8d50adf32ee4" class="er entityLabel">Journal</text><rect height="22" width="71.875" y="24" x="0" class="er attributeBoxOdd"/><text style="dominant-baseline: middle; font-size: 10.2px;" transform="translate(5,35)" y="0" x="0" id="text-entity-Journal-0ee4a2d1-2e8a-4834-940c-8d50adf32ee4-attr-1-type" class="er entityLabel">String</text><rect height="22" width="57.6484375" y="24" x="71.875" class="er attributeBoxOdd"/><text style="dominant-baseline: middle; font-size: 10.2px;" transform="translate(76.875,35)" y="0" x="0" id="text-entity-Journal-0ee4a2d1-2e8a-4834-940c-8d50adf32ee4-attr-1-name" class="er entityLabel">z_id</text><rect height="22" width="21.5625" y="24" x="129.5234375" class="er attributeBoxOdd"/><text style="dominant-baseline: middle; font-size: 10.2px;" transform="translate(134.5234375,35)" y="0" x="0" id="text-entity-Journal-0ee4a2d1-2e8a-4834-940c-8d50adf32ee4-attr-1-key" class="er entityLabel">PK</text><rect height="22" width="46.78125" y="24" x="151.0859375" class="er attributeBoxOdd"/><text style="dominant-baseline: middle; font-size: 10.2px;" transform="translate(156.0859375,35)" y="0" x="0" id="text-entity-Journal-0ee4a2d1-2e8a-4834-940c-8d50adf32ee4-attr-1-comment" class="er entityLabel"/><rect height="22" width="71.875" y="46" x="0" class="er attributeBoxEven"/><text style="dominant-baseline: middle; font-size: 10.2px;" transform="translate(5,57)" y="0" x="0" id="text-entity-Journal-0ee4a2d1-2e8a-4834-940c-8d50adf32ee4-attr-2-type" class="er entityLabel">Bytes</text><rect height="22" width="57.6484375" y="46" x="71.875" class="er attributeBoxEven"/><text style="dominant-baseline: middle; font-size: 10.2px;" transform="translate(76.875,57)" y="0" x="0" id="text-entity-Journal-0ee4a2d1-2e8a-4834-940c-8d50adf32ee4-attr-2-name" class="er entityLabel">ciphertext</text><rect height="22" width="21.5625" y="46" x="129.5234375" class="er attributeBoxEven"/><text style="dominant-baseline: middle; font-size: 10.2px;" transform="translate(134.5234375,57)" y="0" x="0" id="text-entity-Journal-0ee4a2d1-2e8a-4834-940c-8d50adf32ee4-attr-2-key" class="er entityLabel"/><rect height="22" width="46.78125" y="46" x="151.0859375" class="er attributeBoxEven"/><text style="dominant-baseline: middle; font-size: 10.2px;" transform="translate(156.0859375,57)" y="0" x="0" id="text-entity-Journal-0ee4a2d1-2e8a-4834-940c-8d50adf32ee4-attr-2-comment" class="er entityLabel">nullable</text><rect height="22" width="71.875" y="68" x="0" class="er attributeBoxOdd"/><text style="dominant-baseline: middle; font-size: 10.2px;" transform="translate(5,79)" y="0" x="0" id="text-entity-Journal-0ee4a2d1-2e8a-4834-940c-8d50adf32ee4-attr-3-type" class="er entityLabel">Bytes</text><rect height="22" width="57.6484375" y="68" x="71.875" class="er attributeBoxOdd"/><text style="dominant-baseline: middle; font-size: 10.2px;" transform="translate(76.875,79)" y="0" x="0" id="text-entity-Journal-0ee4a2d1-2e8a-4834-940c-8d50adf32ee4-attr-3-name" class="er entityLabel">iv</text><rect height="22" width="21.5625" y="68" x="129.5234375" class="er attributeBoxOdd"/><text style="dominant-baseline: middle; font-size: 10.2px;" transform="translate(134.5234375,79)" y="0" x="0" id="text-entity-Journal-0ee4a2d1-2e8a-4834-940c-8d50adf32ee4-attr-3-key" class="er entityLabel"/><rect height="22" width="46.78125" y="68" x="151.0859375" class="er attributeBoxOdd"/><text style="dominant-baseline: middle; font-size: 10.2px;" transform="translate(156.0859375,79)" y="0" x="0" id="text-entity-Journal-0ee4a2d1-2e8a-4834-940c-8d50adf32ee4-attr-3-comment" class="er entityLabel">nullable</text><rect height="22" width="71.875" y="90" x="0" class="er attributeBoxEven"/><text style="dominant-baseline: middle; font-size: 10.2px;" transform="translate(5,101)" y="0" x="0" id="text-entity-Journal-0ee4a2d1-2e8a-4834-940c-8d50adf32ee4-attr-4-type" class="er entityLabel">JournalStatus</text><rect height="22" width="57.6484375" y="90" x="71.875" class="er attributeBoxEven"/><text style="dominant-baseline: middle; font-size: 10.2px;" transform="translate(76.875,101)" y="0" x="0" id="text-entity-Journal-0ee4a2d1-2e8a-4834-940c-8d50adf32ee4-attr-4-name" class="er entityLabel">status</text><rect height="22" width="21.5625" y="90" x="129.5234375" class="er attributeBoxEven"/><text style="dominant-baseline: middle; font-size: 10.2px;" transform="translate(134.5234375,101)" y="0" x="0" id="text-entity-Journal-0ee4a2d1-2e8a-4834-940c-8d50adf32ee4-attr-4-key" class="er entityLabel"/><rect height="22" width="46.78125" y="90" x="151.0859375" class="er attributeBoxEven"/><text style="dominant-baseline: middle; font-size: 10.2px;" transform="translate(156.0859375,101)" y="0" x="0" id="text-entity-Journal-0ee4a2d1-2e8a-4834-940c-8d50adf32ee4-attr-4-comment" class="er entityLabel"/><rect height="22" width="71.875" y="112" x="0" class="er attributeBoxOdd"/><text style="dominant-baseline: middle; font-size: 10.2px;" transform="translate(5,123)" y="0" x="0" id="text-entity-Journal-0ee4a2d1-2e8a-4834-940c-8d50adf32ee4-attr-5-type" class="er entityLabel">DateTime</text><rect height="22" width="57.6484375" y="112" x="71.875" class="er attributeBoxOdd"/><text style="dominant-baseline: middle; font-size: 10.2px;" transform="translate(76.875,123)" y="0" x="0" id="text-entity-Journal-0ee4a2d1-2e8a-4834-940c-8d50adf32ee4-attr-5-name" class="er entityLabel">createdAt</text><rect height="22" width="21.5625" y="112" x="129.5234375" class="er attributeBoxOdd"/><text style="dominant-baseline: middle; font-size: 10.2px;" transform="translate(134.5234375,123)" y="0" x="0" id="text-entity-Journal-0ee4a2d1-2e8a-4834-940c-8d50adf32ee4-attr-5-key" class="er entityLabel"/><rect height="22" width="46.78125" y="112" x="151.0859375" class="er attributeBoxOdd"/><text style="dominant-baseline: middle; font-size: 10.2px;" transform="translate(156.0859375,123)" y="0" x="0" id="text-entity-Journal-0ee4a2d1-2e8a-4834-940c-8d50adf32ee4-attr-5-comment" class="er entityLabel"/><rect height="22" width="71.875" y="134" x="0" class="er attributeBoxEven"/><text style="dominant-baseline: middle; font-size: 10.2px;" transform="translate(5,145)" y="0" x="0" id="text-entity-Journal-0ee4a2d1-2e8a-4834-940c-8d50adf32ee4-attr-6-type" class="er entityLabel">DateTime</text><rect height="22" width="57.6484375" y="134" x="71.875" class="er attributeBoxEven"/><text style="dominant-baseline: middle; font-size: 10.2px;" transform="translate(76.875,145)" y="0" x="0" id="text-entity-Journal-0ee4a2d1-2e8a-4834-940c-8d50adf32ee4-attr-6-name" class="er entityLabel">updatedAt</text><rect height="22" width="21.5625" y="134" x="129.5234375" class="er attributeBoxEven"/><text style="dominant-baseline: middle; font-size: 10.2px;" transform="translate(134.5234375,145)" y="0" x="0" id="text-entity-Journal-0ee4a2d1-2e8a-4834-940c-8d50adf32ee4-attr-6-key" class="er entityLabel"/><rect height="22" width="46.78125" y="134" x="151.0859375" class="er attributeBoxEven"/><text style="dominant-baseline: middle; font-size: 10.2px;" transform="translate(156.0859375,145)" y="0" x="0" id="text-entity-Journal-0ee4a2d1-2e8a-4834-940c-8d50adf32ee4-attr-6-comment" class="er entityLabel"/></g><rect height="14" width="39.1953125" y="207.62718200683594" x="148.96511840820312" class="er relationshipLabelBox"/><text style="text-anchor: middle; dominant-baseline: middle; font-size: 12px;" y="214.62718200683594" x="168.56277465820312" id="rel1" class="er relationshipLabel">prompt</text><rect height="14" width="17.0859375" y="218.81436157226562" x="418.51702880859375" class="er relationshipLabelBox"/><text style="text-anchor: middle; dominant-baseline: middle; font-size: 12px;" y="225.81436157226562" x="427.05999755859375" id="rel2" class="er relationshipLabel">tag</text><rect height="14" width="35.28125" y="219" x="697.94921875" class="er relationshipLabelBox"/><text style="text-anchor: middle; dominant-baseline: middle; font-size: 12px;" y="226" x="715.58984375" id="rel3" class="er relationshipLabel">author</text><rect height="14" width="39.1953125" y="184.8585205078125" x="378.59039306640625" class="er relationshipLabelBox"/><text style="text-anchor: middle; dominant-baseline: middle; font-size: 12px;" y="191.8585205078125" x="398.18804931640625" id="rel4" class="er relationshipLabel">prompt</text><rect height="14" width="66.1171875" y="209.79336547851562" x="899.0335083007812" class="er relationshipLabelBox"/><text style="text-anchor: middle; dominant-baseline: middle; font-size: 12px;" y="216.79336547851562" x="932.0921020507812" id="rel5" class="er relationshipLabel">enum:status</text></svg>